STARTFONT 2.1
COMMENT
COMMENT Converted from OpenType font "Patriot-Regular.otf" by "otf2bdf 3.0".
COMMENT
FONT -FreeType-Patriot-Medium-R-Normal--50-360-100-100-P-237-ISO10646-1
SIZE 36 100 100
FONTBOUNDINGBOX 80 65 -18 -13
STARTPROPERTIES 19
FOUNDRY "FreeType"
FAMILY_NAME "Patriot"
WEIGHT_NAME "Medium"
SLANT "R"
SETWIDTH_NAME "Normal"
ADD_STYLE_NAME ""
PIXEL_SIZE 50
POINT_SIZE 360
RESOLUTION_X 100
RESOLUTION_Y 100
SPACING "P"
AVERAGE_WIDTH 237
CHARSET_REGISTRY "ISO10646"
CHARSET_ENCODING "1"
FONT_ASCENT 50
FONT_DESCENT 10
COPYRIGHT "Copyright © 2020 by Behalf Studio. All rights reserved."
_OTF_FONTFILE "Patriot-Regular.otf"
_OTF_PSNAME "Patriot-Regular"
ENDPROPERTIES
CHARS 426
STARTCHAR 0020
ENCODING 32
SWIDTH 360 0
DWIDTH 18 0
BBX 0 0 0 0
BITMAP
ENDCHAR
STARTCHAR 0021
ENCODING 33
SWIDTH 240 0
DWIDTH 12 0
BBX 7 36 3 -1
BITMAP
78
78
78
78
78
78
78
78
78
78
78
78
78
78
78
78
78
78
78
78
78
78
78
00
00
00
00
00
30
7C
FE
FE
FE
FE
7C
30
ENDCHAR
STARTCHAR 0022
ENCODING 34
SWIDTH 300 0
DWIDTH 15 0
BBX 10 11 3 24
BITMAP
E1C0
E1C0
E1C0
E1C0
E1C0
E1C0
E1C0
E1C0
E1C0
E1C0
E1C0
ENDCHAR
STARTCHAR 0023
ENCODING 35
SWIDTH 620 0
DWIDTH 31 0
BBX 26 35 3 0
BITMAP
00F01E00
00E01E00
01E01E00
01E01E00
01E01C00
01E03C00
01E03C00
01E03C00
01E03C00
03C03C00
03C03C00
7FFFFFC0
7FFFFFC0
7FFFFFC0
03C07800
03C07800
07807800
07807800
07807000
0780F000
0780F000
0780F000
FFFFFF80
FFFFFF80
FFFFFF80
0F00E000
0F01E000
0F01E000
0F01E000
0F01E000
1E01E000
1E01E000
1E01C000
1E03C000
1E03C000
ENDCHAR
STARTCHAR 0024
ENCODING 36
SWIDTH 540 0
DWIDTH 27 0
BBX 21 44 3 -4
BITMAP
007800
007800
007800
007800
00F800
07FF00
0FFF80
1FFFC0
3FFFE0
3F7BF0
3E79F0
7C79F0
7C78F8
7C78E0
7C7800
3E7800
3F7800
1FF800
1FF800
0FF800
07FC00
01FE00
00FF80
007FC0
007FE0
007FF0
007BF0
0079F8
0078F8
007878
107878
F87878
F878F8
FC78F8
7C79F8
7F7BF0
3FFFF0
1FFFE0
0FFFC0
07FF80
00FC00
007800
007800
007800
ENDCHAR
STARTCHAR 0025
ENCODING 37
SWIDTH 860 0
DWIDTH 43 0
BBX 38 37 3 -1
BITMAP
03E0000000
0FF8000780
3FFC000F00
7FFE001E00
7C1F001E00
F80F003C00
F007807800
F007807800
F00780F000
F00781E000
F00783C000
F00F83C000
781F078000
7F7E0F0000
3FFE0F0000
1FF81E0000
07E03C0000
00003C0000
0000780000
0000F00000
0001E03F80
0001E0FFE0
0003C1FFF0
000783FBF8
000783E0F8
000F07C07C
001E07803C
001E07803C
003C07803C
007807803C
00F007803C
00F007C07C
01E003E0F8
03C001FFF0
03C001FFE0
0780007FC0
0000001F00
ENDCHAR
STARTCHAR 0026
ENCODING 38
SWIDTH 640 0
DWIDTH 32 0
BBX 27 37 3 -1
BITMAP
00200000
03FF0000
07FFC000
0FFFE000
1FFFF000
3F03F800
3E01F800
7C00F000
7C006000
7C000000
7C000000
7C000000
7C000000
3E000000
3F000000
1FFFFFE0
0FFFFFE0
0FFFFFE0
1FFFFFE0
3FFFFFE0
7F000F80
7C000F00
F8000F00
F8001F00
F8001F00
F8001F00
F8001F00
F8003E00
F8003E00
FC007E00
7E00FC00
7F03F800
3FFFF800
1FFFF000
0FFFE000
03FF8000
00100000
ENDCHAR
STARTCHAR 0027
ENCODING 39
SWIDTH 160 0
DWIDTH 8 0
BBX 3 11 3 24
BITMAP
E0
E0
E0
E0
E0
E0
E0
E0
E0
E0
E0
ENDCHAR
STARTCHAR 0028
ENCODING 40
SWIDTH 320 0
DWIDTH 16 0
BBX 11 47 3 -7
BITMAP
0180
01C0
03C0
07C0
0780
0F80
0F00
1E00
1E00
3C00
3C00
3C00
7800
7800
7800
7000
F000
F000
F000
E000
E000
E000
E000
E000
E000
E000
E000
F000
F000
F000
F000
7000
7000
7800
7800
3C00
3C00
3C00
1E00
1E00
0F00
0F80
0780
03C0
03E0
01C0
0100
ENDCHAR
STARTCHAR 0029
ENCODING 41
SWIDTH 320 0
DWIDTH 16 0
BBX 11 47 3 -7
BITMAP
2000
F000
F000
7800
7800
3C00
3E00
1E00
1E00
0F00
0F00
0780
0780
0380
03C0
03C0
03C0
01C0
01C0
01E0
01E0
01E0
01E0
01E0
01E0
01E0
01E0
01E0
01C0
01C0
03C0
03C0
03C0
0380
0780
0780
0F00
0F00
1E00
1E00
3E00
3C00
7800
7800
F000
7000
2000
ENDCHAR
STARTCHAR 002A
ENCODING 42
SWIDTH 440 0
DWIDTH 22 0
BBX 17 17 3 18
BITMAP
018000
03C000
03C000
03E000
03C000
F1C700
FDDF80
FFBF80
FFFF80
3FFE00
03E000
0F7000
1F7800
1F7C00
3E3C00
3E3C00
1C1C00
ENDCHAR
STARTCHAR 002B
ENCODING 43
SWIDTH 540 0
DWIDTH 27 0
BBX 22 23 3 5
BITMAP
007800
007800
007800
007800
007800
007800
007800
007800
007800
007800
FFFFFC
FFFFFC
FFFFFC
007800
007800
007800
007800
007800
007800
007800
007800
007800
007800
ENDCHAR
STARTCHAR 002C
ENCODING 44
SWIDTH 260 0
DWIDTH 13 0
BBX 8 10 3 -6
BITMAP
1F
1E
3C
3C
38
78
70
70
E0
E0
ENDCHAR
STARTCHAR 002D
ENCODING 45
SWIDTH 440 0
DWIDTH 22 0
BBX 17 3 3 10
BITMAP
FFFF80
FFFF80
FFFF80
ENDCHAR
STARTCHAR 002E
ENCODING 46
SWIDTH 240 0
DWIDTH 12 0
BBX 7 8 3 -1
BITMAP
30
7C
FE
FE
FE
FE
7C
30
ENDCHAR
STARTCHAR 002F
ENCODING 47
SWIDTH 380 0
DWIDTH 19 0
BBX 14 37 3 -1
BITMAP
003C
003C
0078
0078
0078
0078
00F0
00F0
00F0
01E0
01E0
01E0
01E0
03C0
03C0
03C0
0780
0780
0780
0780
0F00
0F00
0F00
1E00
1E00
1E00
1C00
3C00
3C00
3C00
7800
7800
7800
7000
F000
F000
F000
ENDCHAR
STARTCHAR 0030
ENCODING 48
SWIDTH 700 0
DWIDTH 35 0
BBX 32 37 2 -1
BITMAP
0007C000
007FFC00
01FFFF00
03FFFF80
07FFFFE0
0FE00FF0
1F8003F0
3F0001F8
3E0000FC
7E00007C
7C00003E
7800003E
F800003E
F800001E
F800001F
F000001F
F000001F
F000001F
F000001F
F000001F
F000001F
F000001F
F800001F
F800001E
F800003E
7800003E
7C00003C
7E00007C
3E0000FC
3F0001F8
1F8003F0
0FE00FF0
07FFFFE0
03FFFF80
01FFFF00
003FFC00
0007E000
ENDCHAR
STARTCHAR 0031
ENCODING 49
SWIDTH 280 0
DWIDTH 14 0
BBX 10 35 2 0
BITMAP
03C0
03C0
03C0
FFC0
FFC0
FFC0
FFC0
03C0
03C0
03C0
03C0
03C0
03C0
03C0
03C0
03C0
03C0
03C0
03C0
03C0
03C0
03C0
03C0
03C0
03C0
03C0
03C0
03C0
03C0
03C0
03C0
03C0
03C0
03C0
03C0
ENDCHAR
STARTCHAR 0032
ENCODING 50
SWIDTH 540 0
DWIDTH 27 0
BBX 23 36 2 0
BITMAP
007C00
03FF80
0FFFE0
1FFFF0
3FFFF8
3F01F8
7E00FC
7C007C
F8003E
F8003E
F8003E
F8003E
00003E
00003C
00007C
00007C
0000F8
0000F8
0001F0
0003F0
0007E0
000FC0
001F80
003F00
007E00
00FC00
01F800
03F000
07E000
0FC000
0F8000
1F0000
3FFFFE
7FFFFE
FFFFFE
FFFFFE
ENDCHAR
STARTCHAR 0033
ENCODING 51
SWIDTH 520 0
DWIDTH 26 0
BBX 23 36 2 -1
BITMAP
FFFFF8
FFFFF8
FFFFF8
FFFFE0
0007C0
000F80
001F00
003E00
007C00
00F800
01F000
03FE00
0FFF80
1FFFC0
3FFFE0
3F07F0
1C01F8
0800FC
00007C
00003C
00003E
00003E
00003E
00003E
00003E
00003E
00003C
00007C
3000FC
7801F8
FC03F8
7FFFF0
3FFFE0
1FFFC0
07FF00
00F800
ENDCHAR
STARTCHAR 0034
ENCODING 52
SWIDTH 520 0
DWIDTH 26 0
BBX 25 35 1 0
BITMAP
0003F800
001FF800
007FF800
00FFF800
03FF7800
07F87800
0FE07800
0FC07800
1F807800
3F007800
3E007800
7C007800
7C007800
7C007800
F8007800
F8007800
F8007800
F8007800
F0007800
F0007800
FFFFFF80
FFFFFF80
FFFFFF80
FFFFFF80
FFFFFF80
00007800
00007800
00007800
00007800
00007800
00007800
00007800
00007800
00007800
00007800
ENDCHAR
STARTCHAR 0035
ENCODING 53
SWIDTH 540 0
DWIDTH 27 0
BBX 24 36 2 -1
BITMAP
3FFFFC
3FFFFC
3FFFFC
3FFFFC
3C0000
3C0000
7C0000
7C0000
7C0000
780000
780000
78FF00
7BFFC0
7FFFE0
7FFFF0
7F83F8
7E00FC
38007C
00003E
00003E
00001E
00001E
00001F
00001E
00001E
00001E
00003E
00003E
18007C
7C00FC
FE01F8
7FFFF0
3FFFE0
1FFFC0
07FF80
007C00
ENDCHAR
STARTCHAR 0036
ENCODING 54
SWIDTH 600 0
DWIDTH 30 0
BBX 27 36 2 -1
BITMAP
0007C000
000F8000
001F0000
003F0000
003E0000
007C0000
00FC0000
00F80000
01F00000
03E00000
03FFE000
07FFF800
0FFFFC00
1FFFFE00
1FC07F00
3F001F80
3E000F80
7C0007C0
7C0007C0
780003E0
F80003E0
F80003E0
F80003E0
F80003E0
F80003E0
F80003E0
7C0007C0
7C0007C0
7E000F80
3F001F80
1F803F00
1FFFFE00
07FFFC00
03FFF800
00FFE000
001F0000
ENDCHAR
STARTCHAR 0037
ENCODING 55
SWIDTH 440 0
DWIDTH 22 0
BBX 21 35 2 0
BITMAP
FFFFF8
FFFFF8
FFFFF0
FFFFF0
0001F0
0001E0
0003E0
0003C0
0007C0
0007C0
000780
000F80
000F00
001F00
7FFFE0
7FFFE0
7FFFE0
7FFFE0
007C00
007C00
007800
00F800
00F000
01F000
01F000
01E000
03E000
03C000
07C000
07C000
078000
0F8000
0F0000
1F0000
1F0000
ENDCHAR
STARTCHAR 0038
ENCODING 56
SWIDTH 560 0
DWIDTH 28 0
BBX 26 37 1 -1
BITMAP
001E0000
00FFC000
01FFE000
03FFF000
03E1F800
07C0F800
07807C00
07807C00
07807C00
07807C00
07C07800
07C0F800
03FFF800
01FFF000
03FFF800
0FFFFC00
1FE1FE00
1F803F00
3E001F00
7C000F80
7C000F80
780007C0
780007C0
F80007C0
F80007C0
F80007C0
780007C0
7C000780
7C000F80
3E001F80
3F001F00
1F807F00
1FFFFE00
0FFFFC00
03FFF800
01FFE000
003F0000
ENDCHAR
STARTCHAR 0039
ENCODING 57
SWIDTH 580 0
DWIDTH 29 0
BBX 26 36 2 0
BITMAP
003F0000
01FFE000
07FFF800
0FFFFC00
1FFFFE00
3F807F00
3E001F00
7C000F80
7C000F80
F80007C0
F80007C0
F00003C0
F00003C0
F00003C0
F00003C0
F00003C0
F80007C0
F80007C0
7C000F80
7E001F80
3F003F00
3F807F00
1FFFFE00
0FFFFC00
03FFFC00
00FEF800
0001F000
0003F000
0003E000
0007C000
000FC000
001F8000
001F0000
003E0000
007E0000
007C0000
ENDCHAR
STARTCHAR 003A
ENCODING 58
SWIDTH 240 0
DWIDTH 12 0
BBX 7 25 3 -1
BITMAP
7C
FC
FE
FE
FE
FC
78
00
00
00
00
00
00
00
00
00
00
30
7C
FE
FE
FE
FE
7C
30
ENDCHAR
STARTCHAR 003B
ENCODING 59
SWIDTH 280 0
DWIDTH 14 0
BBX 9 30 3 -6
BITMAP
1E00
3F00
7F80
7F80
7F00
3F00
1E00
0000
0000
0000
0000
0000
0000
0000
0000
0000
0000
0000
0000
0000
1F00
1E00
3C00
3C00
3800
7800
7000
7000
E000
E000
ENDCHAR
STARTCHAR 003C
ENCODING 60
SWIDTH 540 0
DWIDTH 27 0
BBX 22 21 3 5
BITMAP
000004
00003C
0001FC
0007FC
003FF0
01FF80
07FC00
3FF000
FF8000
FC0000
F00000
FE0000
FFC000
1FF000
07FE00
00FFC0
001FF8
0007FC
0000FC
00001C
000004
ENDCHAR
STARTCHAR 003D
ENCODING 61
SWIDTH 540 0
DWIDTH 27 0
BBX 22 14 3 9
BITMAP
FFFFFC
FFFFFC
FFFFFC
FFFFFC
000000
000000
000000
000000
000000
000000
FFFFFC
FFFFFC
FFFFFC
FFFFFC
ENDCHAR
STARTCHAR 003E
ENCODING 62
SWIDTH 540 0
DWIDTH 27 0
BBX 22 20 3 5
BITMAP
800000
F00000
FC0000
FF8000
3FF000
07FE00
01FF80
003FF0
0007FC
0000FC
00003C
0001FC
000FFC
003FE0
01FF80
0FFC00
7FE000
FF8000
FC0000
E00000
ENDCHAR
STARTCHAR 003F
ENCODING 63
SWIDTH 420 0
DWIDTH 21 0
BBX 16 37 3 -1
BITMAP
0180
0FF0
3FFC
7FFC
7FFE
F83E
F01F
F01F
001F
001E
001E
003E
007C
0078
00F8
01F0
01E0
03E0
03C0
07C0
0780
0780
0780
0780
0780
0000
0000
0000
0000
0300
0FC0
0FC0
1FE0
1FE0
0FC0
0FC0
0100
ENDCHAR
STARTCHAR 0040
ENCODING 64
SWIDTH 800 0
DWIDTH 40 0
BBX 34 37 3 -1
BITMAP
0000F80000
001FFF8000
007FFFE000
01FE07F800
03F0007C00
07C0003E00
0F00000F00
1E00000700
1C00000780
3C00E00380
7803FB83C0
700FFF81C0
701FFF81C0
F01F0F81C0
E03E0781C0
E03C0701C0
E03C0701C0
E07C0701C0
E0780703C0
E0780703C0
E07C0F0380
E03C0F0780
E03E1F0F00
F03FFFFE00
701FF3FC00
780FE3F800
7801004000
3C00000000
1E00000000
1E00000400
0F80000E00
07C0003E00
03F000FC00
00FF0FF800
007FFFE000
000FFF8000
0000700000
ENDCHAR
STARTCHAR 0041
ENCODING 65
SWIDTH 540 0
DWIDTH 27 0
BBX 25 36 2 0
BITMAP
00780000
03FF0000
0FFFC000
1FFFE000
1FFFF000
3F03F000
3E01F800
7C00F800
7C00F800
7C007800
78007C00
78007C00
F8007C00
F8007C00
F8007C00
F8007C00
F8007C00
F8007C00
F8007C00
F8007C00
F8007C00
F8007C00
F8007C00
F8007C00
F8007C00
F8007C00
F8007C00
F8007C00
F8007C00
F8007C00
F8007C00
F8007C00
FFFFFF80
FFFFFF80
FFFFFF80
FFFFFF80
ENDCHAR
STARTCHAR 0042
ENCODING 66
SWIDTH 600 0
DWIDTH 30 0
BBX 27 35 2 0
BITMAP
1FFFE000
1FFFF800
1FFFFE00
1FFFFF00
1F01FF80
1F001F80
1F000F80
1F0007C0
1F0007C0
1F0007C0
1F0007C0
1F0007C0
1F000F80
1F000F80
1F003F80
FFFFFF00
FFFFFE00
FFFFFE00
FFFFFF80
1F00FF80
1F000FC0
1F0007C0
1F0003E0
1F0003E0
1F0003E0
1F0003E0
1F0003E0
1F0003E0
1F0007C0
1F000FC0
1F00FF80
1FFFFF80
1FFFFF00
1FFFFC00
1FFFE000
ENDCHAR
STARTCHAR 0043
ENCODING 67
SWIDTH 680 0
DWIDTH 34 0
BBX 32 37 2 -1
BITMAP
0001F800
001FFF80
007FFFE0
01FFFFF8
03FFFFFC
07F801FE
0FE0007F
1FC0003C
1F000018
3F000000
7E000000
7C000000
7C000000
F8000000
F8000000
F8000000
F8000000
F8000000
F0000000
F0000000
F8000000
F8000000
F8000000
F8000000
7C000000
7C000000
7E000000
3F000000
1F000018
1FC0003C
0FE0007F
07F801FE
03FFFFFC
01FFFFF8
007FFFE0
001FFF80
0000F800
ENDCHAR
STARTCHAR 0044
ENCODING 68
SWIDTH 640 0
DWIDTH 32 0
BBX 28 35 3 0
BITMAP
FFFC0000
FFFF8000
FFFFF000
FFFFF800
F03FFC00
F001FE00
F0007F00
F0001F80
F0000FC0
F00007C0
F00007E0
F00003E0
F00003E0
F00001E0
F00001F0
F00001F0
F00001F0
F00001F0
F00001F0
F00001F0
F00001F0
F00001E0
F00003E0
F00003E0
F00007E0
F00007C0
F0000FC0
F0001F80
F0007F00
F001FF00
F03FFE00
FFFFF800
FFFFF000
FFFFC000
FFFC0000
ENDCHAR
STARTCHAR 0045
ENCODING 69
SWIDTH 480 0
DWIDTH 24 0
BBX 24 35 1 0
BITMAP
0FFFC0
0FFFC0
0FFFC0
0FFFC0
0F0000
0F0000
0F0000
0F0000
0F0000
0F0000
0F0000
0F0000
0F0000
0F0000
0F0000
FFFFF0
FFFFF0
FFFFF0
FFFFF0
FFFFF0
0F0000
0F0000
0F0000
0F0000
0F0000
0F0000
0F0000
0F0000
0F0000
0F0000
0F0000
0FFFFF
0FFFFF
0FFFFF
0FFFFF
ENDCHAR
STARTCHAR 0046
ENCODING 70
SWIDTH 460 0
DWIDTH 23 0
BBX 22 35 1 0
BITMAP
0FFFFC
0FFFFC
0FFFFC
0FFFFC
0F8000
0F8000
0F8000
0F8000
0F8000
0F8000
0F8000
0F8000
0F8000
0F8000
0F8000
0F8000
FFFFF8
FFFFF8
FFFFF8
FFFFF8
0F8000
0F8000
0F8000
0F8000
0F8000
0F8000
0F8000
0F8000
0F8000
0F8000
0F8000
0F8000
0F8000
0F8000
0F8000
ENDCHAR
STARTCHAR 0047
ENCODING 71
SWIDTH 820 0
DWIDTH 41 0
BBX 39 37 2 -1
BITMAP
0000F80000
001FFF8000
007FFFE000
01FFFFF800
03FFFFFC00
07F801FE00
0FE0007F00
1FC0003E00
1F80001C00
3F00000000
7E00000000
7C00000000
7C00000000
F800000000
F800000000
F800000000
F8007FFFFE
F8007FFFFE
F0007FFFFE
F0007FFFFE
F8007FFFFE
F8000001F0
F8000001F0
F8000001F0
7C000003E0
7C000003E0
7E000007E0
3F00000FC0
1F80000FC0
1FC0003F80
0FE0007F00
07F801FE00
03FFFFFC00
00FFFFF800
007FFFE000
001FFF8000
0000F80000
ENDCHAR
STARTCHAR 0048
ENCODING 72
SWIDTH 560 0
DWIDTH 28 0
BBX 24 35 1 0
BITMAP
0F000F
0F000F
0F000F
0F000F
0F000F
0F000F
0F000F
0F000F
0F000F
0F000F
0F000F
0F000F
0F000F
0F000F
FFFFFF
FFFFFF
FFFFFF
FFFFFF
FFFFFF
0F000F
0F000F
0F000F
0F000F
0F000F
0F000F
0F000F
0F000F
0F000F
0F000F
0F000F
0F000F
0F000F
0F000F
0F000F
0F000F
ENDCHAR
STARTCHAR 0049
ENCODING 73
SWIDTH 180 0
DWIDTH 9 0
BBX 12 39 -1 1
BITMAP
0400
0600
0600
0E00
FFF0
7FC0
1F80
1F80
1F80
3980
3080
0040
0000
0000
0000
0000
0000
1F00
1F00
1F00
1F00
1F00
1F00
1F00
1F00
1F00
1F00
1F00
1F00
1F00
1F00
1F00
1F00
1F00
1F00
1F00
1F00
1F00
1F00
ENDCHAR
STARTCHAR 004A
ENCODING 74
SWIDTH 460 0
DWIDTH 23 0
BBX 20 36 1 -1
BITMAP
001FF0
001FF0
001FF0
001FF0
0001F0
0001F0
0001F0
0001F0
0001F0
0001F0
0001F0
0001F0
0001F0
0001F0
0001F0
0001F0
0001F0
0001F0
0001F0
0001F0
0001F0
0001F0
0001F0
0001F0
0001F0
0001F0
0001E0
1003E0
7003E0
F807E0
FC0FC0
7FFFC0
3FFF80
1FFF00
0FFE00
01F000
ENDCHAR
STARTCHAR 004B
ENCODING 75
SWIDTH 520 0
DWIDTH 26 0
BBX 24 35 1 0
BITMAP
0F007C
0F007C
0F007C
0F007C
0F007C
0F007C
0F007C
0F0078
0F0078
0F0078
0F00F8
0F00F8
0F01F8
0F01F0
0F07F0
FFFFE0
FFFFE0
FFFFF0
FFFFF8
0F03FC
0F007C
0F007E
0F003E
0F003E
0F001E
0F001F
0F001F
0F001F
0F001F
0F001F
0F001F
0F001F
0F001F
0F001F
0F001F
ENDCHAR
STARTCHAR 004C
ENCODING 76
SWIDTH 420 0
DWIDTH 21 0
BBX 18 35 3 0
BITMAP
F00000
F00000
F00000
F00000
F00000
F00000
F00000
F00000
F00000
F00000
F00000
F00000
F00000
F00000
F00000
F00000
F00000
F00000
F00000
F00000
F00000
F00000
F00000
F00000
F00000
F00000
F00000
F00000
F00000
F00000
F00000
FFFFC0
FFFFC0
FFFFC0
FFFFC0
ENDCHAR
STARTCHAR 004D
ENCODING 77
SWIDTH 860 0
DWIDTH 43 0
BBX 40 36 1 0
BITMAP
2000000000
700018001F
7C001C001F
FE001F001F
7F001F801F
3FC01FC01F
1FE01FF01F
1FF01FF81F
1FF81FFC1F
1FFE1FFE1F
1F7F1F3F9F
1F3F9F1FDF
1F1FDF0FFF
1F07FF07FF
1F03FF01FF
1F01FF00FF
1F007F007F
1F003F003F
1F001F001F
1F001F001F
1F001F001F
1F001F001F
1F001F001F
1F001F001F
1F001F001F
1F001F001F
1F001F001F
1F001F001F
1F001F001F
1F001F001F
1F001F001F
1F001F001F
1F001F001F
1F001F001F
1F001F001F
1F001F001F
ENDCHAR
STARTCHAR 004E
ENCODING 78
SWIDTH 520 0
DWIDTH 26 0
BBX 23 36 1 0
BITMAP
200000
70003E
7C003E
FE003E
7F003E
3FC03E
3FE03E
3FF03E
3FF83E
3FFE3E
3E7F3E
3E3FBE
3E1FFE
3E0FFE
3E03FE
3E01FE
3E00FE
3E007E
3E003E
3E003E
3E003E
3E003E
3E003E
3E003E
3E003E
3E003E
3E003E
3E003E
3E003E
3E003E
3E003E
3E003E
3E003E
3E003E
3E003E
3E003E
ENDCHAR
STARTCHAR 004F
ENCODING 79
SWIDTH 800 0
DWIDTH 40 0
BBX 37 37 2 -1
BITMAP
0000FC0000
001FFF8000
007FFFF000
01FFFFF800
03FFFFFE00
07F801FF00
0FE0007F80
1FC0001F80
1F80000FC0
3F000007E0
7E000003E0
7C000001F0
7C000001F0
F8000000F0
F8000000F8
F8000000F8
F8000000F8
F8000000F8
F0000000F8
F0000000F8
F8000000F8
F8000000F8
F8000000F8
F8000000F0
7C000001F0
7C000001F0
7E000003E0
3F000007E0
1F80000FC0
1FC0001FC0
0FE0003F80
07F801FF00
03FFFFFE00
00FFFFF800
007FFFF000
001FFFC000
0000F80000
ENDCHAR
STARTCHAR 0050
ENCODING 80
SWIDTH 540 0
DWIDTH 27 0
BBX 26 35 1 0
BITMAP
1FFFC000
1FFFF000
1FFFFC00
1FFFFE00
1F03FF00
1F003F80
1F000F80
1F0007C0
1F0007C0
1F0007C0
1F0007C0
1F0007C0
1F0007C0
1F0007C0
1F000F80
1F001F80
1F007F00
FFFFFF00
FFFFFE00
FFFFF800
FFFFE000
FFFC0000
1F000000
1F000000
1F000000
1F000000
1F000000
1F000000
1F000000
1F000000
1F000000
1F000000
1F000000
1F000000
1F000000
ENDCHAR
STARTCHAR 0051
ENCODING 81
SWIDTH 800 0
DWIDTH 40 0
BBX 37 37 2 -1
BITMAP
0000FC0000
001FFF8000
007FFFF000
01FFFFF800
03FFFFFE00
07F801FF00
0FE0007F80
1FC0001F80
1F80000FC0
3F000007E0
7E000003E0
7C000001F0
7C000001F0
F8000000F0
F8000000F8
F8000000F8
F8000000F8
F8000000F8
F0000000F8
F0000000F8
F8000000F8
F8000000F8
F8000000F8
F8000000F0
7C000041F0
7C0000E1F0
7E0001F3E0
3F0003FFE0
1F8001FFC0
1FC000FFC0
0FE0007F80
07F801FF80
03FFFFFFC0
00FFFFFFE0
007FFFF7E0
001FFFC3C0
0000FC0180
ENDCHAR
STARTCHAR 0052
ENCODING 82
SWIDTH 580 0
DWIDTH 29 0
BBX 27 35 1 0
BITMAP
0FFFC000
0FFFF800
0FFFFE00
0FFFFF00
0F01FF80
0F001FC0
0F000FC0
0F0007C0
0F0003C0
0F0003E0
0F0003E0
0F0003E0
0F0003C0
0F0007C0
0F000FC0
0F001F80
0F00FF80
FFFFFF00
FFFFFE00
FFFFF800
FFFFFC00
0F01FE00
0F007E00
0F001F00
0F001F00
0F000F80
0F000F80
0F000F80
0F000F80
0F000F80
0F000F80
0F000F80
0F000F80
0F000F80
0F000F80
ENDCHAR
STARTCHAR 0053
ENCODING 83
SWIDTH 480 0
DWIDTH 24 0
BBX 22 37 1 -1
BITMAP
007C00
03FF80
07FFC0
0FFFE0
1FFFF0
1F83F0
3E01F8
3E00F8
3E0078
3E0070
3E0000
3F0000
1F0000
1FC000
0FE000
07F800
03FE00
00FF00
007FC0
001FE0
000FF0
0003F8
0001F8
0000FC
00007C
00007C
18007C
F8007C
7C007C
7C007C
7E00FC
3F01F8
1FFFF8
0FFFF0
07FFE0
03FF80
007E00
ENDCHAR
STARTCHAR 0054
ENCODING 84
SWIDTH 500 0
DWIDTH 25 0
BBX 23 35 1 0
BITMAP
FFFFFE
FFFFFE
FFFFFE
FFFFFE
007C00
007C00
007C00
007C00
007C00
007C00
007C00
007C00
007C00
007C00
007C00
007C00
007C00
007C00
007C00
007C00
007C00
007C00
007C00
007C00
007C00
007C00
007C00
007C00
007C00
007C00
007C00
007C00
007C00
007C00
007C00
ENDCHAR
STARTCHAR 0055
ENCODING 85
SWIDTH 500 0
DWIDTH 25 0
BBX 21 36 2 -1
BITMAP
F80078
F80078
F80078
F80078
F80078
F80078
F80078
F80078
F80078
F80078
F80078
F80078
F80078
F80078
F80078
F80078
F80078
F80078
F80078
F80078
F80078
F80078
F80078
F80078
F80078
F800F8
F800F8
7800F8
7C00F8
7E01F0
3F03F0
3FFFE0
1FFFC0
0FFF80
03FF00
00F800
ENDCHAR
STARTCHAR 0056
ENCODING 86
SWIDTH 460 0
DWIDTH 23 0
BBX 21 35 0 0
BITMAP
F800F8
F800F8
F800F8
F800F8
F800F8
F800F8
F800F8
F800F8
F800F8
F800F8
F800F8
F800F8
F800F8
F800F8
F800F8
F800F8
7800F8
7800F8
7800F8
7800F8
7C00F8
7C00F0
7C01F0
7C01F0
3C01F0
3E01F0
3E03E0
1F03E0
1F07C0
1F87C0
0F8F80
07DF80
03FF00
03FE00
01FC00
ENDCHAR
STARTCHAR 0057
ENCODING 87
SWIDTH 780 0
DWIDTH 39 0
BBX 37 35 0 0
BITMAP
F800F800F8
F800F800F8
F800F800F8
F800F800F8
F800F800F8
F800F800F8
F800F800F8
F800F800F8
F800F800F8
F800F800F8
F800F800F8
F800F800F8
F800F800F8
F800F800F8
F800F800F8
F800F800F8
7800F800F8
7800F800F8
7800F800F0
7800F800F0
7C00F800F0
7C00F801F0
7C01FC01F0
7C01FC01F0
3C01FC01F0
3E01FC03E0
3E03FE03E0
1F03FE07E0
1F07DF07C0
1F87DF0FC0
0F8F8F8F80
07DF8FDF00
03FF07FF00
03FE03FE00
01FC01FC00
ENDCHAR
STARTCHAR 0058
ENCODING 88
SWIDTH 500 0
DWIDTH 25 0
BBX 22 35 2 0
BITMAP
F8007C
F8007C
F8007C
F8007C
F8007C
F8007C
F8007C
F80078
7800F8
7C00F8
7C00F8
3E01F0
3F03F0
1FFFE0
1FFFC0
0FFFC0
1FFFE0
3FFFF0
3F03F0
7E01F8
7C00F8
7C00F8
780078
F80078
F8007C
F8007C
F8007C
F8007C
F8007C
F8007C
F8007C
F8007C
F8007C
F8007C
F8007C
ENDCHAR
STARTCHAR 0059
ENCODING 89
SWIDTH 480 0
DWIDTH 24 0
BBX 21 35 2 0
BITMAP
F800F8
F800F8
F800F8
F800F8
F800F8
F800F8
F800F8
F800F8
F800F8
F800F8
F800F8
F800F8
F800F8
F800F8
F800F8
F800F8
F800F8
F800F8
F800F8
7C01F0
7C01F0
7E03F0
3FFFE0
1FFFC0
0FFF80
07FF00
00F800
00F800
00F800
00F800
00F800
00F800
00F800
00F800
00F800
ENDCHAR
STARTCHAR 005A
ENCODING 90
SWIDTH 500 0
DWIDTH 25 0
BBX 23 35 1 0
BITMAP
FFFFFE
FFFFFE
FFFFFE
FFFFFC
00007C
0000F8
0001F8
0001F0
0003E0
0003E0
0007C0
000FC0
000F80
001F80
001F00
003E00
007E00
007C00
00FC00
00F800
01F000
03F000
03E000
07E000
07C000
0F8000
0F8000
1F0000
3F0000
3E0000
7C0000
7FFFFC
FFFFFC
FFFFFC
FFFFFC
ENDCHAR
STARTCHAR 005B
ENCODING 91
SWIDTH 220 0
DWIDTH 11 0
BBX 6 48 3 -7
BITMAP
FC
FC
FC
E0
E0
E0
E0
E0
E0
E0
E0
E0
E0
E0
E0
E0
E0
E0
E0
E0
E0
E0
E0
E0
E0
E0
E0
E0
E0
E0
E0
E0
E0
E0
E0
E0
E0
E0
E0
E0
E0
E0
E0
E0
E0
FC
FC
FC
ENDCHAR
STARTCHAR 005C
ENCODING 92
SWIDTH 380 0
DWIDTH 19 0
BBX 14 37 3 -1
BITMAP
F000
F000
F000
7800
7800
7800
7800
3C00
3C00
3C00
1E00
1E00
1E00
1E00
0F00
0F00
0F00
0780
0780
0780
0780
03C0
03C0
03C0
01E0
01E0
01E0
01E0
00F0
00F0
00F0
0078
0078
0078
0078
003C
003C
ENDCHAR
STARTCHAR 005D
ENCODING 93
SWIDTH 220 0
DWIDTH 11 0
BBX 6 48 3 -7
BITMAP
FC
FC
FC
1C
1C
1C
1C
1C
1C
1C
1C
1C
1C
1C
1C
1C
1C
1C
1C
1C
1C
1C
1C
1C
1C
1C
1C
1C
1C
1C
1C
1C
1C
1C
1C
1C
1C
1C
1C
1C
1C
1C
1C
1C
1C
FC
FC
FC
ENDCHAR
STARTCHAR 005E
ENCODING 94
SWIDTH 480 0
DWIDTH 24 0
BBX 18 12 3 18
BITMAP
03F000
03F000
07F800
077800
0F3C00
0E1E00
1E1E00
3C0F00
3C0F00
780780
780780
F003C0
ENDCHAR
STARTCHAR 005F
ENCODING 95
SWIDTH 520 0
DWIDTH 26 0
BBX 21 3 3 -5
BITMAP
FFFFF8
FFFFF8
FFFFF8
ENDCHAR
STARTCHAR 0060
ENCODING 96
SWIDTH 140 0
DWIDTH 7 0
BBX 7 7 0 38
BITMAP
F0
78
78
3C
1C
0E
0E
ENDCHAR
STARTCHAR 0061
ENCODING 97
SWIDTH 540 0
DWIDTH 27 0
BBX 25 36 2 0
BITMAP
00780000
03FF0000
0FFFC000
1FFFE000
1FFFF000
3F03F000
3E01F800
7C00F800
7C00F800
7C007800
78007C00
78007C00
F8007C00
F8007C00
F8007C00
F8007C00
F8007C00
F8007C00
F8007C00
F8007C00
F8007C00
F8007C00
F8007C00
F8007C00
F8007C00
F8007C00
F8007C00
F8007C00
F8007C00
F8007C00
F8007C00
F8007C00
FFFFFF80
FFFFFF80
FFFFFF80
FFFFFF80
ENDCHAR
STARTCHAR 0062
ENCODING 98
SWIDTH 600 0
DWIDTH 30 0
BBX 27 35 2 0
BITMAP
1FFFE000
1FFFF800
1FFFFE00
1FFFFF00
1F01FF80
1F001F80
1F000F80
1F0007C0
1F0007C0
1F0007C0
1F0007C0
1F0007C0
1F000F80
1F000F80
1F003F80
FFFFFF00
FFFFFE00
FFFFFE00
FFFFFF80
1F00FF80
1F000FC0
1F0007C0
1F0003E0
1F0003E0
1F0003E0
1F0003E0
1F0003E0
1F0003E0
1F0007C0
1F000FC0
1F00FF80
1FFFFF80
1FFFFF00
1FFFFC00
1FFFE000
ENDCHAR
STARTCHAR 0063
ENCODING 99
SWIDTH 680 0
DWIDTH 34 0
BBX 32 37 2 -1
BITMAP
0001F800
001FFF80
007FFFE0
01FFFFF8
03FFFFFC
07F801FE
0FE0007F
1FC0003C
1F000018
3F000000
7E000000
7C000000
7C000000
F8000000
F8000000
F8000000
F8000000
F8000000
F0000000
F0000000
F8000000
F8000000
F8000000
F8000000
7C000000
7C000000
7E000000
3F000000
1F000018
1FC0003C
0FE0007F
07F801FE
03FFFFFC
01FFFFF8
007FFFE0
001FFF80
0000F800
ENDCHAR
STARTCHAR 0064
ENCODING 100
SWIDTH 640 0
DWIDTH 32 0
BBX 28 35 3 0
BITMAP
FFFC0000
FFFF8000
FFFFF000
FFFFF800
F03FFC00
F001FE00
F0007F00
F0001F80
F0000FC0
F00007C0
F00007E0
F00003E0
F00003E0
F00001E0
F00001F0
F00001F0
F00001F0
F00001F0
F00001F0
F00001F0
F00001F0
F00001E0
F00003E0
F00003E0
F00007E0
F00007C0
F0000FC0
F0001F80
F0007F00
F001FF00
F03FFE00
FFFFF800
FFFFF000
FFFFC000
FFFC0000
ENDCHAR
STARTCHAR 0065
ENCODING 101
SWIDTH 480 0
DWIDTH 24 0
BBX 24 35 1 0
BITMAP
0FFFC0
0FFFC0
0FFFC0
0FFFC0
0F0000
0F0000
0F0000
0F0000
0F0000
0F0000
0F0000
0F0000
0F0000
0F0000
0F0000
FFFFF0
FFFFF0
FFFFF0
FFFFF0
FFFFF0
0F0000
0F0000
0F0000
0F0000
0F0000
0F0000
0F0000
0F0000
0F0000
0F0000
0F0000
0FFFFF
0FFFFF
0FFFFF
0FFFFF
ENDCHAR
STARTCHAR 0066
ENCODING 102
SWIDTH 460 0
DWIDTH 23 0
BBX 22 35 1 0
BITMAP
0FFFFC
0FFFFC
0FFFFC
0FFFFC
0F8000
0F8000
0F8000
0F8000
0F8000
0F8000
0F8000
0F8000
0F8000
0F8000
0F8000
0F8000
FFFFF8
FFFFF8
FFFFF8
FFFFF8
0F8000
0F8000
0F8000
0F8000
0F8000
0F8000
0F8000
0F8000
0F8000
0F8000
0F8000
0F8000
0F8000
0F8000
0F8000
ENDCHAR
STARTCHAR 0067
ENCODING 103
SWIDTH 820 0
DWIDTH 41 0
BBX 39 37 2 -1
BITMAP
0000F80000
001FFF8000
007FFFE000
01FFFFF800
03FFFFFC00
07F801FE00
0FE0007F00
1FC0003E00
1F80001C00
3F00000000
7E00000000
7C00000000
7C00000000
F800000000
F800000000
F800000000
F8007FFFFE
F8007FFFFE
F0007FFFFE
F0007FFFFE
F8007FFFFE
F8000001F0
F8000001F0
F8000001F0
7C000003E0
7C000003E0
7E000007E0
3F00000FC0
1F80000FC0
1FC0003F80
0FE0007F00
07F801FE00
03FFFFFC00
00FFFFF800
007FFFE000
001FFF8000
0000F80000
ENDCHAR
STARTCHAR 0068
ENCODING 104
SWIDTH 560 0
DWIDTH 28 0
BBX 24 35 1 0
BITMAP
0F000F
0F000F
0F000F
0F000F
0F000F
0F000F
0F000F
0F000F
0F000F
0F000F
0F000F
0F000F
0F000F
0F000F
FFFFFF
FFFFFF
FFFFFF
FFFFFF
FFFFFF
0F000F
0F000F
0F000F
0F000F
0F000F
0F000F
0F000F
0F000F
0F000F
0F000F
0F000F
0F000F
0F000F
0F000F
0F000F
0F000F
ENDCHAR
STARTCHAR 0069
ENCODING 105
SWIDTH 180 0
DWIDTH 9 0
BBX 12 39 -1 1
BITMAP
0400
0600
0600
0E00
FFF0
7FC0
1F80
1F80
1F80
3980
3080
0040
0000
0000
0000
0000
0000
1F00
1F00
1F00
1F00
1F00
1F00
1F00
1F00
1F00
1F00
1F00
1F00
1F00
1F00
1F00
1F00
1F00
1F00
1F00
1F00
1F00
1F00
ENDCHAR
STARTCHAR 006A
ENCODING 106
SWIDTH 460 0
DWIDTH 23 0
BBX 20 36 1 -1
BITMAP
001FF0
001FF0
001FF0
001FF0
0001F0
0001F0
0001F0
0001F0
0001F0
0001F0
0001F0
0001F0
0001F0
0001F0
0001F0
0001F0
0001F0
0001F0
0001F0
0001F0
0001F0
0001F0
0001F0
0001F0
0001F0
0001F0
0001E0
1003E0
7003E0
F807E0
FC0FC0
7FFFC0
3FFF80
1FFF00
0FFE00
01F000
ENDCHAR
STARTCHAR 006B
ENCODING 107
SWIDTH 520 0
DWIDTH 26 0
BBX 24 35 1 0
BITMAP
0F007C
0F007C
0F007C
0F007C
0F007C
0F007C
0F007C
0F0078
0F0078
0F0078
0F00F8
0F00F8
0F01F8
0F01F0
0F07F0
FFFFE0
FFFFE0
FFFFF0
FFFFF8
0F03FC
0F007C
0F007E
0F003E
0F003E
0F001E
0F001F
0F001F
0F001F
0F001F
0F001F
0F001F
0F001F
0F001F
0F001F
0F001F
ENDCHAR
STARTCHAR 006C
ENCODING 108
SWIDTH 420 0
DWIDTH 21 0
BBX 18 35 3 0
BITMAP
F00000
F00000
F00000
F00000
F00000
F00000
F00000
F00000
F00000
F00000
F00000
F00000
F00000
F00000
F00000
F00000
F00000
F00000
F00000
F00000
F00000
F00000
F00000
F00000
F00000
F00000
F00000
F00000
F00000
F00000
F00000
FFFFC0
FFFFC0
FFFFC0
FFFFC0
ENDCHAR
STARTCHAR 006D
ENCODING 109
SWIDTH 860 0
DWIDTH 43 0
BBX 40 36 1 0
BITMAP
2000000000
700018001F
7C001C001F
FE001F001F
7F001F801F
3FC01FC01F
1FE01FF01F
1FF01FF81F
1FF81FFC1F
1FFE1FFE1F
1F7F1F3F9F
1F3F9F1FDF
1F1FDF0FFF
1F07FF07FF
1F03FF01FF
1F01FF00FF
1F007F007F
1F003F003F
1F001F001F
1F001F001F
1F001F001F
1F001F001F
1F001F001F
1F001F001F
1F001F001F
1F001F001F
1F001F001F
1F001F001F
1F001F001F
1F001F001F
1F001F001F
1F001F001F
1F001F001F
1F001F001F
1F001F001F
1F001F001F
ENDCHAR
STARTCHAR 006E
ENCODING 110
SWIDTH 520 0
DWIDTH 26 0
BBX 23 36 1 0
BITMAP
200000
70003E
7C003E
FE003E
7F003E
3FC03E
3FE03E
3FF03E
3FF83E
3FFE3E
3E7F3E
3E3FBE
3E1FFE
3E0FFE
3E03FE
3E01FE
3E00FE
3E007E
3E003E
3E003E
3E003E
3E003E
3E003E
3E003E
3E003E
3E003E
3E003E
3E003E
3E003E
3E003E
3E003E
3E003E
3E003E
3E003E
3E003E
3E003E
ENDCHAR
STARTCHAR 006F
ENCODING 111
SWIDTH 800 0
DWIDTH 40 0
BBX 37 37 2 -1
BITMAP
0000FC0000
001FFF8000
007FFFF000
01FFFFF800
03FFFFFE00
07F801FF00
0FE0007F80
1FC0001F80
1F80000FC0
3F000007E0
7E000003E0
7C000001F0
7C000001F0
F8000000F0
F8000000F8
F8000000F8
F8000000F8
F8000000F8
F0000000F8
F0000000F8
F8000000F8
F8000000F8
F8000000F8
F8000000F0
7C000001F0
7C000001F0
7E000003E0
3F000007E0
1F80000FC0
1FC0001FC0
0FE0003F80
07F801FF00
03FFFFFE00
00FFFFF800
007FFFF000
001FFFC000
0000F80000
ENDCHAR
STARTCHAR 0070
ENCODING 112
SWIDTH 540 0
DWIDTH 27 0
BBX 26 35 1 0
BITMAP
1FFFC000
1FFFF000
1FFFFC00
1FFFFE00
1F03FF00
1F003F80
1F000F80
1F0007C0
1F0007C0
1F0007C0
1F0007C0
1F0007C0
1F0007C0
1F0007C0
1F000F80
1F001F80
1F007F00
FFFFFF00
FFFFFE00
FFFFF800
FFFFE000
FFFC0000
1F000000
1F000000
1F000000
1F000000
1F000000
1F000000
1F000000
1F000000
1F000000
1F000000
1F000000
1F000000
1F000000
ENDCHAR
STARTCHAR 0071
ENCODING 113
SWIDTH 800 0
DWIDTH 40 0
BBX 37 37 2 -1
BITMAP
0000FC0000
001FFF8000
007FFFF000
01FFFFF800
03FFFFFE00
07F801FF00
0FE0007F80
1FC0001F80
1F80000FC0
3F000007E0
7E000003E0
7C000001F0
7C000001F0
F8000000F0
F8000000F8
F8000000F8
F8000000F8
F8000000F8
F0000000F8
F0000000F8
F8000000F8
F8000000F8
F8000000F8
F8000000F0
7C000041F0
7C0000E1F0
7E0001F3E0
3F0003FFE0
1F8001FFC0
1FC000FFC0
0FE0007F80
07F801FF80
03FFFFFFC0
00FFFFFFE0
007FFFF7E0
001FFFC3C0
0000FC0180
ENDCHAR
STARTCHAR 0072
ENCODING 114
SWIDTH 580 0
DWIDTH 29 0
BBX 27 35 1 0
BITMAP
0FFFC000
0FFFF800
0FFFFE00
0FFFFF00
0F01FF80
0F001FC0
0F000FC0
0F0007C0
0F0003C0
0F0003E0
0F0003E0
0F0003E0
0F0003C0
0F0007C0
0F000FC0
0F001F80
0F00FF80
FFFFFF00
FFFFFE00
FFFFF800
FFFFFC00
0F01FE00
0F007E00
0F001F00
0F001F00
0F000F80
0F000F80
0F000F80
0F000F80
0F000F80
0F000F80
0F000F80
0F000F80
0F000F80
0F000F80
ENDCHAR
STARTCHAR 0073
ENCODING 115
SWIDTH 480 0
DWIDTH 24 0
BBX 22 37 1 -1
BITMAP
007C00
03FF80
07FFC0
0FFFE0
1FFFF0
1F83F0
3E01F8
3E00F8
3E0078
3E0070
3E0000
3F0000
1F0000
1FC000
0FE000
07F800
03FE00
00FF00
007FC0
001FE0
000FF0
0003F8
0001F8
0000FC
00007C
00007C
18007C
F8007C
7C007C
7C007C
7E00FC
3F01F8
1FFFF8
0FFFF0
07FFE0
03FF80
007E00
ENDCHAR
STARTCHAR 0074
ENCODING 116
SWIDTH 500 0
DWIDTH 25 0
BBX 23 35 1 0
BITMAP
FFFFFE
FFFFFE
FFFFFE
FFFFFE
007C00
007C00
007C00
007C00
007C00
007C00
007C00
007C00
007C00
007C00
007C00
007C00
007C00
007C00
007C00
007C00
007C00
007C00
007C00
007C00
007C00
007C00
007C00
007C00
007C00
007C00
007C00
007C00
007C00
007C00
007C00
ENDCHAR
STARTCHAR 0075
ENCODING 117
SWIDTH 500 0
DWIDTH 25 0
BBX 21 36 2 -1
BITMAP
F80078
F80078
F80078
F80078
F80078
F80078
F80078
F80078
F80078
F80078
F80078
F80078
F80078
F80078
F80078
F80078
F80078
F80078
F80078
F80078
F80078
F80078
F80078
F80078
F80078
F800F8
F800F8
7800F8
7C00F8
7E01F0
3F03F0
3FFFE0
1FFFC0
0FFF80
03FF00
00F800
ENDCHAR
STARTCHAR 0076
ENCODING 118
SWIDTH 460 0
DWIDTH 23 0
BBX 21 35 0 0
BITMAP
F800F8
F800F8
F800F8
F800F8
F800F8
F800F8
F800F8
F800F8
F800F8
F800F8
F800F8
F800F8
F800F8
F800F8
F800F8
F800F8
7800F8
7800F8
7800F8
7800F8
7C00F8
7C00F0
7C01F0
7C01F0
3C01F0
3E01F0
3E03E0
1F03E0
1F07C0
1F87C0
0F8F80
07DF80
03FF00
03FE00
01FC00
ENDCHAR
STARTCHAR 0077
ENCODING 119
SWIDTH 780 0
DWIDTH 39 0
BBX 37 35 0 0
BITMAP
F800F800F8
F800F800F8
F800F800F8
F800F800F8
F800F800F8
F800F800F8
F800F800F8
F800F800F8
F800F800F8
F800F800F8
F800F800F8
F800F800F8
F800F800F8
F800F800F8
F800F800F8
F800F800F8
7800F800F8
7800F800F8
7800F800F0
7800F800F0
7C00F800F0
7C00F801F0
7C01FC01F0
7C01FC01F0
3C01FC01F0
3E01FC03E0
3E03FE03E0
1F03FE07E0
1F07DF07C0
1F87DF0FC0
0F8F8F8F80
07DF8FDF00
03FF07FF00
03FE03FE00
01FC01FC00
ENDCHAR
STARTCHAR 0078
ENCODING 120
SWIDTH 500 0
DWIDTH 25 0
BBX 22 35 2 0
BITMAP
F8007C
F8007C
F8007C
F8007C
F8007C
F8007C
F8007C
F80078
7800F8
7C00F8
7C00F8
3E01F0
3F03F0
1FFFE0
1FFFC0
0FFFC0
1FFFE0
3FFFF0
3F03F0
7E01F8
7C00F8
7C00F8
780078
F80078
F8007C
F8007C
F8007C
F8007C
F8007C
F8007C
F8007C
F8007C
F8007C
F8007C
F8007C
ENDCHAR
STARTCHAR 0079
ENCODING 121
SWIDTH 480 0
DWIDTH 24 0
BBX 21 35 2 0
BITMAP
F800F8
F800F8
F800F8
F800F8
F800F8
F800F8
F800F8
F800F8
F800F8
F800F8
F800F8
F800F8
F800F8
F800F8
F800F8
F800F8
F800F8
F800F8
F800F8
7C01F0
7C01F0
7E03F0
3FFFE0
1FFFC0
0FFF80
07FF00
00F800
00F800
00F800
00F800
00F800
00F800
00F800
00F800
00F800
ENDCHAR
STARTCHAR 007A
ENCODING 122
SWIDTH 500 0
DWIDTH 25 0
BBX 23 35 1 0
BITMAP
FFFFFE
FFFFFE
FFFFFE
FFFFFC
00007C
0000F8
0001F8
0001F0
0003E0
0003E0
0007C0
000FC0
000F80
001F80
001F00
003E00
007E00
007C00
00FC00
00F800
01F000
03F000
03E000
07E000
07C000
0F8000
0F8000
1F0000
3F0000
3E0000
7C0000
7FFFFC
FFFFFC
FFFFFC
FFFFFC
ENDCHAR
STARTCHAR 007B
ENCODING 123
SWIDTH 340 0
DWIDTH 17 0
BBX 11 48 3 -7
BITMAP
00E0
07E0
0FE0
0FE0
0F00
0E00
1E00
1E00
1E00
1E00
1E00
1E00
1E00
1E00
1E00
1E00
1E00
1E00
1E00
1E00
1E00
3C00
FC00
F800
F800
F800
7C00
3C00
1E00
1E00
1E00
1E00
1E00
1E00
1E00
1E00
1E00
1E00
1E00
1E00
1E00
1E00
1E00
0E00
0F00
0FE0
07E0
03E0
ENDCHAR
STARTCHAR 007C
ENCODING 124
SWIDTH 160 0
DWIDTH 8 0
BBX 3 40 3 -5
BITMAP
E0
E0
E0
E0
E0
E0
E0
E0
E0
E0
E0
E0
E0
E0
E0
E0
E0
E0
E0
E0
E0
E0
E0
E0
E0
E0
E0
E0
E0
E0
E0
E0
E0
E0
E0
E0
E0
E0
E0
E0
ENDCHAR
STARTCHAR 007D
ENCODING 125
SWIDTH 340 0
DWIDTH 17 0
BBX 11 48 3 -7
BITMAP
E000
FC00
FE00
FE00
1E00
0F00
0F00
0F00
0F00
0F00
0F00
0F00
0F00
0F00
0F00
0F00
0F00
0F00
0F00
0F00
0F00
0780
07E0
03E0
03E0
03E0
07C0
0780
0F00
0F00
0F00
0F00
0F00
0F00
0F00
0F00
0F00
0F00
0F00
0F00
0F00
0F00
0F00
0E00
1E00
FE00
FC00
F800
ENDCHAR
STARTCHAR 007E
ENCODING 126
SWIDTH 540 0
DWIDTH 27 0
BBX 22 6 3 13
BITMAP
7F0000
FFF80C
FFFFFC
FFFFFC
007FFC
0003E0
ENDCHAR
STARTCHAR 00A1
ENCODING 161
SWIDTH 240 0
DWIDTH 12 0
BBX 7 36 3 -6
BITMAP
78
FC
FE
FE
FE
FC
78
00
00
00
00
00
00
78
78
78
78
78
78
78
78
78
78
78
78
78
78
78
78
78
78
78
78
78
78
78
ENDCHAR
STARTCHAR 00A2
ENCODING 162
SWIDTH 520 0
DWIDTH 26 0
BBX 20 31 3 2
BITMAP
007800
007800
007800
007800
01FF00
07FFC0
0FFFE0
1FFFF0
3E78F0
7C7840
787800
F07800
F07800
F07800
F07800
F07800
F07800
F07800
F07800
F87800
787800
7C7840
3E78F0
1FFFF0
0FFFE0
07FFC0
01FF00
007800
007800
007800
007800
ENDCHAR
STARTCHAR 00A3
ENCODING 163
SWIDTH 540 0
DWIDTH 27 0
BBX 21 36 3 0
BITMAP
000100
007FF8
01FFF8
03FFF8
07FFF8
0FF018
0FC000
1F8000
1F0000
1F0000
1F0000
1E0000
1E0000
1F0000
1F0000
1F0000
0F8000
FFFFE0
FFFFE0
FFFFE0
07C000
03C000
03E000
03E000
03E000
03E000
03E000
03E000
03E000
07E000
0FC000
FF8000
FFFFF8
FFFFF8
FFFFF8
FFFFF8
ENDCHAR
STARTCHAR 00A4
ENCODING 164
SWIDTH 560 0
DWIDTH 28 0
BBX 23 24 3 4
BITMAP
200008
60001C
F0FE3E
FBFFFC
7FFFF8
3F83F0
1E00F0
3C0078
380078
780038
780038
78003C
78003C
780038
780038
380078
3C0078
1E01F0
1F87F0
3FFFF8
FBFFFC
F0FE3E
60001C
000008
ENDCHAR
STARTCHAR 00A5
ENCODING 165
SWIDTH 640 0
DWIDTH 32 0
BBX 26 35 3 0
BITMAP
F80007C0
FC000FC0
7C000F80
7E001F80
3E001F00
3F003F00
1F003E00
0F807C00
0F807C00
07C0F800
07C0F800
03E1F000
03E1F000
01F3E000
01FBE000
00FFC000
00FFC000
007F8000
1FFFFE00
1FFFFE00
1FFFFE00
001E0000
001E0000
001E0000
1FFFFE00
1FFFFE00
1FFFFE00
1FFFFE00
001E0000
001E0000
001E0000
001E0000
001E0000
001E0000
001E0000
ENDCHAR
STARTCHAR 00A6
ENCODING 166
SWIDTH 160 0
DWIDTH 8 0
BBX 3 40 3 -5
BITMAP
E0
E0
E0
E0
E0
E0
E0
E0
E0
E0
E0
E0
E0
E0
E0
00
00
00
00
00
00
00
00
00
00
E0
E0
E0
E0
E0
E0
E0
E0
E0
E0
E0
E0
E0
E0
E0
ENDCHAR
STARTCHAR 00A7
ENCODING 167
SWIDTH 460 0
DWIDTH 23 0
BBX 18 41 3 -5
BITMAP
07F800
1FFE00
3FFF00
3FFF00
7E0F80
7C0780
7C07C0
7C0700
3C0000
3E0000
1F8000
0FE000
07F000
03FC00
1FFE00
3FFF00
7E1F80
F80FC0
F007C0
F003C0
F003C0
F807C0
F807C0
7E1F80
3FFF00
1FFE00
0FF800
03F800
00FC00
007E00
001F00
000F00
180F80
F80F80
F80F80
7C1F80
7FFF00
3FFF00
1FFE00
0FFC00
00C000
ENDCHAR
STARTCHAR 00A8
ENCODING 168
SWIDTH 360 0
DWIDTH 18 0
BBX 19 8 0 37
BITMAP
180300
7E0FC0
7E0FC0
FF1FE0
FF1FE0
7E0FC0
7E0FC0
100100
ENDCHAR
STARTCHAR 00A9
ENCODING 169
SWIDTH 840 0
DWIDTH 42 0
BBX 37 37 3 -1
BITMAP
0001F80000
001FFF8000
007FFFE000
01F801F800
03E0003C00
0780001F00
0F00000700
1E00000380
3C000001C0
3803FC01E0
7007FF00E0
701FFF80E0
701F078070
E03C030070
E078000070
E078000038
E070000038
E070000038
E070000038
E070000038
E070000038
E078000038
E078000070
E03C030070
701F078070
701FFF80E0
7807FF00E0
3803FC01E0
3C000003C0
1E00000380
0F00000700
0780001F00
03E0003C00
01F801F800
007FFFF000
001FFF8000
0001F80000
ENDCHAR
STARTCHAR 00AB
ENCODING 171
SWIDTH 540 0
DWIDTH 27 0
BBX 22 22 3 4
BITMAP
00F07C
01E0F8
03E1F0
07C1E0
0783C0
0F07C0
1F0F80
3E0F00
3C1E00
783E00
F87C00
F83C00
7C3E00
3E1F00
1E0F80
1F0780
0F83C0
07C3E0
03C1F0
01E0F0
01F078
00F87C
ENDCHAR
STARTCHAR 00AC
ENCODING 172
SWIDTH 540 0
DWIDTH 27 0
BBX 22 13 3 5
BITMAP
FFFFFC
FFFFFC
FFFFFC
00003C
00003C
00003C
00003C
00003C
00003C
00003C
00003C
00003C
00003C
ENDCHAR
STARTCHAR 00AE
ENCODING 174
SWIDTH 500 0
DWIDTH 25 0
BBX 19 19 3 17
BITMAP
03F800
0FFE00
1C0700
300180
63C0C0
63F8C0
C31C60
C30C60
C31860
C7F860
C7F060
C31860
C31860
E318E0
6000C0
3001C0
380380
0FBE00
07FC00
ENDCHAR
STARTCHAR 00AF
ENCODING 175
SWIDTH 280 0
DWIDTH 14 0
BBX 14 3 0 40
BITMAP
FFFC
FFFC
FFFC
ENDCHAR
STARTCHAR 00B0
ENCODING 176
SWIDTH 320 0
DWIDTH 16 0
BBX 11 12 3 24
BITMAP
0400
3F80
7FC0
E1E0
C0E0
C060
C060
C0E0
E0E0
7FC0
3F80
0E00
ENDCHAR
STARTCHAR 00B1
ENCODING 177
SWIDTH 540 0
DWIDTH 27 0
BBX 22 21 3 5
BITMAP
007800
007800
007800
007800
007800
007800
FFFFFC
FFFFFC
FFFFFC
007800
007800
007800
007800
007800
007800
000000
000000
FFFFFC
FFFFFC
FFFFFC
FFFFFC
ENDCHAR
STARTCHAR 00B4
ENCODING 180
SWIDTH 140 0
DWIDTH 7 0
BBX 8 7 0 38
BITMAP
0F
1E
1C
3C
78
70
E0
ENDCHAR
STARTCHAR 00B6
ENCODING 182
SWIDTH 460 0
DWIDTH 23 0
BBX 18 40 3 -5
BITMAP
03F1C0
0FF1C0
1FF1C0
3FF1C0
7FF1C0
FFF1C0
FFF1C0
FFF1C0
FFF1C0
FFF1C0
FFF1C0
FFF1C0
FFF1C0
7FF1C0
7FF1C0
3FF1C0
1FF1C0
0FF1C0
03F1C0
0071C0
0071C0
0071C0
0071C0
0071C0
0071C0
0071C0
0071C0
0071C0
0071C0
0071C0
0071C0
0071C0
0071C0
0071C0
0071C0
0071C0
0071C0
0071C0
0071C0
0071C0
ENDCHAR
STARTCHAR 00B7
ENCODING 183
SWIDTH 240 0
DWIDTH 12 0
BBX 7 8 3 9
BITMAP
30
7C
FE
FE
FE
FE
7C
30
ENDCHAR
STARTCHAR 00B8
ENCODING 184
SWIDTH 200 0
DWIDTH 10 0
BBX 11 11 0 -11
BITMAP
0700
0600
0780
03C0
00E0
00E0
60E0
F0E0
7FC0
3F80
0E00
ENDCHAR
STARTCHAR 00BB
ENCODING 187
SWIDTH 540 0
DWIDTH 27 0
BBX 22 22 3 4
BITMAP
F87C00
7C3E00
3C1F00
3E0F00
1F0780
0F87C0
0783E0
03C1E0
03E0F0
01F0F8
00F07C
01F078
01E0F8
03E1F0
07C3E0
0F83C0
0F0780
1E0F80
3E1F00
7C1E00
783C00
F07C00
ENDCHAR
STARTCHAR 00BF
ENCODING 191
SWIDTH 420 0
DWIDTH 21 0
BBX 16 37 3 -6
BITMAP
0080
03E0
07F0
07F0
07F0
07F0
03E0
01C0
0000
0000
0000
0000
01E0
01E0
03E0
03E0
03C0
03C0
07C0
0780
0F80
1F00
1F00
3E00
7C00
7800
F800
F000
F000
F00E
F01F
F83E
FEFE
7FFC
3FF8
1FF0
0380
ENDCHAR
STARTCHAR 00C0
ENCODING 192
SWIDTH 540 0
DWIDTH 27 0
BBX 25 45 2 0
BITMAP
03C00000
03C00000
01E00000
00E00000
00700000
00780000
00380000
00000000
00000000
00780000
03FF0000
0FFFC000
1FFFE000
1FFFF000
3F03F000
3E01F800
7C00F800
7C00F800
7C007800
78007C00
78007C00
F8007C00
F8007C00
F8007C00
F8007C00
F8007C00
F8007C00
F8007C00
F8007C00
F8007C00
F8007C00
F8007C00
F8007C00
F8007C00
F8007C00
F8007C00
F8007C00
F8007C00
F8007C00
F8007C00
F8007C00
FFFFFF80
FFFFFF80
FFFFFF80
FFFFFF80
ENDCHAR
STARTCHAR 00C1
ENCODING 193
SWIDTH 540 0
DWIDTH 27 0
BBX 25 45 2 0
BITMAP
000F0000
000F0000
001E0000
001C0000
00380000
00380000
00700000
00000000
00000000
00780000
03FF0000
0FFFC000
1FFFE000
1FFFF000
3F03F000
3E01F800
7C00F800
7C00F800
7C007800
78007C00
78007C00
F8007C00
F8007C00
F8007C00
F8007C00
F8007C00
F8007C00
F8007C00
F8007C00
F8007C00
F8007C00
F8007C00
F8007C00
F8007C00
F8007C00
F8007C00
F8007C00
F8007C00
F8007C00
F8007C00
F8007C00
FFFFFF80
FFFFFF80
FFFFFF80
FFFFFF80
ENDCHAR
STARTCHAR 00C2
ENCODING 194
SWIDTH 540 0
DWIDTH 27 0
BBX 25 45 2 0
BITMAP
007C0000
00FC0000
01FE0000
03CF0000
07C78000
0787C000
0F03C000
00000000
00000000
00780000
03FF0000
0FFFC000
1FFFE000
1FFFF000
3F03F000
3E01F800
7C00F800
7C00F800
7C007800
78007C00
78007C00
F8007C00
F8007C00
F8007C00
F8007C00
F8007C00
F8007C00
F8007C00
F8007C00
F8007C00
F8007C00
F8007C00
F8007C00
F8007C00
F8007C00
F8007C00
F8007C00
F8007C00
F8007C00
F8007C00
F8007C00
FFFFFF80
FFFFFF80
FFFFFF80
FFFFFF80
ENDCHAR
STARTCHAR 00C3
ENCODING 195
SWIDTH 540 0
DWIDTH 27 0
BBX 25 44 2 0
BITMAP
0FE00000
0FFF0000
0FFF0000
001F0000
00000000
00000000
00000000
00000000
00780000
03FF0000
0FFFC000
1FFFE000
1FFFF000
3F03F000
3E01F800
7C00F800
7C00F800
7C007800
78007C00
78007C00
F8007C00
F8007C00
F8007C00
F8007C00
F8007C00
F8007C00
F8007C00
F8007C00
F8007C00
F8007C00
F8007C00
F8007C00
F8007C00
F8007C00
F8007C00
F8007C00
F8007C00
F8007C00
F8007C00
F8007C00
FFFFFF80
FFFFFF80
FFFFFF80
FFFFFF80
ENDCHAR
STARTCHAR 00C4
ENCODING 196
SWIDTH 540 0
DWIDTH 27 0
BBX 25 45 2 0
BITMAP
0600C000
1F83F000
3F87F000
3F87F800
3F87F000
3F87F000
1F03F000
04008000
00000000
00780000
03FF0000
0FFFC000
1FFFE000
1FFFF000
3F03F000
3E01F800
7C00F800
7C00F800
7C007800
78007C00
78007C00
F8007C00
F8007C00
F8007C00
F8007C00
F8007C00
F8007C00
F8007C00
F8007C00
F8007C00
F8007C00
F8007C00
F8007C00
F8007C00
F8007C00
F8007C00
F8007C00
F8007C00
F8007C00
F8007C00
F8007C00
FFFFFF80
FFFFFF80
FFFFFF80
FFFFFF80
ENDCHAR
STARTCHAR 00C5
ENCODING 197
SWIDTH 540 0
DWIDTH 27 0
BBX 25 48 2 0
BITMAP
00780000
01FE0000
01FE0000
03870000
03830000
03030000
03870000
01CE0000
01FE0000
00780000
00000000
00000000
00780000
03FF0000
0FFFC000
1FFFE000
1FFFF000
3F03F000
3E01F800
7C00F800
7C00F800
7C007800
78007C00
78007C00
F8007C00
F8007C00
F8007C00
F8007C00
F8007C00
F8007C00
F8007C00
F8007C00
F8007C00
F8007C00
F8007C00
F8007C00
F8007C00
F8007C00
F8007C00
F8007C00
F8007C00
F8007C00
F8007C00
F8007C00
FFFFFF80
FFFFFF80
FFFFFF80
FFFFFF80
ENDCHAR
STARTCHAR 00C7
ENCODING 199
SWIDTH 680 0
DWIDTH 34 0
BBX 32 47 2 -11
BITMAP
0001F800
001FFF80
007FFFE0
01FFFFF8
03FFFFFC
07F801FE
0FE0007F
1FC0003C
1F000018
3F000000
7E000000
7C000000
7C000000
F8000000
F8000000
F8000000
F8000000
F8000000
F0000000
F0000000
F8000000
F8000000
F8000000
F8000000
7C000000
7C000000
7E000000
3F000000
1F000018
1FC0003C
0FE0007F
07F801FE
03FFFFFC
01FFFFF0
007FFFE0
001FFF80
0001F800
0001C000
0001E000
00007000
00003800
00001800
00081800
001C3800
001FF800
000FF000
0001C000
ENDCHAR
STARTCHAR 00C8
ENCODING 200
SWIDTH 480 0
DWIDTH 24 0
BBX 24 45 1 0
BITMAP
078000
03C000
01C000
01E000
00F000
007000
003800
000000
000000
000000
0FFFC0
0FFFC0
0FFFC0
0FFFC0
0F0000
0F0000
0F0000
0F0000
0F0000
0F0000
0F0000
0F0000
0F0000
0F0000
0F0000
FFFFF0
FFFFF0
FFFFF0
FFFFF0
FFFFF0
0F0000
0F0000
0F0000
0F0000
0F0000
0F0000
0F0000
0F0000
0F0000
0F0000
0F0000
0FFFFF
0FFFFF
0FFFFF
0FFFFF
ENDCHAR
STARTCHAR 00C9
ENCODING 201
SWIDTH 480 0
DWIDTH 24 0
BBX 24 45 1 0
BITMAP
000F00
001E00
001E00
003C00
003800
007000
007000
000000
000000
000000
0FFFC0
0FFFC0
0FFFC0
0FFFC0
0F0000
0F0000
0F0000
0F0000
0F0000
0F0000
0F0000
0F0000
0F0000
0F0000
0F0000
FFFFF0
FFFFF0
FFFFF0
FFFFF0
FFFFF0
0F0000
0F0000
0F0000
0F0000
0F0000
0F0000
0F0000
0F0000
0F0000
0F0000
0F0000
0FFFFF
0FFFFF
0FFFFF
0FFFFF
ENDCHAR
STARTCHAR 00CA
ENCODING 202
SWIDTH 480 0
DWIDTH 24 0
BBX 24 45 1 0
BITMAP
00F800
01FC00
01FE00
03DF00
078F00
0F0780
1E03C0
000000
000000
000000
0FFFC0
0FFFC0
0FFFC0
0FFFC0
0F0000
0F0000
0F0000
0F0000
0F0000
0F0000
0F0000
0F0000
0F0000
0F0000
0F0000
FFFFF0
FFFFF0
FFFFF0
FFFFF0
FFFFF0
0F0000
0F0000
0F0000
0F0000
0F0000
0F0000
0F0000
0F0000
0F0000
0F0000
0F0000
0FFFFF
0FFFFF
0FFFFF
0FFFFF
ENDCHAR
STARTCHAR 00CB
ENCODING 203
SWIDTH 480 0
DWIDTH 24 0
BBX 24 45 1 0
BITMAP
040080
1F03E0
3F87F0
3F87F0
3F87F0
3F87F0
1F03E0
0C0080
000000
000000
0FFFC0
0FFFC0
0FFFC0
0FFFC0
0F0000
0F0000
0F0000
0F0000
0F0000
0F0000
0F0000
0F0000
0F0000
0F0000
0F0000
FFFFF0
FFFFF0
FFFFF0
FFFFF0
FFFFF0
0F0000
0F0000
0F0000
0F0000
0F0000
0F0000
0F0000
0F0000
0F0000
0F0000
0F0000
0FFFFF
0FFFFF
0FFFFF
0FFFFF
ENDCHAR
STARTCHAR 00CC
ENCODING 204
SWIDTH 200 0
DWIDTH 10 0
BBX 7 31 0 0
BITMAP
F0
70
78
3C
1C
0E
0E
00
00
1E
1E
1E
1E
1E
1E
1E
1E
1E
1E
1E
1E
1E
1E
1E
1E
1E
1E
1E
1E
1E
1E
ENDCHAR
STARTCHAR 00CD
ENCODING 205
SWIDTH 200 0
DWIDTH 10 0
BBX 7 31 3 0
BITMAP
1E
1C
3C
78
70
E0
E0
00
00
F0
F0
F0
F0
F0
F0
F0
F0
F0
F0
F0
F0
F0
F0
F0
F0
F0
F0
F0
F0
F0
F0
ENDCHAR
STARTCHAR 00CE
ENCODING 206
SWIDTH 200 0
DWIDTH 10 0
BBX 16 31 -3 0
BITMAP
07E0
0FF0
0FF8
1E78
3C3C
781E
F00F
0000
0000
03C0
03C0
03C0
03C0
03C0
03C0
03C0
03C0
03C0
03C0
03C0
03C0
03C0
03C0
03C0
03C0
03C0
03C0
03C0
03C0
03C0
03C0
ENDCHAR
STARTCHAR 00CF
ENCODING 207
SWIDTH 200 0
DWIDTH 10 0
BBX 19 31 -4 0
BITMAP
3C0780
7E0FC0
FE1FC0
FE1FE0
FE1FC0
7E0FC0
3C0780
000000
000000
01E000
01E000
01E000
01E000
01E000
01E000
01E000
01E000
01E000
01E000
01E000
01E000
01E000
01E000
01E000
01E000
01E000
01E000
01E000
01E000
01E000
01E000
ENDCHAR
STARTCHAR 00D1
ENCODING 209
SWIDTH 520 0
DWIDTH 26 0
BBX 23 44 1 0
BITMAP
07F000
07FF80
07FF80
000F80
000000
000000
000000
000000
200000
70003E
7C003E
FE003E
7F003E
3FC03E
3FE03E
3FF03E
3FF83E
3FFE3E
3E7F3E
3E3FBE
3E1FFE
3E0FFE
3E03FE
3E01FE
3E00FE
3E007E
3E003E
3E003E
3E003E
3E003E
3E003E
3E003E
3E003E
3E003E
3E003E
3E003E
3E003E
3E003E
3E003E
3E003E
3E003E
3E003E
3E003E
3E003E
ENDCHAR
STARTCHAR 00D2
ENCODING 210
SWIDTH 800 0
DWIDTH 40 0
BBX 37 46 2 -1
BITMAP
0007800000
0003C00000
0003C00000
0001E00000
0000E00000
0000700000
0000700000
0000000000
0000000000
0000FC0000
001FFF8000
007FFFF000
01FFFFF800
03FFFFFE00
07F801FF00
0FE0007F80
1FC0001F80
1F80000FC0
3F000007E0
7E000003E0
7C000001F0
7C000001F0
F8000000F0
F8000000F8
F8000000F8
F8000000F8
F8000000F8
F0000000F8
F0000000F8
F8000000F8
F8000000F8
F8000000F8
F8000000F0
7C000001F0
7C000001F0
7E000003E0
3F000007E0
1F80000FC0
1FC0001FC0
0FE0003F80
07F801FF00
03FFFFFE00
00FFFFF800
007FFFF000
001FFFC000
0000F80000
ENDCHAR
STARTCHAR 00D3
ENCODING 211
SWIDTH 800 0
DWIDTH 40 0
BBX 37 46 2 -1
BITMAP
00000F0000
00001E0000
00001C0000
00003C0000
0000780000
0000700000
0000E00000
0000000000
0000000000
0000FC0000
001FFF8000
007FFFF000
01FFFFF800
03FFFFFE00
07F801FF00
0FE0007F80
1FC0001F80
1F80000FC0
3F000007E0
7E000003E0
7C000001F0
7C000001F0
F8000000F0
F8000000F8
F8000000F8
F8000000F8
F8000000F8
F0000000F8
F0000000F8
F8000000F8
F8000000F8
F8000000F8
F8000000F0
7C000001F0
7C000001F0
7E000003E0
3F000007E0
1F80000FC0
1FC0001FC0
0FE0003F80
07F801FF00
03FFFFFE00
00FFFFF800
007FFFF000
001FFFC000
0000F80000
ENDCHAR
STARTCHAR 00D4
ENCODING 212
SWIDTH 800 0
DWIDTH 40 0
BBX 37 46 2 -1
BITMAP
0000F80000
0001FC0000
0003FE0000
0003DE0000
00078F0000
000F078000
001E03C000
0000000000
0000000000
0000FC0000
001FFF8000
007FFFF000
01FFFFF800
03FFFFFE00
07F801FF00
0FE0007F80
1FC0001F80
1F80000FC0
3F000007E0
7E000003E0
7C000001F0
7C000001F0
F8000000F0
F8000000F8
F8000000F8
F8000000F8
F8000000F8
F0000000F8
F0000000F8
F8000000F8
F8000000F8
F8000000F8
F8000000F0
7C000001F0
7C000001F0
7E000003E0
3F000007E0
1F80000FC0
1FC0001FC0
0FE0003F80
07F801FF00
03FFFFFE00
00FFFFF800
007FFFF000
001FFFC000
0000F80000
ENDCHAR
STARTCHAR 00D5
ENCODING 213
SWIDTH 800 0
DWIDTH 40 0
BBX 37 45 2 -1
BITMAP
000FC10000
000FFF0000
000FFF0000
00003E0000
0000000000
0000000000
0000000000
0000000000
0000FC0000
001FFF8000
007FFFF000
01FFFFF800
03FFFFFE00
07F801FF00
0FE0007F80
1FC0001F80
1F80000FC0
3F000007E0
7E000003E0
7C000001F0
7C000001F0
F8000000F0
F8000000F8
F8000000F8
F8000000F8
F8000000F8
F0000000F8
F0000000F8
F8000000F8
F8000000F8
F8000000F8
F8000000F0
7C000001F0
7C000001F0
7E000003E0
3F000007E0
1F80000FC0
1FC0001FC0
0FE0003F80
07F801FF00
03FFFFFE00
00FFFFF800
007FFFF000
001FFFC000
0000F80000
ENDCHAR
STARTCHAR 00D6
ENCODING 214
SWIDTH 800 0
DWIDTH 40 0
BBX 37 46 2 -1
BITMAP
000C018000
003F07E000
003F87F000
007F87F000
007F87F000
003F87F000
003F03E000
0004008000
0000000000
0000FC0000
001FFF8000
007FFFF000
01FFFFF800
03FFFFFE00
07F801FF00
0FE0007F80
1FC0001F80
1F80000FC0
3F000007E0
7E000003E0
7C000001F0
7C000001F0
F8000000F0
F8000000F8
F8000000F8
F8000000F8
F8000000F8
F0000000F8
F0000000F8
F8000000F8
F8000000F8
F8000000F8
F8000000F0
7C000001F0
7C000001F0
7E000003E0
3F000007E0
1F80000FC0
1FC0001FC0
0FE0003F80
07F801FF00
03FFFFFE00
00FFFFF800
007FFFF000
001FFFC000
0000F80000
ENDCHAR
STARTCHAR 00D7
ENCODING 215
SWIDTH 500 0
DWIDTH 25 0
BBX 20 21 3 6
BITMAP
200040
7000E0
F801F0
FC03E0
7E07C0
3F0F80
1F9F00
0FFE00
07FC00
03F800
01F800
03FC00
07FE00
0FBF00
1F1F80
3E0FC0
7C07E0
F803F0
F001F0
6000E0
000040
ENDCHAR
STARTCHAR 00D8
ENCODING 216
SWIDTH 780 0
DWIDTH 39 0
BBX 38 37 1 -1
BITMAP
0000FC00E0
000FFFC1F0
003FFFF3E0
00FFFFFFC0
01FFFFFF80
07FC00FF00
07F0003F80
0FC0003FC0
1F80007FE0
3F0000FBE0
3E0001F3F0
7E0003E1F0
7C0003C0F8
7C000780F8
78000F00F8
F8001F0078
F8003E007C
F8007C007C
F800F8007C
F801F0007C
F801E00078
F803C00078
78078000F8
7C0F8000F8
7C1F0000F8
3E3E0001F0
3E7C0003F0
3FF80003E0
1FF00007E0
0FE0001FC0
07F0003F80
07FC00FF00
0FFFFFFE00
1FFFFFFC00
3E3FFFF000
3C0FFFC000
1800FC0000
ENDCHAR
STARTCHAR 00D9
ENCODING 217
SWIDTH 500 0
DWIDTH 25 0
BBX 21 46 2 -1
BITMAP
078000
03C000
01C000
00E000
00F000
007000
003800
000000
000000
000000
F80078
F80078
F80078
F80078
F80078
F80078
F80078
F80078
F80078
F80078
F80078
F80078
F80078
F80078
F80078
F80078
F80078
F80078
F80078
F80078
F80078
F80078
F80078
F80078
F80078
F800F8
F800F8
7800F8
7C00F8
7E01F0
3F03F0
3FFFE0
1FFFC0
0FFF80
03FF00
00F800
ENDCHAR
STARTCHAR 00DA
ENCODING 218
SWIDTH 500 0
DWIDTH 25 0
BBX 21 46 2 -1
BITMAP
000F00
000E00
001E00
003C00
003800
007000
007000
000000
000000
000000
F80078
F80078
F80078
F80078
F80078
F80078
F80078
F80078
F80078
F80078
F80078
F80078
F80078
F80078
F80078
F80078
F80078
F80078
F80078
F80078
F80078
F80078
F80078
F80078
F80078
F800F8
F800F8
7800F8
7C00F8
7E01F0
3F03F0
3FFFE0
1FFFC0
0FFF80
03FF00
00F800
ENDCHAR
STARTCHAR 00DB
ENCODING 219
SWIDTH 500 0
DWIDTH 25 0
BBX 21 46 2 -1
BITMAP
00F800
01FC00
01FE00
03DF00
078F00
0F0780
0F03C0
000000
000000
000000
F80078
F80078
F80078
F80078
F80078
F80078
F80078
F80078
F80078
F80078
F80078
F80078
F80078
F80078
F80078
F80078
F80078
F80078
F80078
F80078
F80078
F80078
F80078
F80078
F80078
F800F8
F800F8
7800F8
7C00F8
7E01F0
3F03F0
3FFFE0
1FFFC0
0FFF80
03FF00
00F800
ENDCHAR
STARTCHAR 00DC
ENCODING 220
SWIDTH 500 0
DWIDTH 25 0
BBX 21 46 2 -1
BITMAP
0401C0
1F03E0
3F87F0
3F87F0
3F87F0
3F87F0
1F03E0
040080
000000
000000
F80078
F80078
F80078
F80078
F80078
F80078
F80078
F80078
F80078
F80078
F80078
F80078
F80078
F80078
F80078
F80078
F80078
F80078
F80078
F80078
F80078
F80078
F80078
F80078
F80078
F800F8
F800F8
7800F8
7C00F8
7E01F0
3F03F0
3FFFE0
1FFFC0
0FFF80
03FF00
00F800
ENDCHAR
STARTCHAR 00DD
ENCODING 221
SWIDTH 480 0
DWIDTH 24 0
BBX 21 45 2 0
BITMAP
000F00
001E00
001C00
003C00
003800
007000
00E000
000000
000000
000000
F800F8
F800F8
F800F8
F800F8
F800F8
F800F8
F800F8
F800F8
F800F8
F800F8
F800F8
F800F8
F800F8
F800F8
F800F8
F800F8
F800F8
F800F8
F800F8
7C01F0
7C01F0
7E03F0
3FFFE0
1FFFC0
0FFF80
07FF00
00F800
00F800
00F800
00F800
00F800
00F800
00F800
00F800
00F800
ENDCHAR
STARTCHAR 00E0
ENCODING 224
SWIDTH 540 0
DWIDTH 27 0
BBX 25 45 2 0
BITMAP
03C00000
03C00000
01E00000
00E00000
00700000
00780000
00380000
00000000
00000000
00780000
03FF0000
0FFFC000
1FFFE000
1FFFF000
3F03F000
3E01F800
7C00F800
7C00F800
7C007800
78007C00
78007C00
F8007C00
F8007C00
F8007C00
F8007C00
F8007C00
F8007C00
F8007C00
F8007C00
F8007C00
F8007C00
F8007C00
F8007C00
F8007C00
F8007C00
F8007C00
F8007C00
F8007C00
F8007C00
F8007C00
F8007C00
FFFFFF80
FFFFFF80
FFFFFF80
FFFFFF80
ENDCHAR
STARTCHAR 00E1
ENCODING 225
SWIDTH 540 0
DWIDTH 27 0
BBX 25 45 2 0
BITMAP
000F0000
000F0000
001E0000
001C0000
00380000
00380000
00700000
00000000
00000000
00780000
03FF0000
0FFFC000
1FFFE000
1FFFF000
3F03F000
3E01F800
7C00F800
7C00F800
7C007800
78007C00
78007C00
F8007C00
F8007C00
F8007C00
F8007C00
F8007C00
F8007C00
F8007C00
F8007C00
F8007C00
F8007C00
F8007C00
F8007C00
F8007C00
F8007C00
F8007C00
F8007C00
F8007C00
F8007C00
F8007C00
F8007C00
FFFFFF80
FFFFFF80
FFFFFF80
FFFFFF80
ENDCHAR
STARTCHAR 00E2
ENCODING 226
SWIDTH 540 0
DWIDTH 27 0
BBX 25 45 2 0
BITMAP
007C0000
00FC0000
01FE0000
03CF0000
07C78000
0787C000
0F03C000
00000000
00000000
00780000
03FF0000
0FFFC000
1FFFE000
1FFFF000
3F03F000
3E01F800
7C00F800
7C00F800
7C007800
78007C00
78007C00
F8007C00
F8007C00
F8007C00
F8007C00
F8007C00
F8007C00
F8007C00
F8007C00
F8007C00
F8007C00
F8007C00
F8007C00
F8007C00
F8007C00
F8007C00
F8007C00
F8007C00
F8007C00
F8007C00
F8007C00
FFFFFF80
FFFFFF80
FFFFFF80
FFFFFF80
ENDCHAR
STARTCHAR 00E3
ENCODING 227
SWIDTH 540 0
DWIDTH 27 0
BBX 25 44 2 0
BITMAP
0FE00000
0FFF0000
0FFF0000
001F0000
00000000
00000000
00000000
00000000
00780000
03FF0000
0FFFC000
1FFFE000
1FFFF000
3F03F000
3E01F800
7C00F800
7C00F800
7C007800
78007C00
78007C00
F8007C00
F8007C00
F8007C00
F8007C00
F8007C00
F8007C00
F8007C00
F8007C00
F8007C00
F8007C00
F8007C00
F8007C00
F8007C00
F8007C00
F8007C00
F8007C00
F8007C00
F8007C00
F8007C00
F8007C00
FFFFFF80
FFFFFF80
FFFFFF80
FFFFFF80
ENDCHAR
STARTCHAR 00E4
ENCODING 228
SWIDTH 540 0
DWIDTH 27 0
BBX 25 45 2 0
BITMAP
0600C000
1F83F000
3F87F000
3F87F800
3F87F000
3F87F000
1F03F000
04008000
00000000
00780000
03FF0000
0FFFC000
1FFFE000
1FFFF000
3F03F000
3E01F800
7C00F800
7C00F800
7C007800
78007C00
78007C00
F8007C00
F8007C00
F8007C00
F8007C00
F8007C00
F8007C00
F8007C00
F8007C00
F8007C00
F8007C00
F8007C00
F8007C00
F8007C00
F8007C00
F8007C00
F8007C00
F8007C00
F8007C00
F8007C00
F8007C00
FFFFFF80
FFFFFF80
FFFFFF80
FFFFFF80
ENDCHAR
STARTCHAR 00E5
ENCODING 229
SWIDTH 540 0
DWIDTH 27 0
BBX 25 48 2 0
BITMAP
00780000
01FE0000
01FE0000
03870000
03830000
03030000
03870000
01CE0000
01FE0000
00780000
00000000
00000000
00780000
03FF0000
0FFFC000
1FFFE000
1FFFF000
3F03F000
3E01F800
7C00F800
7C00F800
7C007800
78007C00
78007C00
F8007C00
F8007C00
F8007C00
F8007C00
F8007C00
F8007C00
F8007C00
F8007C00
F8007C00
F8007C00
F8007C00
F8007C00
F8007C00
F8007C00
F8007C00
F8007C00
F8007C00
F8007C00
F8007C00
F8007C00
FFFFFF80
FFFFFF80
FFFFFF80
FFFFFF80
ENDCHAR
STARTCHAR 00E7
ENCODING 231
SWIDTH 680 0
DWIDTH 34 0
BBX 32 47 2 -11
BITMAP
0001F800
001FFF80
007FFFE0
01FFFFF8
03FFFFFC
07F801FE
0FE0007F
1FC0003C
1F000018
3F000000
7E000000
7C000000
7C000000
F8000000
F8000000
F8000000
F8000000
F8000000
F0000000
F0000000
F8000000
F8000000
F8000000
F8000000
7C000000
7C000000
7E000000
3F000000
1F000018
1FC0003C
0FE0007F
07F801FE
03FFFFFC
01FFFFF0
007FFFE0
001FFF80
0001F800
0001C000
0001E000
00007000
00003800
00001800
00081800
001C3800
001FF800
000FF000
0001C000
ENDCHAR
STARTCHAR 00E8
ENCODING 232
SWIDTH 480 0
DWIDTH 24 0
BBX 24 45 1 0
BITMAP
078000
03C000
01C000
01E000
00F000
007000
003800
000000
000000
000000
0FFFC0
0FFFC0
0FFFC0
0FFFC0
0F0000
0F0000
0F0000
0F0000
0F0000
0F0000
0F0000
0F0000
0F0000
0F0000
0F0000
FFFFF0
FFFFF0
FFFFF0
FFFFF0
FFFFF0
0F0000
0F0000
0F0000
0F0000
0F0000
0F0000
0F0000
0F0000
0F0000
0F0000
0F0000
0FFFFF
0FFFFF
0FFFFF
0FFFFF
ENDCHAR
STARTCHAR 00E9
ENCODING 233
SWIDTH 480 0
DWIDTH 24 0
BBX 24 45 1 0
BITMAP
000F00
001E00
001E00
003C00
003800
007000
007000
000000
000000
000000
0FFFC0
0FFFC0
0FFFC0
0FFFC0
0F0000
0F0000
0F0000
0F0000
0F0000
0F0000
0F0000
0F0000
0F0000
0F0000
0F0000
FFFFF0
FFFFF0
FFFFF0
FFFFF0
FFFFF0
0F0000
0F0000
0F0000
0F0000
0F0000
0F0000
0F0000
0F0000
0F0000
0F0000
0F0000
0FFFFF
0FFFFF
0FFFFF
0FFFFF
ENDCHAR
STARTCHAR 00EA
ENCODING 234
SWIDTH 480 0
DWIDTH 24 0
BBX 24 45 1 0
BITMAP
00F800
01FC00
01FE00
03DF00
078F00
0F0780
1E03C0
000000
000000
000000
0FFFC0
0FFFC0
0FFFC0
0FFFC0
0F0000
0F0000
0F0000
0F0000
0F0000
0F0000
0F0000
0F0000
0F0000
0F0000
0F0000
FFFFF0
FFFFF0
FFFFF0
FFFFF0
FFFFF0
0F0000
0F0000
0F0000
0F0000
0F0000
0F0000
0F0000
0F0000
0F0000
0F0000
0F0000
0FFFFF
0FFFFF
0FFFFF
0FFFFF
ENDCHAR
STARTCHAR 00EB
ENCODING 235
SWIDTH 480 0
DWIDTH 24 0
BBX 24 45 1 0
BITMAP
040080
1F03E0
3F87F0
3F87F0
3F87F0
3F87F0
1F03E0
0C0080
000000
000000
0FFFC0
0FFFC0
0FFFC0
0FFFC0
0F0000
0F0000
0F0000
0F0000
0F0000
0F0000
0F0000
0F0000
0F0000
0F0000
0F0000
FFFFF0
FFFFF0
FFFFF0
FFFFF0
FFFFF0
0F0000
0F0000
0F0000
0F0000
0F0000
0F0000
0F0000
0F0000
0F0000
0F0000
0F0000
0FFFFF
0FFFFF
0FFFFF
0FFFFF
ENDCHAR
STARTCHAR 00EC
ENCODING 236
SWIDTH 200 0
DWIDTH 10 0
BBX 7 31 0 0
BITMAP
F0
70
78
3C
1C
0E
0E
00
00
1E
1E
1E
1E
1E
1E
1E
1E
1E
1E
1E
1E
1E
1E
1E
1E
1E
1E
1E
1E
1E
1E
ENDCHAR
STARTCHAR 00ED
ENCODING 237
SWIDTH 200 0
DWIDTH 10 0
BBX 7 31 3 0
BITMAP
1E
1C
3C
78
70
E0
E0
00
00
F0
F0
F0
F0
F0
F0
F0
F0
F0
F0
F0
F0
F0
F0
F0
F0
F0
F0
F0
F0
F0
F0
ENDCHAR
STARTCHAR 00EE
ENCODING 238
SWIDTH 200 0
DWIDTH 10 0
BBX 16 31 -3 0
BITMAP
07E0
0FF0
0FF8
1E78
3C3C
781E
F00F
0000
0000
03C0
03C0
03C0
03C0
03C0
03C0
03C0
03C0
03C0
03C0
03C0
03C0
03C0
03C0
03C0
03C0
03C0
03C0
03C0
03C0
03C0
03C0
ENDCHAR
STARTCHAR 00EF
ENCODING 239
SWIDTH 200 0
DWIDTH 10 0
BBX 19 31 -4 0
BITMAP
3C0780
7E0FC0
FE1FC0
FE1FE0
FE1FC0
7E0FC0
3C0780
000000
000000
01E000
01E000
01E000
01E000
01E000
01E000
01E000
01E000
01E000
01E000
01E000
01E000
01E000
01E000
01E000
01E000
01E000
01E000
01E000
01E000
01E000
01E000
ENDCHAR
STARTCHAR 00F1
ENCODING 241
SWIDTH 520 0
DWIDTH 26 0
BBX 23 44 1 0
BITMAP
07F000
07FF80
07FF80
000F80
000000
000000
000000
000000
200000
70003E
7C003E
FE003E
7F003E
3FC03E
3FE03E
3FF03E
3FF83E
3FFE3E
3E7F3E
3E3FBE
3E1FFE
3E0FFE
3E03FE
3E01FE
3E00FE
3E007E
3E003E
3E003E
3E003E
3E003E
3E003E
3E003E
3E003E
3E003E
3E003E
3E003E
3E003E
3E003E
3E003E
3E003E
3E003E
3E003E
3E003E
3E003E
ENDCHAR
STARTCHAR 00F2
ENCODING 242
SWIDTH 800 0
DWIDTH 40 0
BBX 37 46 2 -1
BITMAP
0007800000
0003C00000
0003C00000
0001E00000
0000E00000
0000700000
0000700000
0000000000
0000000000
0000FC0000
001FFF8000
007FFFF000
01FFFFF800
03FFFFFE00
07F801FF00
0FE0007F80
1FC0001F80
1F80000FC0
3F000007E0
7E000003E0
7C000001F0
7C000001F0
F8000000F0
F8000000F8
F8000000F8
F8000000F8
F8000000F8
F0000000F8
F0000000F8
F8000000F8
F8000000F8
F8000000F8
F8000000F0
7C000001F0
7C000001F0
7E000003E0
3F000007E0
1F80000FC0
1FC0001FC0
0FE0003F80
07F801FF00
03FFFFFE00
00FFFFF800
007FFFF000
001FFFC000
0000F80000
ENDCHAR
STARTCHAR 00F3
ENCODING 243
SWIDTH 800 0
DWIDTH 40 0
BBX 37 46 2 -1
BITMAP
00000F0000
00001E0000
00001C0000
00003C0000
0000780000
0000700000
0000E00000
0000000000
0000000000
0000FC0000
001FFF8000
007FFFF000
01FFFFF800
03FFFFFE00
07F801FF00
0FE0007F80
1FC0001F80
1F80000FC0
3F000007E0
7E000003E0
7C000001F0
7C000001F0
F8000000F0
F8000000F8
F8000000F8
F8000000F8
F8000000F8
F0000000F8
F0000000F8
F8000000F8
F8000000F8
F8000000F8
F8000000F0
7C000001F0
7C000001F0
7E000003E0
3F000007E0
1F80000FC0
1FC0001FC0
0FE0003F80
07F801FF00
03FFFFFE00
00FFFFF800
007FFFF000
001FFFC000
0000F80000
ENDCHAR
STARTCHAR 00F4
ENCODING 244
SWIDTH 800 0
DWIDTH 40 0
BBX 37 46 2 -1
BITMAP
0000F80000
0001FC0000
0003FE0000
0003DE0000
00078F0000
000F078000
001E03C000
0000000000
0000000000
0000FC0000
001FFF8000
007FFFF000
01FFFFF800
03FFFFFE00
07F801FF00
0FE0007F80
1FC0001F80
1F80000FC0
3F000007E0
7E000003E0
7C000001F0
7C000001F0
F8000000F0
F8000000F8
F8000000F8
F8000000F8
F8000000F8
F0000000F8
F0000000F8
F8000000F8
F8000000F8
F8000000F8
F8000000F0
7C000001F0
7C000001F0
7E000003E0
3F000007E0
1F80000FC0
1FC0001FC0
0FE0003F80
07F801FF00
03FFFFFE00
00FFFFF800
007FFFF000
001FFFC000
0000F80000
ENDCHAR
STARTCHAR 00F5
ENCODING 245
SWIDTH 800 0
DWIDTH 40 0
BBX 37 45 2 -1
BITMAP
000FC10000
000FFF0000
000FFF0000
00003E0000
0000000000
0000000000
0000000000
0000000000
0000FC0000
001FFF8000
007FFFF000
01FFFFF800
03FFFFFE00
07F801FF00
0FE0007F80
1FC0001F80
1F80000FC0
3F000007E0
7E000003E0
7C000001F0
7C000001F0
F8000000F0
F8000000F8
F8000000F8
F8000000F8
F8000000F8
F0000000F8
F0000000F8
F8000000F8
F8000000F8
F8000000F8
F8000000F0
7C000001F0
7C000001F0
7E000003E0
3F000007E0
1F80000FC0
1FC0001FC0
0FE0003F80
07F801FF00
03FFFFFE00
00FFFFF800
007FFFF000
001FFFC000
0000F80000
ENDCHAR
STARTCHAR 00F6
ENCODING 246
SWIDTH 800 0
DWIDTH 40 0
BBX 37 46 2 -1
BITMAP
000C018000
003F07E000
003F87F000
007F87F000
007F87F000
003F87F000
003F03E000
0004008000
0000000000
0000FC0000
001FFF8000
007FFFF000
01FFFFF800
03FFFFFE00
07F801FF00
0FE0007F80
1FC0001F80
1F80000FC0
3F000007E0
7E000003E0
7C000001F0
7C000001F0
F8000000F0
F8000000F8
F8000000F8
F8000000F8
F8000000F8
F0000000F8
F0000000F8
F8000000F8
F8000000F8
F8000000F8
F8000000F0
7C000001F0
7C000001F0
7E000003E0
3F000007E0
1F80000FC0
1FC0001FC0
0FE0003F80
07F801FF00
03FFFFFE00
00FFFFF800
007FFFF000
001FFFC000
0000F80000
ENDCHAR
STARTCHAR 00F7
ENCODING 247
SWIDTH 540 0
DWIDTH 27 0
BBX 22 22 3 5
BITMAP
007800
00FC00
00FC00
00FC00
00FC00
007800
000000
000000
000000
FFFFFC
FFFFFC
FFFFFC
FFFFFC
000000
000000
000000
007800
00FC00
00FC00
00FC00
00FC00
007800
ENDCHAR
STARTCHAR 00F8
ENCODING 248
SWIDTH 780 0
DWIDTH 39 0
BBX 38 37 1 -1
BITMAP
0000FC00E0
000FFFC1F0
003FFFF3E0
00FFFFFFC0
01FFFFFF80
07FC00FF00
07F0003F80
0FC0003FC0
1F80007FE0
3F0000FBE0
3E0001F3F0
7E0003E1F0
7C0003C0F8
7C000780F8
78000F00F8
F8001F0078
F8003E007C
F8007C007C
F800F8007C
F801F0007C
F801E00078
F803C00078
78078000F8
7C0F8000F8
7C1F0000F8
3E3E0001F0
3E7C0003F0
3FF80003E0
1FF00007E0
0FE0001FC0
07F0003F80
07FC00FF00
0FFFFFFE00
1FFFFFFC00
3E3FFFF000
3C0FFFC000
1800FC0000
ENDCHAR
STARTCHAR 00F9
ENCODING 249
SWIDTH 500 0
DWIDTH 25 0
BBX 21 46 2 -1
BITMAP
078000
03C000
01C000
00E000
00F000
007000
003800
000000
000000
000000
F80078
F80078
F80078
F80078
F80078
F80078
F80078
F80078
F80078
F80078
F80078
F80078
F80078
F80078
F80078
F80078
F80078
F80078
F80078
F80078
F80078
F80078
F80078
F80078
F80078
F800F8
F800F8
7800F8
7C00F8
7E01F0
3F03F0
3FFFE0
1FFFC0
0FFF80
03FF00
00F800
ENDCHAR
STARTCHAR 00FA
ENCODING 250
SWIDTH 500 0
DWIDTH 25 0
BBX 21 46 2 -1
BITMAP
000F00
000E00
001E00
003C00
003800
007000
007000
000000
000000
000000
F80078
F80078
F80078
F80078
F80078
F80078
F80078
F80078
F80078
F80078
F80078
F80078
F80078
F80078
F80078
F80078
F80078
F80078
F80078
F80078
F80078
F80078
F80078
F80078
F80078
F800F8
F800F8
7800F8
7C00F8
7E01F0
3F03F0
3FFFE0
1FFFC0
0FFF80
03FF00
00F800
ENDCHAR
STARTCHAR 00FB
ENCODING 251
SWIDTH 500 0
DWIDTH 25 0
BBX 21 46 2 -1
BITMAP
00F800
01FC00
01FE00
03DF00
078F00
0F0780
0F03C0
000000
000000
000000
F80078
F80078
F80078
F80078
F80078
F80078
F80078
F80078
F80078
F80078
F80078
F80078
F80078
F80078
F80078
F80078
F80078
F80078
F80078
F80078
F80078
F80078
F80078
F80078
F80078
F800F8
F800F8
7800F8
7C00F8
7E01F0
3F03F0
3FFFE0
1FFFC0
0FFF80
03FF00
00F800
ENDCHAR
STARTCHAR 00FC
ENCODING 252
SWIDTH 500 0
DWIDTH 25 0
BBX 21 46 2 -1
BITMAP
0401C0
1F03E0
3F87F0
3F87F0
3F87F0
3F87F0
1F03E0
040080
000000
000000
F80078
F80078
F80078
F80078
F80078
F80078
F80078
F80078
F80078
F80078
F80078
F80078
F80078
F80078
F80078
F80078
F80078
F80078
F80078
F80078
F80078
F80078
F80078
F80078
F80078
F800F8
F800F8
7800F8
7C00F8
7E01F0
3F03F0
3FFFE0
1FFFC0
0FFF80
03FF00
00F800
ENDCHAR
STARTCHAR 00FD
ENCODING 253
SWIDTH 480 0
DWIDTH 24 0
BBX 21 45 2 0
BITMAP
000F00
001E00
001C00
003C00
003800
007000
00E000
000000
000000
000000
F800F8
F800F8
F800F8
F800F8
F800F8
F800F8
F800F8
F800F8
F800F8
F800F8
F800F8
F800F8
F800F8
F800F8
F800F8
F800F8
F800F8
F800F8
F800F8
7C01F0
7C01F0
7E03F0
3FFFE0
1FFFC0
0FFF80
07FF00
00F800
00F800
00F800
00F800
00F800
00F800
00F800
00F800
00F800
ENDCHAR
STARTCHAR 00FF
ENCODING 255
SWIDTH 480 0
DWIDTH 24 0
BBX 21 45 2 0
BITMAP
0C0180
3F03E0
3F87F0
3F87F0
3F87F0
3F87F0
1F03E0
040080
000000
000000
F800F8
F800F8
F800F8
F800F8
F800F8
F800F8
F800F8
F800F8
F800F8
F800F8
F800F8
F800F8
F800F8
F800F8
F800F8
F800F8
F800F8
F800F8
F800F8
7C01F0
7C01F0
7E03F0
3FFFE0
1FFFC0
0FFF80
07FF00
00F800
00F800
00F800
00F800
00F800
00F800
00F800
00F800
00F800
ENDCHAR
STARTCHAR 0100
ENCODING 256
SWIDTH 540 0
DWIDTH 27 0
BBX 25 43 2 0
BITMAP
0FFFC000
0FFFC000
0FFFC000
00000000
00000000
00000000
00000000
00780000
03FF0000
0FFFC000
1FFFE000
1FFFF000
3F03F000
3E01F800
7C00F800
7C00F800
7C007800
78007C00
78007C00
F8007C00
F8007C00
F8007C00
F8007C00
F8007C00
F8007C00
F8007C00
F8007C00
F8007C00
F8007C00
F8007C00
F8007C00
F8007C00
F8007C00
F8007C00
F8007C00
F8007C00
F8007C00
F8007C00
F8007C00
FFFFFF80
FFFFFF80
FFFFFF80
FFFFFF80
ENDCHAR
STARTCHAR 0101
ENCODING 257
SWIDTH 540 0
DWIDTH 27 0
BBX 25 43 2 0
BITMAP
0FFFC000
0FFFC000
0FFFC000
00000000
00000000
00000000
00000000
00780000
03FF0000
0FFFC000
1FFFE000
1FFFF000
3F03F000
3E01F800
7C00F800
7C00F800
7C007800
78007C00
78007C00
F8007C00
F8007C00
F8007C00
F8007C00
F8007C00
F8007C00
F8007C00
F8007C00
F8007C00
F8007C00
F8007C00
F8007C00
F8007C00
F8007C00
F8007C00
F8007C00
F8007C00
F8007C00
F8007C00
F8007C00
FFFFFF80
FFFFFF80
FFFFFF80
FFFFFF80
ENDCHAR
STARTCHAR 0102
ENCODING 258
SWIDTH 540 0
DWIDTH 27 0
BBX 25 45 2 0
BITMAP
0E01C000
0F01C000
0703C000
07878000
03FF0000
01FE0000
00FC0000
00000000
00000000
00780000
03FF0000
0FFFC000
1FFFE000
1FFFF000
3F03F000
3E01F800
7C00F800
7C00F800
7C007800
78007C00
78007C00
F8007C00
F8007C00
F8007C00
F8007C00
F8007C00
F8007C00
F8007C00
F8007C00
F8007C00
F8007C00
F8007C00
F8007C00
F8007C00
F8007C00
F8007C00
F8007C00
F8007C00
F8007C00
F8007C00
F8007C00
FFFFFF80
FFFFFF80
FFFFFF80
FFFFFF80
ENDCHAR
STARTCHAR 0103
ENCODING 259
SWIDTH 540 0
DWIDTH 27 0
BBX 25 45 2 0
BITMAP
0E01C000
0F01C000
0703C000
07878000
03FF0000
01FE0000
00FC0000
00000000
00000000
00780000
03FF0000
0FFFC000
1FFFE000
1FFFF000
3F03F000
3E01F800
7C00F800
7C00F800
7C007800
78007C00
78007C00
F8007C00
F8007C00
F8007C00
F8007C00
F8007C00
F8007C00
F8007C00
F8007C00
F8007C00
F8007C00
F8007C00
F8007C00
F8007C00
F8007C00
F8007C00
F8007C00
F8007C00
F8007C00
F8007C00
F8007C00
FFFFFF80
FFFFFF80
FFFFFF80
FFFFFF80
ENDCHAR
STARTCHAR 0104
ENCODING 260
SWIDTH 540 0
DWIDTH 27 0
BBX 27 45 2 -9
BITMAP
00780000
03FF0000
0FFFC000
1FFFE000
1FFFF000
3F03F000
3E01F800
7C00F800
7C00F800
7C007800
78007C00
78007C00
F8007C00
F8007C00
F8007C00
F8007C00
F8007C00
F8007C00
F8007C00
F8007C00
F8007C00
F8007C00
F8007C00
F8007C00
F8007C00
F8007C00
F8007C00
F8007C00
F8007C00
F8007C00
F8007C00
F8007C00
FFFFFF80
FFFFFF80
FFFFFF80
FFFFFF80
00000E00
00003C00
00003800
00007000
00007000
00007040
000039E0
00003FE0
00001F80
ENDCHAR
STARTCHAR 0105
ENCODING 261
SWIDTH 540 0
DWIDTH 27 0
BBX 27 45 2 -9
BITMAP
00780000
03FF0000
0FFFC000
1FFFE000
1FFFF000
3F03F000
3E01F800
7C00F800
7C00F800
7C007800
78007C00
78007C00
F8007C00
F8007C00
F8007C00
F8007C00
F8007C00
F8007C00
F8007C00
F8007C00
F8007C00
F8007C00
F8007C00
F8007C00
F8007C00
F8007C00
F8007C00
F8007C00
F8007C00
F8007C00
F8007C00
F8007C00
FFFFFF80
FFFFFF80
FFFFFF80
FFFFFF80
00000E00
00003C00
00003800
00007000
00007000
00007040
000039E0
00003FE0
00001F80
ENDCHAR
STARTCHAR 0106
ENCODING 262
SWIDTH 680 0
DWIDTH 34 0
BBX 32 46 2 -1
BITMAP
00001E00
00001E00
00003C00
00003800
00007000
00007000
0000E000
00000000
00000000
0001F800
001FFF80
007FFFE0
01FFFFF8
03FFFFFC
07F801FE
0FE0007F
1FC0003C
1F000018
3F000000
7E000000
7C000000
7C000000
F8000000
F8000000
F8000000
F8000000
F8000000
F0000000
F0000000
F8000000
F8000000
F8000000
F8000000
7C000000
7C000000
7E000000
3F000000
1F000018
1FC0003C
0FE0007F
07F801FE
03FFFFFC
01FFFFF8
007FFFE0
001FFF80
0000F800
ENDCHAR
STARTCHAR 0107
ENCODING 263
SWIDTH 680 0
DWIDTH 34 0
BBX 32 46 2 -1
BITMAP
00001E00
00001E00
00003C00
00003800
00007000
00007000
0000E000
00000000
00000000
0001F800
001FFF80
007FFFE0
01FFFFF8
03FFFFFC
07F801FE
0FE0007F
1FC0003C
1F000018
3F000000
7E000000
7C000000
7C000000
F8000000
F8000000
F8000000
F8000000
F8000000
F0000000
F0000000
F8000000
F8000000
F8000000
F8000000
7C000000
7C000000
7E000000
3F000000
1F000018
1FC0003C
0FE0007F
07F801FE
03FFFFFC
01FFFFF8
007FFFE0
001FFF80
0000F800
ENDCHAR
STARTCHAR 010A
ENCODING 266
SWIDTH 680 0
DWIDTH 34 0
BBX 32 47 2 -1
BITMAP
00007000
0001F800
0001FC00
0001FC00
0001FC00
0001FC00
0000F800
00000000
00000000
00000000
0001F800
001FFF80
007FFFE0
01FFFFF8
03FFFFFC
07F801FE
0FE0007F
1FC0003C
1F000018
3F000000
7E000000
7C000000
7C000000
F8000000
F8000000
F8000000
F8000000
F8000000
F0000000
F0000000
F8000000
F8000000
F8000000
F8000000
7C000000
7C000000
7E000000
3F000000
1F000018
1FC0003C
0FE0007F
07F801FE
03FFFFFC
01FFFFF8
007FFFE0
001FFF80
0000F800
ENDCHAR
STARTCHAR 010B
ENCODING 267
SWIDTH 680 0
DWIDTH 34 0
BBX 32 47 2 -1
BITMAP
00007000
0001F800
0001FC00
0001FC00
0001FC00
0001FC00
0000F800
00000000
00000000
00000000
0001F800
001FFF80
007FFFE0
01FFFFF8
03FFFFFC
07F801FE
0FE0007F
1FC0003C
1F000018
3F000000
7E000000
7C000000
7C000000
F8000000
F8000000
F8000000
F8000000
F8000000
F0000000
F0000000
F8000000
F8000000
F8000000
F8000000
7C000000
7C000000
7E000000
3F000000
1F000018
1FC0003C
0FE0007F
07F801FE
03FFFFFC
01FFFFF8
007FFFE0
001FFF80
0000F800
ENDCHAR
STARTCHAR 010C
ENCODING 268
SWIDTH 680 0
DWIDTH 34 0
BBX 32 46 2 -1
BITMAP
001E0780
000F0F00
000F8F00
00079E00
0003FC00
0001F800
00000000
00000000
00000000
0001F800
001FFF80
007FFFE0
01FFFFF8
03FFFFFC
07F801FE
0FE0007F
1FC0003C
1F000018
3F000000
7E000000
7C000000
7C000000
F8000000
F8000000
F8000000
F8000000
F8000000
F0000000
F0000000
F8000000
F8000000
F8000000
F8000000
7C000000
7C000000
7E000000
3F000000
1F000018
1FC0003C
0FE0007F
07F801FE
03FFFFFC
01FFFFF8
007FFFE0
001FFF80
0000F800
ENDCHAR
STARTCHAR 010D
ENCODING 269
SWIDTH 680 0
DWIDTH 34 0
BBX 32 46 2 -1
BITMAP
001E0780
000F0F00
000F8F00
00079E00
0003FC00
0001F800
00000000
00000000
00000000
0001F800
001FFF80
007FFFE0
01FFFFF8
03FFFFFC
07F801FE
0FE0007F
1FC0003C
1F000018
3F000000
7E000000
7C000000
7C000000
F8000000
F8000000
F8000000
F8000000
F8000000
F0000000
F0000000
F8000000
F8000000
F8000000
F8000000
7C000000
7C000000
7E000000
3F000000
1F000018
1FC0003C
0FE0007F
07F801FE
03FFFFFC
01FFFFF8
007FFFE0
001FFF80
0000F800
ENDCHAR
STARTCHAR 010E
ENCODING 270
SWIDTH 640 0
DWIDTH 32 0
BBX 28 45 3 0
BITMAP
1F03C000
0F078000
078F0000
03DE0000
01FE0000
01FC0000
00000000
00000000
00000000
00000000
FFFC0000
FFFF8000
FFFFF000
FFFFF800
F03FFC00
F001FE00
F0007F00
F0001F80
F0000FC0
F00007C0
F00007E0
F00003E0
F00003E0
F00001E0
F00001F0
F00001F0
F00001F0
F00001F0
F00001F0
F00001F0
F00001F0
F00001E0
F00003E0
F00003E0
F00007E0
F00007C0
F0000FC0
F0001F80
F0007F00
F001FF00
F03FFE00
FFFFF800
FFFFF000
FFFFC000
FFFC0000
ENDCHAR
STARTCHAR 010F
ENCODING 271
SWIDTH 640 0
DWIDTH 32 0
BBX 28 45 3 0
BITMAP
1F03C000
0F078000
078F0000
03DE0000
01FE0000
01FC0000
00000000
00000000
00000000
00000000
FFFC0000
FFFF8000
FFFFF000
FFFFF800
F03FFC00
F001FE00
F0007F00
F0001F80
F0000FC0
F00007C0
F00007E0
F00003E0
F00003E0
F00001E0
F00001F0
F00001F0
F00001F0
F00001F0
F00001F0
F00001F0
F00001F0
F00001E0
F00003E0
F00003E0
F00007E0
F00007C0
F0000FC0
F0001F80
F0007F00
F001FF00
F03FFE00
FFFFF800
FFFFF000
FFFFC000
FFFC0000
ENDCHAR
STARTCHAR 0110
ENCODING 272
SWIDTH 680 0
DWIDTH 34 0
BBX 32 35 1 0
BITMAP
1FFFC000
1FFFF800
1FFFFE00
1FFFFF80
1F03FFC0
1F001FE0
1F0007F0
1F0001F8
1F0000F8
1F00007C
1F00007C
1F00003E
1F00003E
1F00003E
1F00001E
FFFF801F
FFFF801F
FFFF801F
FFFF801F
1F00001F
1F00001E
1F00003E
1F00003E
1F00003E
1F00007C
1F00007C
1F0000F8
1F0001F8
1F0007F0
1F001FE0
1F03FFC0
1FFFFF80
1FFFFF00
1FFFF800
1FFFC000
ENDCHAR
STARTCHAR 0111
ENCODING 273
SWIDTH 680 0
DWIDTH 34 0
BBX 32 35 1 0
BITMAP
1FFFC000
1FFFF800
1FFFFE00
1FFFFF80
1F03FFC0
1F001FE0
1F0007F0
1F0001F8
1F0000F8
1F00007C
1F00007C
1F00003E
1F00003E
1F00003E
1F00001E
FFFF801F
FFFF801F
FFFF801F
FFFF801F
1F00001F
1F00001E
1F00003E
1F00003E
1F00003E
1F00007C
1F00007C
1F0000F8
1F0001F8
1F0007F0
1F001FE0
1F03FFC0
1FFFFF80
1FFFFF00
1FFFF800
1FFFC000
ENDCHAR
STARTCHAR 0112
ENCODING 274
SWIDTH 480 0
DWIDTH 24 0
BBX 24 43 1 0
BITMAP
0FFFC0
0FFFC0
0FFFC0
000000
000000
000000
000000
000000
0FFFC0
0FFFC0
0FFFC0
0FFFC0
0F0000
0F0000
0F0000
0F0000
0F0000
0F0000
0F0000
0F0000
0F0000
0F0000
0F0000
FFFFF0
FFFFF0
FFFFF0
FFFFF0
FFFFF0
0F0000
0F0000
0F0000
0F0000
0F0000
0F0000
0F0000
0F0000
0F0000
0F0000
0F0000
0FFFFF
0FFFFF
0FFFFF
0FFFFF
ENDCHAR
STARTCHAR 0113
ENCODING 275
SWIDTH 480 0
DWIDTH 24 0
BBX 24 43 1 0
BITMAP
0FFFC0
0FFFC0
0FFFC0
000000
000000
000000
000000
000000
0FFFC0
0FFFC0
0FFFC0
0FFFC0
0F0000
0F0000
0F0000
0F0000
0F0000
0F0000
0F0000
0F0000
0F0000
0F0000
0F0000
FFFFF0
FFFFF0
FFFFF0
FFFFF0
FFFFF0
0F0000
0F0000
0F0000
0F0000
0F0000
0F0000
0F0000
0F0000
0F0000
0F0000
0F0000
0FFFFF
0FFFFF
0FFFFF
0FFFFF
ENDCHAR
STARTCHAR 0116
ENCODING 278
SWIDTH 480 0
DWIDTH 24 0
BBX 24 46 1 0
BITMAP
007000
00FC00
01FC00
01FE00
01FE00
00FC00
00F800
000000
000000
000000
000000
0FFFC0
0FFFC0
0FFFC0
0FFFC0
0F0000
0F0000
0F0000
0F0000
0F0000
0F0000
0F0000
0F0000
0F0000
0F0000
0F0000
FFFFF0
FFFFF0
FFFFF0
FFFFF0
FFFFF0
0F0000
0F0000
0F0000
0F0000
0F0000
0F0000
0F0000
0F0000
0F0000
0F0000
0F0000
0FFFFF
0FFFFF
0FFFFF
0FFFFF
ENDCHAR
STARTCHAR 0117
ENCODING 279
SWIDTH 480 0
DWIDTH 24 0
BBX 24 46 1 0
BITMAP
007000
00FC00
01FC00
01FE00
01FE00
00FC00
00F800
000000
000000
000000
000000
0FFFC0
0FFFC0
0FFFC0
0FFFC0
0F0000
0F0000
0F0000
0F0000
0F0000
0F0000
0F0000
0F0000
0F0000
0F0000
0F0000
FFFFF0
FFFFF0
FFFFF0
FFFFF0
FFFFF0
0F0000
0F0000
0F0000
0F0000
0F0000
0F0000
0F0000
0F0000
0F0000
0F0000
0F0000
0FFFFF
0FFFFF
0FFFFF
0FFFFF
ENDCHAR
STARTCHAR 0118
ENCODING 280
SWIDTH 480 0
DWIDTH 24 0
BBX 25 44 1 -9
BITMAP
0FFFC000
0FFFC000
0FFFC000
0FFFC000
0F000000
0F000000
0F000000
0F000000
0F000000
0F000000
0F000000
0F000000
0F000000
0F000000
0F000000
FFFFF000
FFFFF000
FFFFF000
FFFFF000
FFFFF000
0F000000
0F000000
0F000000
0F000000
0F000000
0F000000
0F000000
0F000000
0F000000
0F000000
0F000000
0FFFFF00
0FFFFF00
0FFFFF00
0FFFFF00
00003C00
00007000
0000E000
0000E000
0000E000
0000E100
0000F380
00007F80
00003F00
ENDCHAR
STARTCHAR 0119
ENCODING 281
SWIDTH 480 0
DWIDTH 24 0
BBX 25 44 1 -9
BITMAP
0FFFC000
0FFFC000
0FFFC000
0FFFC000
0F000000
0F000000
0F000000
0F000000
0F000000
0F000000
0F000000
0F000000
0F000000
0F000000
0F000000
FFFFF000
FFFFF000
FFFFF000
FFFFF000
FFFFF000
0F000000
0F000000
0F000000
0F000000
0F000000
0F000000
0F000000
0F000000
0F000000
0F000000
0F000000
0FFFFF00
0FFFFF00
0FFFFF00
0FFFFF00
00003C00
00007000
0000E000
0000E000
0000E000
0000E100
0000F380
00007F80
00003F00
ENDCHAR
STARTCHAR 011A
ENCODING 282
SWIDTH 480 0
DWIDTH 24 0
BBX 24 45 1 0
BITMAP
0F03C0
0F0780
078F00
03DE00
01FE00
01FC00
000000
000000
000000
000000
0FFFC0
0FFFC0
0FFFC0
0FFFC0
0F0000
0F0000
0F0000
0F0000
0F0000
0F0000
0F0000
0F0000
0F0000
0F0000
0F0000
FFFFF0
FFFFF0
FFFFF0
FFFFF0
FFFFF0
0F0000
0F0000
0F0000
0F0000
0F0000
0F0000
0F0000
0F0000
0F0000
0F0000
0F0000
0FFFFF
0FFFFF
0FFFFF
0FFFFF
ENDCHAR
STARTCHAR 011B
ENCODING 283
SWIDTH 480 0
DWIDTH 24 0
BBX 24 45 1 0
BITMAP
0F03C0
0F0780
078F00
03DE00
01FE00
01FC00
000000
000000
000000
000000
0FFFC0
0FFFC0
0FFFC0
0FFFC0
0F0000
0F0000
0F0000
0F0000
0F0000
0F0000
0F0000
0F0000
0F0000
0F0000
0F0000
FFFFF0
FFFFF0
FFFFF0
FFFFF0
FFFFF0
0F0000
0F0000
0F0000
0F0000
0F0000
0F0000
0F0000
0F0000
0F0000
0F0000
0F0000
0FFFFF
0FFFFF
0FFFFF
0FFFFF
ENDCHAR
STARTCHAR 011E
ENCODING 286
SWIDTH 820 0
DWIDTH 41 0
BBX 39 46 2 -1
BITMAP
001C038000
001C038000
000E078000
000F0F0000
0007FE0000
0003FC0000
0001F80000
0000000000
0000000000
0000F80000
001FFF8000
007FFFE000
01FFFFF800
03FFFFFC00
07F801FE00
0FE0007F00
1FC0003E00
1F80001C00
3F00000000
7E00000000
7C00000000
7C00000000
F800000000
F800000000
F800000000
F8007FFFFE
F8007FFFFE
F0007FFFFE
F0007FFFFE
F8007FFFFE
F8000001F0
F8000001F0
F8000001F0
7C000003E0
7C000003E0
7E000007E0
3F00000FC0
1F80000FC0
1FC0003F80
0FE0007F00
07F801FE00
03FFFFFC00
00FFFFF800
007FFFE000
001FFF8000
0000F80000
ENDCHAR
STARTCHAR 011F
ENCODING 287
SWIDTH 820 0
DWIDTH 41 0
BBX 39 46 2 -1
BITMAP
001C038000
001C038000
000E078000
000F0F0000
0007FE0000
0003FC0000
0001F80000
0000000000
0000000000
0000F80000
001FFF8000
007FFFE000
01FFFFF800
03FFFFFC00
07F801FE00
0FE0007F00
1FC0003E00
1F80001C00
3F00000000
7E00000000
7C00000000
7C00000000
F800000000
F800000000
F800000000
F8007FFFFE
F8007FFFFE
F0007FFFFE
F0007FFFFE
F8007FFFFE
F8000001F0
F8000001F0
F8000001F0
7C000003E0
7C000003E0
7E000007E0
3F00000FC0
1F80000FC0
1FC0003F80
0FE0007F00
07F801FE00
03FFFFFC00
00FFFFF800
007FFFE000
001FFF8000
0000F80000
ENDCHAR
STARTCHAR 0120
ENCODING 288
SWIDTH 820 0
DWIDTH 41 0
BBX 39 47 2 -1
BITMAP
0000700000
0001F80000
0001FC0000
0001FC0000
0001FC0000
0001FC0000
0000F80000
0000000000
0000000000
0000000000
0000F80000
001FFF8000
007FFFE000
01FFFFF800
03FFFFFC00
07F801FE00
0FE0007F00
1FC0003E00
1F80001C00
3F00000000
7E00000000
7C00000000
7C00000000
F800000000
F800000000
F800000000
F8007FFFFE
F8007FFFFE
F0007FFFFE
F0007FFFFE
F8007FFFFE
F8000001F0
F8000001F0
F8000001F0
7C000003E0
7C000003E0
7E000007E0
3F00000FC0
1F80000FC0
1FC0003F80
0FE0007F00
07F801FE00
03FFFFFC00
00FFFFF800
007FFFE000
001FFF8000
0000F80000
ENDCHAR
STARTCHAR 0121
ENCODING 289
SWIDTH 820 0
DWIDTH 41 0
BBX 39 47 2 -1
BITMAP
0000700000
0001F80000
0001FC0000
0001FC0000
0001FC0000
0001FC0000
0000F80000
0000000000
0000000000
0000000000
0000F80000
001FFF8000
007FFFE000
01FFFFF800
03FFFFFC00
07F801FE00
0FE0007F00
1FC0003E00
1F80001C00
3F00000000
7E00000000
7C00000000
7C00000000
F800000000
F800000000
F800000000
F8007FFFFE
F8007FFFFE
F0007FFFFE
F0007FFFFE
F8007FFFFE
F8000001F0
F8000001F0
F8000001F0
7C000003E0
7C000003E0
7E000007E0
3F00000FC0
1F80000FC0
1FC0003F80
0FE0007F00
07F801FE00
03FFFFFC00
00FFFFF800
007FFFE000
001FFF8000
0000F80000
ENDCHAR
STARTCHAR 0124
ENCODING 292
SWIDTH 560 0
DWIDTH 28 0
BBX 24 45 1 0
BITMAP
001F80
001F80
003FC0
0079E0
00F0F0
00F0F0
01E078
000000
000000
000000
0F000F
0F000F
0F000F
0F000F
0F000F
0F000F
0F000F
0F000F
0F000F
0F000F
0F000F
0F000F
0F000F
0F000F
FFFFFF
FFFFFF
FFFFFF
FFFFFF
FFFFFF
0F000F
0F000F
0F000F
0F000F
0F000F
0F000F
0F000F
0F000F
0F000F
0F000F
0F000F
0F000F
0F000F
0F000F
0F000F
0F000F
ENDCHAR
STARTCHAR 0125
ENCODING 293
SWIDTH 560 0
DWIDTH 28 0
BBX 24 45 1 0
BITMAP
001F80
001F80
003FC0
0079E0
00F0F0
00F0F0
01E078
000000
000000
000000
0F000F
0F000F
0F000F
0F000F
0F000F
0F000F
0F000F
0F000F
0F000F
0F000F
0F000F
0F000F
0F000F
0F000F
FFFFFF
FFFFFF
FFFFFF
FFFFFF
FFFFFF
0F000F
0F000F
0F000F
0F000F
0F000F
0F000F
0F000F
0F000F
0F000F
0F000F
0F000F
0F000F
0F000F
0F000F
0F000F
0F000F
ENDCHAR
STARTCHAR 0128
ENCODING 296
SWIDTH 200 0
DWIDTH 10 0
BBX 12 31 -2 0
BITMAP
3800
FFF0
FFF0
C7F0
0000
0000
0000
0000
0000
0780
0780
0780
0780
0780
0780
0780
0780
0780
0780
0780
0780
0780
0780
0780
0780
0780
0780
0780
0780
0780
0780
ENDCHAR
STARTCHAR 0129
ENCODING 297
SWIDTH 200 0
DWIDTH 10 0
BBX 12 31 -2 0
BITMAP
3800
FFF0
FFF0
C7F0
0000
0000
0000
0000
0000
0780
0780
0780
0780
0780
0780
0780
0780
0780
0780
0780
0780
0780
0780
0780
0780
0780
0780
0780
0780
0780
0780
ENDCHAR
STARTCHAR 012A
ENCODING 298
SWIDTH 200 0
DWIDTH 10 0
BBX 14 30 -2 0
BITMAP
FFFC
FFFC
FFFC
FFFC
0000
0000
0000
0000
0780
0780
0780
0780
0780
0780
0780
0780
0780
0780
0780
0780
0780
0780
0780
0780
0780
0780
0780
0780
0780
0780
ENDCHAR
STARTCHAR 012B
ENCODING 299
SWIDTH 200 0
DWIDTH 10 0
BBX 14 30 -2 0
BITMAP
FFFC
FFFC
FFFC
FFFC
0000
0000
0000
0000
0780
0780
0780
0780
0780
0780
0780
0780
0780
0780
0780
0780
0780
0780
0780
0780
0780
0780
0780
0780
0780
0780
ENDCHAR
STARTCHAR 012E
ENCODING 302
SWIDTH 180 0
DWIDTH 9 0
BBX 12 48 -1 -8
BITMAP
0400
0600
0600
0E00
FFF0
7FC0
1F80
1F80
1F80
3980
3080
0040
0000
0000
0000
0000
0000
1F00
1F00
1F00
1F00
1F00
1F00
1F00
1F00
1F00
1F00
1F00
1F00
1F00
1F00
1F00
1F00
1F00
1F00
1F00
1F00
1F00
1F00
1C00
3800
7000
E000
E000
E080
73C0
7FC0
3F00
ENDCHAR
STARTCHAR 012F
ENCODING 303
SWIDTH 180 0
DWIDTH 9 0
BBX 12 48 -1 -8
BITMAP
0400
0600
0600
0E00
FFF0
7FC0
1F80
1F80
1F80
3980
3080
0040
0000
0000
0000
0000
0000
1F00
1F00
1F00
1F00
1F00
1F00
1F00
1F00
1F00
1F00
1F00
1F00
1F00
1F00
1F00
1F00
1F00
1F00
1F00
1F00
1F00
1F00
1C00
3800
7000
E000
E000
E080
73C0
7FC0
3F00
ENDCHAR
STARTCHAR 0130
ENCODING 304
SWIDTH 200 0
DWIDTH 10 0
BBX 7 32 2 0
BITMAP
7C
FC
FE
FE
FE
FC
78
00
00
00
78
78
78
78
78
78
78
78
78
78
78
78
78
78
78
78
78
78
78
78
78
78
ENDCHAR
STARTCHAR 0139
ENCODING 313
SWIDTH 420 0
DWIDTH 21 0
BBX 18 45 3 0
BITMAP
1E0000
1E0000
3C0000
380000
700000
700000
E00000
000000
000000
000000
F00000
F00000
F00000
F00000
F00000
F00000
F00000
F00000
F00000
F00000
F00000
F00000
F00000
F00000
F00000
F00000
F00000
F00000
F00000
F00000
F00000
F00000
F00000
F00000
F00000
F00000
F00000
F00000
F00000
F00000
F00000
FFFFC0
FFFFC0
FFFFC0
FFFFC0
ENDCHAR
STARTCHAR 013A
ENCODING 314
SWIDTH 420 0
DWIDTH 21 0
BBX 18 45 3 0
BITMAP
1E0000
1E0000
3C0000
380000
700000
700000
E00000
000000
000000
000000
F00000
F00000
F00000
F00000
F00000
F00000
F00000
F00000
F00000
F00000
F00000
F00000
F00000
F00000
F00000
F00000
F00000
F00000
F00000
F00000
F00000
F00000
F00000
F00000
F00000
F00000
F00000
F00000
F00000
F00000
F00000
FFFFC0
FFFFC0
FFFFC0
FFFFC0
ENDCHAR
STARTCHAR 013D
ENCODING 317
SWIDTH 420 0
DWIDTH 21 0
BBX 23 45 -2 0
BITMAP
F03C00
787800
7C7800
3CF000
1FE000
0FC000
000000
000000
000000
000000
078000
078000
078000
078000
078000
078000
078000
078000
078000
078000
078000
078000
078000
078000
078000
078000
078000
078000
078000
078000
078000
078000
078000
078000
078000
078000
078000
078000
078000
078000
078000
07FFFE
07FFFE
07FFFE
07FFFE
ENDCHAR
STARTCHAR 013E
ENCODING 318
SWIDTH 420 0
DWIDTH 21 0
BBX 23 45 -2 0
BITMAP
F03C00
787800
7C7800
3CF000
1FE000
0FC000
000000
000000
000000
000000
078000
078000
078000
078000
078000
078000
078000
078000
078000
078000
078000
078000
078000
078000
078000
078000
078000
078000
078000
078000
078000
078000
078000
078000
078000
078000
078000
078000
078000
078000
078000
07FFFE
07FFFE
07FFFE
07FFFE
ENDCHAR
STARTCHAR 0141
ENCODING 321
SWIDTH 480 0
DWIDTH 24 0
BBX 22 35 1 0
BITMAP
0F8000
0F8000
0F8000
0F8000
0F8000
0F8000
0F8000
0F8000
0F8000
0F8000
0F8000
0F8000
0F8600
0F9E00
0FFF00
0FFC00
0FF000
1FC000
7F8000
FF8000
FF8000
CF8000
0F8000
0F8000
0F8000
0F8000
0F8000
0F8000
0F8000
0F8000
0F8000
0FFFFC
0FFFFC
0FFFFC
0FFFFC
ENDCHAR
STARTCHAR 0142
ENCODING 322
SWIDTH 480 0
DWIDTH 24 0
BBX 22 35 1 0
BITMAP
0F8000
0F8000
0F8000
0F8000
0F8000
0F8000
0F8000
0F8000
0F8000
0F8000
0F8000
0F8000
0F8600
0F9E00
0FFF00
0FFC00
0FF000
1FC000
7F8000
FF8000
FF8000
CF8000
0F8000
0F8000
0F8000
0F8000
0F8000
0F8000
0F8000
0F8000
0F8000
0FFFFC
0FFFFC
0FFFFC
0FFFFC
ENDCHAR
STARTCHAR 0143
ENCODING 323
SWIDTH 520 0
DWIDTH 26 0
BBX 23 45 1 0
BITMAP
000780
000780
000F00
000E00
001C00
001C00
003800
000000
000000
200000
70003E
7C003E
FE003E
7F003E
3FC03E
3FE03E
3FF03E
3FF83E
3FFE3E
3E7F3E
3E3FBE
3E1FFE
3E0FFE
3E03FE
3E01FE
3E00FE
3E007E
3E003E
3E003E
3E003E
3E003E
3E003E
3E003E
3E003E
3E003E
3E003E
3E003E
3E003E
3E003E
3E003E
3E003E
3E003E
3E003E
3E003E
3E003E
ENDCHAR
STARTCHAR 0144
ENCODING 324
SWIDTH 520 0
DWIDTH 26 0
BBX 23 45 1 0
BITMAP
000780
000780
000F00
000E00
001C00
001C00
003800
000000
000000
200000
70003E
7C003E
FE003E
7F003E
3FC03E
3FE03E
3FF03E
3FF83E
3FFE3E
3E7F3E
3E3FBE
3E1FFE
3E0FFE
3E03FE
3E01FE
3E00FE
3E007E
3E003E
3E003E
3E003E
3E003E
3E003E
3E003E
3E003E
3E003E
3E003E
3E003E
3E003E
3E003E
3E003E
3E003E
3E003E
3E003E
3E003E
3E003E
ENDCHAR
STARTCHAR 0147
ENCODING 327
SWIDTH 520 0
DWIDTH 26 0
BBX 23 45 1 0
BITMAP
0781E0
03C3C0
01E3C0
01F780
00FF00
007E00
000000
000000
000000
200000
70003E
7C003E
FE003E
7F003E
3FC03E
3FE03E
3FF03E
3FF83E
3FFE3E
3E7F3E
3E3FBE
3E1FFE
3E0FFE
3E03FE
3E01FE
3E00FE
3E007E
3E003E
3E003E
3E003E
3E003E
3E003E
3E003E
3E003E
3E003E
3E003E
3E003E
3E003E
3E003E
3E003E
3E003E
3E003E
3E003E
3E003E
3E003E
ENDCHAR
STARTCHAR 0148
ENCODING 328
SWIDTH 520 0
DWIDTH 26 0
BBX 23 45 1 0
BITMAP
0781E0
03C3C0
01E3C0
01F780
00FF00
007E00
000000
000000
000000
200000
70003E
7C003E
FE003E
7F003E
3FC03E
3FE03E
3FF03E
3FF83E
3FFE3E
3E7F3E
3E3FBE
3E1FFE
3E0FFE
3E03FE
3E01FE
3E00FE
3E007E
3E003E
3E003E
3E003E
3E003E
3E003E
3E003E
3E003E
3E003E
3E003E
3E003E
3E003E
3E003E
3E003E
3E003E
3E003E
3E003E
3E003E
3E003E
ENDCHAR
STARTCHAR 014C
ENCODING 332
SWIDTH 800 0
DWIDTH 40 0
BBX 37 44 2 -1
BITMAP
001FFF8000
001FFF8000
001FFF8000
0000000000
0000000000
0000000000
0000000000
0000FC0000
001FFF8000
007FFFF000
01FFFFF800
03FFFFFE00
07F801FF00
0FE0007F80
1FC0001F80
1F80000FC0
3F000007E0
7E000003E0
7C000001F0
7C000001F0
F8000000F0
F8000000F8
F8000000F8
F8000000F8
F8000000F8
F0000000F8
F0000000F8
F8000000F8
F8000000F8
F8000000F8
F8000000F0
7C000001F0
7C000001F0
7E000003E0
3F000007E0
1F80000FC0
1FC0001FC0
0FE0003F80
07F801FF00
03FFFFFE00
00FFFFF800
007FFFF000
001FFFC000
0000F80000
ENDCHAR
STARTCHAR 014D
ENCODING 333
SWIDTH 800 0
DWIDTH 40 0
BBX 37 44 2 -1
BITMAP
001FFF8000
001FFF8000
001FFF8000
0000000000
0000000000
0000000000
0000000000
0000FC0000
001FFF8000
007FFFF000
01FFFFF800
03FFFFFE00
07F801FF00
0FE0007F80
1FC0001F80
1F80000FC0
3F000007E0
7E000003E0
7C000001F0
7C000001F0
F8000000F0
F8000000F8
F8000000F8
F8000000F8
F8000000F8
F0000000F8
F0000000F8
F8000000F8
F8000000F8
F8000000F8
F8000000F0
7C000001F0
7C000001F0
7E000003E0
3F000007E0
1F80000FC0
1FC0001FC0
0FE0003F80
07F801FF00
03FFFFFE00
00FFFFF800
007FFFF000
001FFFC000
0000F80000
ENDCHAR
STARTCHAR 0150
ENCODING 336
SWIDTH 800 0
DWIDTH 40 0
BBX 37 46 2 -1
BITMAP
0000F0F000
0001E0F000
0001C1E000
0003C1C000
0007838000
0007078000
000E070000
0000000000
0000000000
0000FC0000
001FFF8000
007FFFF000
01FFFFF800
03FFFFFE00
07F801FF00
0FE0007F80
1FC0001F80
1F80000FC0
3F000007E0
7E000003E0
7C000001F0
7C000001F0
F8000000F0
F8000000F8
F8000000F8
F8000000F8
F8000000F8
F0000000F8
F0000000F8
F8000000F8
F8000000F8
F8000000F8
F8000000F0
7C000001F0
7C000001F0
7E000003E0
3F000007E0
1F80000FC0
1FC0001FC0
0FE0003F80
07F801FF00
03FFFFFE00
00FFFFF800
007FFFF000
001FFFC000
0000F80000
ENDCHAR
STARTCHAR 0151
ENCODING 337
SWIDTH 800 0
DWIDTH 40 0
BBX 37 46 2 -1
BITMAP
0000F0F000
0001E0F000
0001C1E000
0003C1C000
0007838000
0007078000
000E070000
0000000000
0000000000
0000FC0000
001FFF8000
007FFFF000
01FFFFF800
03FFFFFE00
07F801FF00
0FE0007F80
1FC0001F80
1F80000FC0
3F000007E0
7E000003E0
7C000001F0
7C000001F0
F8000000F0
F8000000F8
F8000000F8
F8000000F8
F8000000F8
F0000000F8
F0000000F8
F8000000F8
F8000000F8
F8000000F8
F8000000F0
7C000001F0
7C000001F0
7E000003E0
3F000007E0
1F80000FC0
1FC0001FC0
0FE0003F80
07F801FF00
03FFFFFE00
00FFFFF800
007FFFF000
001FFFC000
0000F80000
ENDCHAR
STARTCHAR 0154
ENCODING 340
SWIDTH 580 0
DWIDTH 29 0
BBX 27 45 1 0
BITMAP
0001E000
0003C000
00038000
00070000
000F0000
000E0000
001C0000
00000000
00000000
00000000
0FFFC000
0FFFF800
0FFFFE00
0FFFFF00
0F01FF80
0F001FC0
0F000FC0
0F0007C0
0F0003C0
0F0003E0
0F0003E0
0F0003E0
0F0003C0
0F0007C0
0F000FC0
0F001F80
0F00FF80
FFFFFF00
FFFFFE00
FFFFF800
FFFFFC00
0F01FE00
0F007E00
0F001F00
0F001F00
0F000F80
0F000F80
0F000F80
0F000F80
0F000F80
0F000F80
0F000F80
0F000F80
0F000F80
0F000F80
ENDCHAR
STARTCHAR 0155
ENCODING 341
SWIDTH 580 0
DWIDTH 29 0
BBX 27 45 1 0
BITMAP
0001E000
0003C000
00038000
00070000
000F0000
000E0000
001C0000
00000000
00000000
00000000
0FFFC000
0FFFF800
0FFFFE00
0FFFFF00
0F01FF80
0F001FC0
0F000FC0
0F0007C0
0F0003C0
0F0003E0
0F0003E0
0F0003E0
0F0003C0
0F0007C0
0F000FC0
0F001F80
0F00FF80
FFFFFF00
FFFFFE00
FFFFF800
FFFFFC00
0F01FE00
0F007E00
0F001F00
0F001F00
0F000F80
0F000F80
0F000F80
0F000F80
0F000F80
0F000F80
0F000F80
0F000F80
0F000F80
0F000F80
ENDCHAR
STARTCHAR 0158
ENCODING 344
SWIDTH 580 0
DWIDTH 29 0
BBX 27 45 1 0
BITMAP
03C07800
01E0F000
00F1E000
007BC000
007F8000
003F8000
00000000
00000000
00000000
00000000
0FFFC000
0FFFF800
0FFFFE00
0FFFFF00
0F01FF80
0F001FC0
0F000FC0
0F0007C0
0F0003C0
0F0003E0
0F0003E0
0F0003E0
0F0003C0
0F0007C0
0F000FC0
0F001F80
0F00FF80
FFFFFF00
FFFFFE00
FFFFF800
FFFFFC00
0F01FE00
0F007E00
0F001F00
0F001F00
0F000F80
0F000F80
0F000F80
0F000F80
0F000F80
0F000F80
0F000F80
0F000F80
0F000F80
0F000F80
ENDCHAR
STARTCHAR 0159
ENCODING 345
SWIDTH 580 0
DWIDTH 29 0
BBX 27 45 1 0
BITMAP
03C07800
01E0F000
00F1E000
007BC000
007F8000
003F8000
00000000
00000000
00000000
00000000
0FFFC000
0FFFF800
0FFFFE00
0FFFFF00
0F01FF80
0F001FC0
0F000FC0
0F0007C0
0F0003C0
0F0003E0
0F0003E0
0F0003E0
0F0003C0
0F0007C0
0F000FC0
0F001F80
0F00FF80
FFFFFF00
FFFFFE00
FFFFF800
FFFFFC00
0F01FE00
0F007E00
0F001F00
0F001F00
0F000F80
0F000F80
0F000F80
0F000F80
0F000F80
0F000F80
0F000F80
0F000F80
0F000F80
0F000F80
ENDCHAR
STARTCHAR 015A
ENCODING 346
SWIDTH 480 0
DWIDTH 24 0
BBX 22 46 1 -1
BITMAP
000780
000F00
001E00
001C00
003C00
003800
007000
000000
000000
007C00
03FF80
07FFC0
0FFFE0
1FFFF0
1F83F0
3E01F8
3E00F8
3E0078
3E0070
3E0000
3F0000
1F0000
1FC000
0FE000
07F800
03FE00
00FF00
007FC0
001FE0
000FF0
0003F8
0001F8
0000FC
00007C
00007C
18007C
F8007C
7C007C
7C007C
7E00FC
3F01F8
1FFFF8
0FFFF0
07FFE0
03FF80
007E00
ENDCHAR
STARTCHAR 015B
ENCODING 347
SWIDTH 480 0
DWIDTH 24 0
BBX 22 46 1 -1
BITMAP
000780
000F00
001E00
001C00
003C00
003800
007000
000000
000000
007C00
03FF80
07FFC0
0FFFE0
1FFFF0
1F83F0
3E01F8
3E00F8
3E0078
3E0070
3E0000
3F0000
1F0000
1FC000
0FE000
07F800
03FE00
00FF00
007FC0
001FE0
000FF0
0003F8
0001F8
0000FC
00007C
00007C
18007C
F8007C
7C007C
7C007C
7E00FC
3F01F8
1FFFF8
0FFFF0
07FFE0
03FF80
007E00
ENDCHAR
STARTCHAR 015E
ENCODING 350
SWIDTH 480 0
DWIDTH 24 0
BBX 22 47 1 -11
BITMAP
007C00
03FF80
07FFC0
0FFFE0
1FFFF0
1F83F0
3E01F8
3E00F8
3E0078
3E0070
3E0000
3F0000
1F0000
1FC000
0FE000
07F800
03FE00
00FF00
007FC0
001FE0
000FF0
0003F8
0001F8
0000FC
00007C
00007C
18007C
F8007C
7C007C
7C007C
7E00FC
3F01F8
1FFFF8
0FFFF0
07FFE0
03FF80
007C00
003800
003C00
001E00
000700
000700
030700
078700
03FE00
01FC00
007000
ENDCHAR
STARTCHAR 015F
ENCODING 351
SWIDTH 480 0
DWIDTH 24 0
BBX 22 47 1 -11
BITMAP
007C00
03FF80
07FFC0
0FFFE0
1FFFF0
1F83F0
3E01F8
3E00F8
3E0078
3E0070
3E0000
3F0000
1F0000
1FC000
0FE000
07F800
03FE00
00FF00
007FC0
001FE0
000FF0
0003F8
0001F8
0000FC
00007C
00007C
18007C
F8007C
7C007C
7C007C
7E00FC
3F01F8
1FFFF8
0FFFF0
07FFE0
03FF80
007C00
003800
003C00
001E00
000700
000700
030700
078700
03FE00
01FC00
007000
ENDCHAR
STARTCHAR 0160
ENCODING 352
SWIDTH 480 0
DWIDTH 24 0
BBX 22 46 1 -1
BITMAP
0F03C0
0783C0
03C780
03EF00
01FE00
00FC00
000000
000000
000000
007C00
03FF80
07FFC0
0FFFE0
1FFFF0
1F83F0
3E01F8
3E00F8
3E0078
3E0070
3E0000
3F0000
1F0000
1FC000
0FE000
07F800
03FE00
00FF00
007FC0
001FE0
000FF0
0003F8
0001F8
0000FC
00007C
00007C
18007C
F8007C
7C007C
7C007C
7E00FC
3F01F8
1FFFF8
0FFFF0
07FFE0
03FF80
007E00
ENDCHAR
STARTCHAR 0161
ENCODING 353
SWIDTH 480 0
DWIDTH 24 0
BBX 22 46 1 -1
BITMAP
0F03C0
0783C0
03C780
03EF00
01FE00
00FC00
000000
000000
000000
007C00
03FF80
07FFC0
0FFFE0
1FFFF0
1F83F0
3E01F8
3E00F8
3E0078
3E0070
3E0000
3F0000
1F0000
1FC000
0FE000
07F800
03FE00
00FF00
007FC0
001FE0
000FF0
0003F8
0001F8
0000FC
00007C
00007C
18007C
F8007C
7C007C
7C007C
7E00FC
3F01F8
1FFFF8
0FFFF0
07FFE0
03FF80
007E00
ENDCHAR
STARTCHAR 0162
ENCODING 354
SWIDTH 500 0
DWIDTH 25 0
BBX 23 46 1 -11
BITMAP
FFFFFE
FFFFFE
FFFFFE
FFFFFE
007C00
007C00
007C00
007C00
007C00
007C00
007C00
007C00
007C00
007C00
007C00
007C00
007C00
007C00
007C00
007C00
007C00
007C00
007C00
007C00
007C00
007C00
007C00
007C00
007C00
007C00
007C00
007C00
007C00
007C00
007C00
003800
003000
003C00
001E00
000600
000700
020700
070E00
03FE00
01FC00
007000
ENDCHAR
STARTCHAR 0163
ENCODING 355
SWIDTH 500 0
DWIDTH 25 0
BBX 23 46 1 -11
BITMAP
FFFFFE
FFFFFE
FFFFFE
FFFFFE
007C00
007C00
007C00
007C00
007C00
007C00
007C00
007C00
007C00
007C00
007C00
007C00
007C00
007C00
007C00
007C00
007C00
007C00
007C00
007C00
007C00
007C00
007C00
007C00
007C00
007C00
007C00
007C00
007C00
007C00
007C00
003800
003000
003C00
001E00
000600
000700
020700
070E00
03FE00
01FC00
007000
ENDCHAR
STARTCHAR 0164
ENCODING 356
SWIDTH 500 0
DWIDTH 25 0
BBX 23 45 1 0
BITMAP
0F81E0
0783C0
03C780
01EF00
00FF00
00FE00
000000
000000
000000
000000
FFFFFE
FFFFFE
FFFFFE
FFFFFE
007C00
007C00
007C00
007C00
007C00
007C00
007C00
007C00
007C00
007C00
007C00
007C00
007C00
007C00
007C00
007C00
007C00
007C00
007C00
007C00
007C00
007C00
007C00
007C00
007C00
007C00
007C00
007C00
007C00
007C00
007C00
ENDCHAR
STARTCHAR 0165
ENCODING 357
SWIDTH 500 0
DWIDTH 25 0
BBX 23 45 1 0
BITMAP
0F81E0
0783C0
03C780
01EF00
00FF00
00FE00
000000
000000
000000
000000
FFFFFE
FFFFFE
FFFFFE
FFFFFE
007C00
007C00
007C00
007C00
007C00
007C00
007C00
007C00
007C00
007C00
007C00
007C00
007C00
007C00
007C00
007C00
007C00
007C00
007C00
007C00
007C00
007C00
007C00
007C00
007C00
007C00
007C00
007C00
007C00
007C00
007C00
ENDCHAR
STARTCHAR 0168
ENCODING 360
SWIDTH 500 0
DWIDTH 25 0
BBX 21 45 2 -1
BITMAP
0FC100
0FFF00
0FFF00
003F00
000000
000000
000000
000000
000000
F80078
F80078
F80078
F80078
F80078
F80078
F80078
F80078
F80078
F80078
F80078
F80078
F80078
F80078
F80078
F80078
F80078
F80078
F80078
F80078
F80078
F80078
F80078
F80078
F80078
F800F8
F800F8
7800F8
7C00F8
7E01F0
3F03F0
3FFFE0
1FFFC0
0FFF80
03FF00
00F800
ENDCHAR
STARTCHAR 0169
ENCODING 361
SWIDTH 500 0
DWIDTH 25 0
BBX 21 45 2 -1
BITMAP
0FC100
0FFF00
0FFF00
003F00
000000
000000
000000
000000
000000
F80078
F80078
F80078
F80078
F80078
F80078
F80078
F80078
F80078
F80078
F80078
F80078
F80078
F80078
F80078
F80078
F80078
F80078
F80078
F80078
F80078
F80078
F80078
F80078
F80078
F800F8
F800F8
7800F8
7C00F8
7E01F0
3F03F0
3FFFE0
1FFFC0
0FFF80
03FF00
00F800
ENDCHAR
STARTCHAR 016A
ENCODING 362
SWIDTH 500 0
DWIDTH 25 0
BBX 21 44 2 -1
BITMAP
0FFFC0
0FFFC0
0FFFC0
000000
000000
000000
000000
000000
F80078
F80078
F80078
F80078
F80078
F80078
F80078
F80078
F80078
F80078
F80078
F80078
F80078
F80078
F80078
F80078
F80078
F80078
F80078
F80078
F80078
F80078
F80078
F80078
F80078
F800F8
F800F8
7800F8
7C00F8
7E01F0
3F03F0
3FFFE0
1FFFC0
0FFF80
03FF00
00F800
ENDCHAR
STARTCHAR 016B
ENCODING 363
SWIDTH 500 0
DWIDTH 25 0
BBX 21 44 2 -1
BITMAP
0FFFC0
0FFFC0
0FFFC0
000000
000000
000000
000000
000000
F80078
F80078
F80078
F80078
F80078
F80078
F80078
F80078
F80078
F80078
F80078
F80078
F80078
F80078
F80078
F80078
F80078
F80078
F80078
F80078
F80078
F80078
F80078
F80078
F80078
F800F8
F800F8
7800F8
7C00F8
7E01F0
3F03F0
3FFFE0
1FFFC0
0FFF80
03FF00
00F800
ENDCHAR
STARTCHAR 016E
ENCODING 366
SWIDTH 500 0
DWIDTH 25 0
BBX 21 49 2 -1
BITMAP
007800
01FC00
03DE00
038700
030700
030700
038700
03DE00
01FC00
00F800
000000
000000
000000
F80078
F80078
F80078
F80078
F80078
F80078
F80078
F80078
F80078
F80078
F80078
F80078
F80078
F80078
F80078
F80078
F80078
F80078
F80078
F80078
F80078
F80078
F80078
F80078
F80078
F800F8
F800F8
7800F8
7C00F8
7E01F0
3F03F0
3FFFE0
1FFFC0
0FFF80
03FF00
00F800
ENDCHAR
STARTCHAR 016F
ENCODING 367
SWIDTH 500 0
DWIDTH 25 0
BBX 21 49 2 -1
BITMAP
007800
01FC00
03DE00
038700
030700
030700
038700
03DE00
01FC00
00F800
000000
000000
000000
F80078
F80078
F80078
F80078
F80078
F80078
F80078
F80078
F80078
F80078
F80078
F80078
F80078
F80078
F80078
F80078
F80078
F80078
F80078
F80078
F80078
F80078
F80078
F80078
F80078
F800F8
F800F8
7800F8
7C00F8
7E01F0
3F03F0
3FFFE0
1FFFC0
0FFF80
03FF00
00F800
ENDCHAR
STARTCHAR 0170
ENCODING 368
SWIDTH 500 0
DWIDTH 25 0
BBX 21 46 2 -1
BITMAP
00F078
00E0F0
01E1E0
03C1C0
0383C0
070380
070700
000000
000000
000000
F80078
F80078
F80078
F80078
F80078
F80078
F80078
F80078
F80078
F80078
F80078
F80078
F80078
F80078
F80078
F80078
F80078
F80078
F80078
F80078
F80078
F80078
F80078
F80078
F80078
F800F8
F800F8
7800F8
7C00F8
7E01F0
3F03F0
3FFFE0
1FFFC0
0FFF80
03FF00
00F800
ENDCHAR
STARTCHAR 0171
ENCODING 369
SWIDTH 500 0
DWIDTH 25 0
BBX 21 46 2 -1
BITMAP
00F078
00E0F0
01E1E0
03C1C0
0383C0
070380
070700
000000
000000
000000
F80078
F80078
F80078
F80078
F80078
F80078
F80078
F80078
F80078
F80078
F80078
F80078
F80078
F80078
F80078
F80078
F80078
F80078
F80078
F80078
F80078
F80078
F80078
F80078
F80078
F800F8
F800F8
7800F8
7C00F8
7E01F0
3F03F0
3FFFE0
1FFFC0
0FFF80
03FF00
00F800
ENDCHAR
STARTCHAR 0172
ENCODING 370
SWIDTH 500 0
DWIDTH 25 0
BBX 21 44 2 -9
BITMAP
F80078
F80078
F80078
F80078
F80078
F80078
F80078
F80078
F80078
F80078
F80078
F80078
F80078
F80078
F80078
F80078
F80078
F80078
F80078
F80078
F80078
F80078
F80078
F80078
F80078
F800F8
F800F8
7800F8
7C00F8
7E01F0
3F03F0
3FFFE0
1FFFC0
0FFF80
03FF00
00F800
00E000
01C000
018000
038000
038000
01C700
01FF00
00FE00
ENDCHAR
STARTCHAR 0173
ENCODING 371
SWIDTH 500 0
DWIDTH 25 0
BBX 21 44 2 -9
BITMAP
F80078
F80078
F80078
F80078
F80078
F80078
F80078
F80078
F80078
F80078
F80078
F80078
F80078
F80078
F80078
F80078
F80078
F80078
F80078
F80078
F80078
F80078
F80078
F80078
F80078
F800F8
F800F8
7800F8
7C00F8
7E01F0
3F03F0
3FFFE0
1FFFC0
0FFF80
03FF00
00F800
00E000
01C000
018000
038000
038000
01C700
01FF00
00FE00
ENDCHAR
STARTCHAR 0176
ENCODING 374
SWIDTH 480 0
DWIDTH 24 0
BBX 21 45 2 0
BITMAP
00F800
01FC00
03FE00
03DE00
078F00
0F0780
1E03C0
000000
000000
000000
F800F8
F800F8
F800F8
F800F8
F800F8
F800F8
F800F8
F800F8
F800F8
F800F8
F800F8
F800F8
F800F8
F800F8
F800F8
F800F8
F800F8
F800F8
F800F8
7C01F0
7C01F0
7E03F0
3FFFE0
1FFFC0
0FFF80
07FF00
00F800
00F800
00F800
00F800
00F800
00F800
00F800
00F800
00F800
ENDCHAR
STARTCHAR 0177
ENCODING 375
SWIDTH 480 0
DWIDTH 24 0
BBX 21 45 2 0
BITMAP
00F800
01FC00
03FE00
03DE00
078F00
0F0780
1E03C0
000000
000000
000000
F800F8
F800F8
F800F8
F800F8
F800F8
F800F8
F800F8
F800F8
F800F8
F800F8
F800F8
F800F8
F800F8
F800F8
F800F8
F800F8
F800F8
F800F8
F800F8
7C01F0
7C01F0
7E03F0
3FFFE0
1FFFC0
0FFF80
07FF00
00F800
00F800
00F800
00F800
00F800
00F800
00F800
00F800
00F800
ENDCHAR
STARTCHAR 0178
ENCODING 376
SWIDTH 480 0
DWIDTH 24 0
BBX 21 45 2 0
BITMAP
0C0180
3F03E0
3F87F0
3F87F0
3F87F0
3F87F0
1F03E0
040080
000000
000000
F800F8
F800F8
F800F8
F800F8
F800F8
F800F8
F800F8
F800F8
F800F8
F800F8
F800F8
F800F8
F800F8
F800F8
F800F8
F800F8
F800F8
F800F8
F800F8
7C01F0
7C01F0
7E03F0
3FFFE0
1FFFC0
0FFF80
07FF00
00F800
00F800
00F800
00F800
00F800
00F800
00F800
00F800
00F800
ENDCHAR
STARTCHAR 0179
ENCODING 377
SWIDTH 500 0
DWIDTH 25 0
BBX 23 45 1 0
BITMAP
000780
000700
000F00
001E00
001C00
003800
003800
000000
000000
000000
FFFFFE
FFFFFE
FFFFFE
FFFFFC
00007C
0000F8
0001F8
0001F0
0003E0
0003E0
0007C0
000FC0
000F80
001F80
001F00
003E00
007E00
007C00
00FC00
00F800
01F000
03F000
03E000
07E000
07C000
0F8000
0F8000
1F0000
3F0000
3E0000
7C0000
7FFFFC
FFFFFC
FFFFFC
FFFFFC
ENDCHAR
STARTCHAR 017A
ENCODING 378
SWIDTH 500 0
DWIDTH 25 0
BBX 23 45 1 0
BITMAP
000780
000700
000F00
001E00
001C00
003800
003800
000000
000000
000000
FFFFFE
FFFFFE
FFFFFE
FFFFFC
00007C
0000F8
0001F8
0001F0
0003E0
0003E0
0007C0
000FC0
000F80
001F80
001F00
003E00
007E00
007C00
00FC00
00F800
01F000
03F000
03E000
07E000
07C000
0F8000
0F8000
1F0000
3F0000
3E0000
7C0000
7FFFFC
FFFFFC
FFFFFC
FFFFFC
ENDCHAR
STARTCHAR 017B
ENCODING 379
SWIDTH 500 0
DWIDTH 25 0
BBX 23 46 1 0
BITMAP
003C00
007E00
007F00
00FF00
00FF00
007E00
003E00
000000
000000
000000
000000
FFFFFE
FFFFFE
FFFFFE
FFFFFC
00007C
0000F8
0001F8
0001F0
0003E0
0003E0
0007C0
000FC0
000F80
001F80
001F00
003E00
007E00
007C00
00FC00
00F800
01F000
03F000
03E000
07E000
07C000
0F8000
0F8000
1F0000
3F0000
3E0000
7C0000
7FFFFC
FFFFFC
FFFFFC
FFFFFC
ENDCHAR
STARTCHAR 017C
ENCODING 380
SWIDTH 500 0
DWIDTH 25 0
BBX 23 46 1 0
BITMAP
003C00
007E00
007F00
00FF00
00FF00
007E00
003E00
000000
000000
000000
000000
FFFFFE
FFFFFE
FFFFFE
FFFFFC
00007C
0000F8
0001F8
0001F0
0003E0
0003E0
0007C0
000FC0
000F80
001F80
001F00
003E00
007E00
007C00
00FC00
00F800
01F000
03F000
03E000
07E000
07C000
0F8000
0F8000
1F0000
3F0000
3E0000
7C0000
7FFFFC
FFFFFC
FFFFFC
FFFFFC
ENDCHAR
STARTCHAR 017D
ENCODING 381
SWIDTH 500 0
DWIDTH 25 0
BBX 23 45 1 0
BITMAP
0781E0
03C3C0
03C780
01E780
00FF00
007E00
000000
000000
000000
000000
FFFFFE
FFFFFE
FFFFFE
FFFFFC
00007C
0000F8
0001F8
0001F0
0003E0
0003E0
0007C0
000FC0
000F80
001F80
001F00
003E00
007E00
007C00
00FC00
00F800
01F000
03F000
03E000
07E000
07C000
0F8000
0F8000
1F0000
3F0000
3E0000
7C0000
7FFFFC
FFFFFC
FFFFFC
FFFFFC
ENDCHAR
STARTCHAR 017E
ENCODING 382
SWIDTH 500 0
DWIDTH 25 0
BBX 23 45 1 0
BITMAP
0781E0
03C3C0
03C780
01E780
00FF00
007E00
000000
000000
000000
000000
FFFFFE
FFFFFE
FFFFFE
FFFFFC
00007C
0000F8
0001F8
0001F0
0003E0
0003E0
0007C0
000FC0
000F80
001F80
001F00
003E00
007E00
007C00
00FC00
00F800
01F000
03F000
03E000
07E000
07C000
0F8000
0F8000
1F0000
3F0000
3E0000
7C0000
7FFFFC
FFFFFC
FFFFFC
FFFFFC
ENDCHAR
STARTCHAR 01A0
ENCODING 416
SWIDTH 800 0
DWIDTH 40 0
BBX 37 41 2 -1
BITMAP
0000000380
0000000380
0000000380
0000000780
0000FC0700
001FFF9F00
007FFFFC00
01FFFFF800
03FFFFFE00
07F801FF00
0FE0007F80
1FC0001F80
1F80000FC0
3F000007E0
7E000003E0
7C000001F0
7C000001F0
F8000000F0
F8000000F8
F8000000F8
F8000000F8
F8000000F8
F0000000F8
F0000000F8
F8000000F8
F8000000F8
F8000000F8
F8000000F0
7C000001F0
7C000001F0
7E000003E0
3F000007E0
1F80000FC0
1FC0001FC0
0FE0003F80
07F801FF00
03FFFFFE00
00FFFFF800
007FFFF000
001FFFC000
0000F80000
ENDCHAR
STARTCHAR 01A1
ENCODING 417
SWIDTH 800 0
DWIDTH 40 0
BBX 37 41 2 -1
BITMAP
0000000380
0000000380
0000000380
0000000780
0000FC0700
001FFF9F00
007FFFFC00
01FFFFF800
03FFFFFE00
07F801FF00
0FE0007F80
1FC0001F80
1F80000FC0
3F000007E0
7E000003E0
7C000001F0
7C000001F0
F8000000F0
F8000000F8
F8000000F8
F8000000F8
F8000000F8
F0000000F8
F0000000F8
F8000000F8
F8000000F8
F8000000F8
F8000000F0
7C000001F0
7C000001F0
7E000003E0
3F000007E0
1F80000FC0
1FC0001FC0
0FE0003F80
07F801FF00
03FFFFFE00
00FFFFF800
007FFFF000
001FFFC000
0000F80000
ENDCHAR
STARTCHAR 01AF
ENCODING 431
SWIDTH 500 0
DWIDTH 25 0
BBX 25 41 2 -1
BITMAP
00000380
00000380
00000380
00000780
00000700
F8007F00
F8007C00
F8007800
F8007800
F8007800
F8007800
F8007800
F8007800
F8007800
F8007800
F8007800
F8007800
F8007800
F8007800
F8007800
F8007800
F8007800
F8007800
F8007800
F8007800
F8007800
F8007800
F8007800
F8007800
F8007800
F800F800
F800F800
7800F800
7C00F800
7E01F000
3F03F000
3FFFE000
1FFFC000
0FFF8000
03FF0000
00F80000
ENDCHAR
STARTCHAR 01B0
ENCODING 432
SWIDTH 500 0
DWIDTH 25 0
BBX 25 41 2 -1
BITMAP
00000380
00000380
00000380
00000780
00000700
F8007F00
F8007C00
F8007800
F8007800
F8007800
F8007800
F8007800
F8007800
F8007800
F8007800
F8007800
F8007800
F8007800
F8007800
F8007800
F8007800
F8007800
F8007800
F8007800
F8007800
F8007800
F8007800
F8007800
F8007800
F8007800
F800F800
F800F800
7800F800
7C00F800
7E01F000
3F03F000
3FFFE000
1FFFC000
0FFF8000
03FF0000
00F80000
ENDCHAR
STARTCHAR 01CD
ENCODING 461
SWIDTH 540 0
DWIDTH 27 0
BBX 25 45 2 0
BITMAP
0F03C000
07878000
03C78000
03EF0000
01FE0000
00FC0000
00000000
00000000
00000000
00780000
03FF0000
0FFFC000
1FFFE000
1FFFF000
3F03F000
3E01F800
7C00F800
7C00F800
7C007800
78007C00
78007C00
F8007C00
F8007C00
F8007C00
F8007C00
F8007C00
F8007C00
F8007C00
F8007C00
F8007C00
F8007C00
F8007C00
F8007C00
F8007C00
F8007C00
F8007C00
F8007C00
F8007C00
F8007C00
F8007C00
F8007C00
FFFFFF80
FFFFFF80
FFFFFF80
FFFFFF80
ENDCHAR
STARTCHAR 01CE
ENCODING 462
SWIDTH 540 0
DWIDTH 27 0
BBX 25 45 2 0
BITMAP
0F03C000
07878000
03C78000
03EF0000
01FE0000
00FC0000
00000000
00000000
00000000
00780000
03FF0000
0FFFC000
1FFFE000
1FFFF000
3F03F000
3E01F800
7C00F800
7C00F800
7C007800
78007C00
78007C00
F8007C00
F8007C00
F8007C00
F8007C00
F8007C00
F8007C00
F8007C00
F8007C00
F8007C00
F8007C00
F8007C00
F8007C00
F8007C00
F8007C00
F8007C00
F8007C00
F8007C00
F8007C00
F8007C00
F8007C00
FFFFFF80
FFFFFF80
FFFFFF80
FFFFFF80
ENDCHAR
STARTCHAR 01CF
ENCODING 463
SWIDTH 200 0
DWIDTH 10 0
BBX 15 32 -2 0
BITMAP
F01E
F03C
7878
3CF0
1FE0
1FE0
0FC0
0000
0000
0000
0780
0780
0780
0780
0780
0780
0780
0780
0780
0780
0780
0780
0780
0780
0780
0780
0780
0780
0780
0780
0780
0780
ENDCHAR
STARTCHAR 01D0
ENCODING 464
SWIDTH 200 0
DWIDTH 10 0
BBX 15 32 -2 0
BITMAP
F01E
F03C
7878
3CF0
1FE0
1FE0
0FC0
0000
0000
0000
0780
0780
0780
0780
0780
0780
0780
0780
0780
0780
0780
0780
0780
0780
0780
0780
0780
0780
0780
0780
0780
0780
ENDCHAR
STARTCHAR 01D1
ENCODING 465
SWIDTH 800 0
DWIDTH 40 0
BBX 37 46 2 -1
BITMAP
001E03C000
000F078000
00078F0000
0003DE0000
0003FC0000
0001FC0000
0000000000
0000000000
0000000000
0000FC0000
001FFF8000
007FFFF000
01FFFFF800
03FFFFFE00
07F801FF00
0FE0007F80
1FC0001F80
1F80000FC0
3F000007E0
7E000003E0
7C000001F0
7C000001F0
F8000000F0
F8000000F8
F8000000F8
F8000000F8
F8000000F8
F0000000F8
F0000000F8
F8000000F8
F8000000F8
F8000000F8
F8000000F0
7C000001F0
7C000001F0
7E000003E0
3F000007E0
1F80000FC0
1FC0001FC0
0FE0003F80
07F801FF00
03FFFFFE00
00FFFFF800
007FFFF000
001FFFC000
0000F80000
ENDCHAR
STARTCHAR 01D2
ENCODING 466
SWIDTH 800 0
DWIDTH 40 0
BBX 37 46 2 -1
BITMAP
001E03C000
000F078000
00078F0000
0003DE0000
0003FC0000
0001FC0000
0000000000
0000000000
0000000000
0000FC0000
001FFF8000
007FFFF000
01FFFFF800
03FFFFFE00
07F801FF00
0FE0007F80
1FC0001F80
1F80000FC0
3F000007E0
7E000003E0
7C000001F0
7C000001F0
F8000000F0
F8000000F8
F8000000F8
F8000000F8
F8000000F8
F0000000F8
F0000000F8
F8000000F8
F8000000F8
F8000000F8
F8000000F0
7C000001F0
7C000001F0
7E000003E0
3F000007E0
1F80000FC0
1FC0001FC0
0FE0003F80
07F801FF00
03FFFFFE00
00FFFFF800
007FFFF000
001FFFC000
0000F80000
ENDCHAR
STARTCHAR 01D3
ENCODING 467
SWIDTH 500 0
DWIDTH 25 0
BBX 21 46 2 -1
BITMAP
0F03C0
0F8780
078F00
03DF00
01FE00
01FC00
000000
000000
000000
000000
F80078
F80078
F80078
F80078
F80078
F80078
F80078
F80078
F80078
F80078
F80078
F80078
F80078
F80078
F80078
F80078
F80078
F80078
F80078
F80078
F80078
F80078
F80078
F80078
F80078
F800F8
F800F8
7800F8
7C00F8
7E01F0
3F03F0
3FFFE0
1FFFC0
0FFF80
03FF00
00F800
ENDCHAR
STARTCHAR 01D4
ENCODING 468
SWIDTH 500 0
DWIDTH 25 0
BBX 21 46 2 -1
BITMAP
0F03C0
0F8780
078F00
03DF00
01FE00
01FC00
000000
000000
000000
000000
F80078
F80078
F80078
F80078
F80078
F80078
F80078
F80078
F80078
F80078
F80078
F80078
F80078
F80078
F80078
F80078
F80078
F80078
F80078
F80078
F80078
F80078
F80078
F80078
F80078
F800F8
F800F8
7800F8
7C00F8
7E01F0
3F03F0
3FFFE0
1FFFC0
0FFF80
03FF00
00F800
ENDCHAR
STARTCHAR 02C6
ENCODING 710
SWIDTH 300 0
DWIDTH 15 0
BBX 15 7 0 38
BITMAP
07C0
0FE0
1FF0
1EF8
3C78
783C
F01E
ENDCHAR
STARTCHAR 02C7
ENCODING 711
SWIDTH 300 0
DWIDTH 15 0
BBX 15 6 0 39
BITMAP
F81E
783C
3C78
1EF0
0FF0
0FE0
ENDCHAR
STARTCHAR 02D8
ENCODING 728
SWIDTH 260 0
DWIDTH 13 0
BBX 14 7 0 38
BITMAP
E01C
E03C
F038
7878
7FF0
3FE0
0F80
ENDCHAR
STARTCHAR 02D9
ENCODING 729
SWIDTH 140 0
DWIDTH 7 0
BBX 8 7 0 39
BITMAP
3C
7E
FF
FF
FE
7E
3C
ENDCHAR
STARTCHAR 02DA
ENCODING 730
SWIDTH 200 0
DWIDTH 10 0
BBX 10 10 0 38
BITMAP
1E00
7F80
7F80
E1C0
E0C0
C0C0
E1C0
7380
7F80
1E00
ENDCHAR
STARTCHAR 02DB
ENCODING 731
SWIDTH 180 0
DWIDTH 9 0
BBX 9 10 0 -9
BITMAP
0F00
3C00
7000
6000
E000
E000
E000
F380
7F80
3F00
ENDCHAR
STARTCHAR 02DC
ENCODING 732
SWIDTH 220 0
DWIDTH 11 0
BBX 12 4 0 40
BITMAP
FC10
FFF0
FFF0
03E0
ENDCHAR
STARTCHAR 02DD
ENCODING 733
SWIDTH 320 0
DWIDTH 16 0
BBX 16 7 0 38
BITMAP
0F0F
1E0F
1C1E
3C1C
7838
7078
E070
ENDCHAR
STARTCHAR 0300
ENCODING 768
SWIDTH 0 0
DWIDTH 0 0
BBX 8 7 -8 38
BITMAP
F0
78
38
3C
1E
0E
07
ENDCHAR
STARTCHAR 0301
ENCODING 769
SWIDTH 0 0
DWIDTH 0 0
BBX 7 7 -7 38
BITMAP
1E
3C
3C
78
70
E0
E0
ENDCHAR
STARTCHAR 0302
ENCODING 770
SWIDTH 0 0
DWIDTH 0 0
BBX 15 7 -15 38
BITMAP
07C0
0FE0
1FF0
3EF0
3C78
783C
F01E
ENDCHAR
STARTCHAR 0303
ENCODING 771
SWIDTH 0 0
DWIDTH 0 0
BBX 12 4 -12 40
BITMAP
FC10
FFF0
FFF0
03F0
ENDCHAR
STARTCHAR 0304
ENCODING 772
SWIDTH 0 0
DWIDTH 0 0
BBX 14 3 -14 40
BITMAP
FFFC
FFFC
FFFC
ENDCHAR
STARTCHAR 0306
ENCODING 774
SWIDTH 0 0
DWIDTH 0 0
BBX 14 7 -14 38
BITMAP
E01C
F01C
703C
7878
3FF8
1FF0
07C0
ENDCHAR
STARTCHAR 0307
ENCODING 775
SWIDTH 0 0
DWIDTH 0 0
BBX 7 7 -7 39
BITMAP
7C
FE
FE
FE
FE
FE
3C
ENDCHAR
STARTCHAR 0308
ENCODING 776
SWIDTH 0 0
DWIDTH 0 0
BBX 18 8 -18 37
BITMAP
380200
7C0F80
FE1FC0
FE1FC0
FE1FC0
FE1FC0
7C0F80
100300
ENDCHAR
STARTCHAR 0309
ENCODING 777
SWIDTH 0 0
DWIDTH 0 0
BBX 4 9 -4 38
BITMAP
70
70
70
70
E0
E0
E0
E0
E0
ENDCHAR
STARTCHAR 030A
ENCODING 778
SWIDTH 0 0
DWIDTH 0 0
BBX 10 10 -10 38
BITMAP
1E00
7F80
7F80
E1C0
C1C0
C1C0
E1C0
7380
7F80
1E00
ENDCHAR
STARTCHAR 030B
ENCODING 779
SWIDTH 0 0
DWIDTH 0 0
BBX 16 7 -16 38
BITMAP
0F0F
1E1E
3C1E
383C
7838
7070
E070
ENDCHAR
STARTCHAR 030C
ENCODING 780
SWIDTH 0 0
DWIDTH 0 0
BBX 15 6 -15 39
BITMAP
F01E
783C
3C78
1EF0
1FE0
0FE0
ENDCHAR
STARTCHAR 031B
ENCODING 795
SWIDTH 0 0
DWIDTH 0 0
BBX 6 7 -6 33
BITMAP
1C
1C
1C
3C
38
F8
E0
ENDCHAR
STARTCHAR 0323
ENCODING 803
SWIDTH 0 0
DWIDTH 0 0
BBX 7 7 -7 -13
BITMAP
38
FC
FE
FE
FE
FE
7C
ENDCHAR
STARTCHAR 0326
ENCODING 806
SWIDTH 0 0
DWIDTH 0 0
BBX 7 8 -7 -11
BITMAP
1E
3C
3C
38
78
70
F0
E0
ENDCHAR
STARTCHAR 0327
ENCODING 807
SWIDTH 0 0
DWIDTH 0 0
BBX 11 11 -11 -11
BITMAP
0700
0700
0780
03C0
00E0
00E0
60E0
F0E0
7FC0
3FC0
0F00
ENDCHAR
STARTCHAR 0328
ENCODING 808
SWIDTH 0 0
DWIDTH 0 0
BBX 10 10 -10 -9
BITMAP
0700
3C00
7800
7000
E000
E000
E000
73C0
7F80
3F00
ENDCHAR
STARTCHAR 0335
ENCODING 821
SWIDTH 0 0
DWIDTH 0 0
BBX 16 4 -16 9
BITMAP
FFFF
FFFF
FFFF
FFFF
ENDCHAR
STARTCHAR 1EA0
ENCODING 7840
SWIDTH 540 0
DWIDTH 27 0
BBX 25 49 2 -13
BITMAP
00780000
03FF0000
0FFFC000
1FFFE000
1FFFF000
3F03F000
3E01F800
7C00F800
7C00F800
7C007800
78007C00
78007C00
F8007C00
F8007C00
F8007C00
F8007C00
F8007C00
F8007C00
F8007C00
F8007C00
F8007C00
F8007C00
F8007C00
F8007C00
F8007C00
F8007C00
F8007C00
F8007C00
F8007C00
F8007C00
F8007C00
F8007C00
FFFFFF80
FFFFFF80
FFFFFF80
FFFFFF80
00000000
00000000
00000000
00000000
00000000
00000000
00380000
00FC0000
00FE0000
01FE0000
01FE0000
00FC0000
007C0000
ENDCHAR
STARTCHAR 1EA1
ENCODING 7841
SWIDTH 540 0
DWIDTH 27 0
BBX 25 49 2 -13
BITMAP
00780000
03FF0000
0FFFC000
1FFFE000
1FFFF000
3F03F000
3E01F800
7C00F800
7C00F800
7C007800
78007C00
78007C00
F8007C00
F8007C00
F8007C00
F8007C00
F8007C00
F8007C00
F8007C00
F8007C00
F8007C00
F8007C00
F8007C00
F8007C00
F8007C00
F8007C00
F8007C00
F8007C00
F8007C00
F8007C00
F8007C00
F8007C00
FFFFFF80
FFFFFF80
FFFFFF80
FFFFFF80
00000000
00000000
00000000
00000000
00000000
00000000
00380000
00FC0000
00FE0000
01FE0000
01FE0000
00FC0000
007C0000
ENDCHAR
STARTCHAR 1EA2
ENCODING 7842
SWIDTH 540 0
DWIDTH 27 0
BBX 25 47 2 0
BITMAP
00380000
00380000
00380000
00380000
00700000
00700000
00700000
00700000
00700000
00000000
00000000
00780000
03FF0000
0FFFC000
1FFFE000
1FFFF000
3F03F000
3E01F800
7C00F800
7C00F800
7C007800
78007C00
78007C00
F8007C00
F8007C00
F8007C00
F8007C00
F8007C00
F8007C00
F8007C00
F8007C00
F8007C00
F8007C00
F8007C00
F8007C00
F8007C00
F8007C00
F8007C00
F8007C00
F8007C00
F8007C00
F8007C00
F8007C00
FFFFFF80
FFFFFF80
FFFFFF80
FFFFFF80
ENDCHAR
STARTCHAR 1EA3
ENCODING 7843
SWIDTH 540 0
DWIDTH 27 0
BBX 25 47 2 0
BITMAP
00380000
00380000
00380000
00380000
00700000
00700000
00700000
00700000
00700000
00000000
00000000
00780000
03FF0000
0FFFC000
1FFFE000
1FFFF000
3F03F000
3E01F800
7C00F800
7C00F800
7C007800
78007C00
78007C00
F8007C00
F8007C00
F8007C00
F8007C00
F8007C00
F8007C00
F8007C00
F8007C00
F8007C00
F8007C00
F8007C00
F8007C00
F8007C00
F8007C00
F8007C00
F8007C00
F8007C00
F8007C00
F8007C00
F8007C00
FFFFFF80
FFFFFF80
FFFFFF80
FFFFFF80
ENDCHAR
STARTCHAR 1EA4
ENCODING 7844
SWIDTH 540 0
DWIDTH 27 0
BBX 25 49 2 0
BITMAP
00000780
00000F00
00001E00
00001C00
007C3C00
00FC3800
01FE7000
03CF0000
07C78000
0787C000
0F03C000
00000000
00000000
00780000
03FF0000
0FFFC000
1FFFE000
1FFFF000
3F03F000
3E01F800
7C00F800
7C00F800
7C007800
78007C00
78007C00
F8007C00
F8007C00
F8007C00
F8007C00
F8007C00
F8007C00
F8007C00
F8007C00
F8007C00
F8007C00
F8007C00
F8007C00
F8007C00
F8007C00
F8007C00
F8007C00
F8007C00
F8007C00
F8007C00
F8007C00
FFFFFF80
FFFFFF80
FFFFFF80
FFFFFF80
ENDCHAR
STARTCHAR 1EA5
ENCODING 7845
SWIDTH 540 0
DWIDTH 27 0
BBX 25 49 2 0
BITMAP
00000780
00000F00
00001E00
00001C00
007C3C00
00FC3800
01FE7000
03CF0000
07C78000
0787C000
0F03C000
00000000
00000000
00780000
03FF0000
0FFFC000
1FFFE000
1FFFF000
3F03F000
3E01F800
7C00F800
7C00F800
7C007800
78007C00
78007C00
F8007C00
F8007C00
F8007C00
F8007C00
F8007C00
F8007C00
F8007C00
F8007C00
F8007C00
F8007C00
F8007C00
F8007C00
F8007C00
F8007C00
F8007C00
F8007C00
F8007C00
F8007C00
F8007C00
F8007C00
FFFFFF80
FFFFFF80
FFFFFF80
FFFFFF80
ENDCHAR
STARTCHAR 1EA6
ENCODING 7846
SWIDTH 540 0
DWIDTH 27 0
BBX 28 49 -1 0
BITMAP
F0000000
F0000000
78000000
38000000
1C0F8000
1C1F8000
0E3FC000
0079E000
00F8F000
00F0F800
01E07800
00000000
00000000
000F0000
007FE000
01FFF800
03FFFC00
03FFFE00
07E07E00
07C03F00
0F801F00
0F801F00
0F800F00
0F000F80
0F000F80
1F000F80
1F000F80
1F000F80
1F000F80
1F000F80
1F000F80
1F000F80
1F000F80
1F000F80
1F000F80
1F000F80
1F000F80
1F000F80
1F000F80
1F000F80
1F000F80
1F000F80
1F000F80
1F000F80
1F000F80
1FFFFFF0
1FFFFFF0
1FFFFFF0
1FFFFFF0
ENDCHAR
STARTCHAR 1EA7
ENCODING 7847
SWIDTH 540 0
DWIDTH 27 0
BBX 28 49 -1 0
BITMAP
F0000000
F0000000
78000000
38000000
1C0F8000
1C1F8000
0E3FC000
0079E000
00F8F000
00F0F800
01E07800
00000000
00000000
000F0000
007FE000
01FFF800
03FFFC00
03FFFE00
07E07E00
07C03F00
0F801F00
0F801F00
0F800F00
0F000F80
0F000F80
1F000F80
1F000F80
1F000F80
1F000F80
1F000F80
1F000F80
1F000F80
1F000F80
1F000F80
1F000F80
1F000F80
1F000F80
1F000F80
1F000F80
1F000F80
1F000F80
1F000F80
1F000F80
1F000F80
1F000F80
1FFFFFF0
1FFFFFF0
1FFFFFF0
1FFFFFF0
ENDCHAR
STARTCHAR 1EA8
ENCODING 7848
SWIDTH 540 0
DWIDTH 27 0
BBX 25 51 2 0
BITMAP
00003800
00003800
00003800
00003800
00007000
00007000
007C7000
00FC7000
01FE3800
03CF0000
07C78000
0787C000
0F03C000
00000000
00000000
00780000
03FF0000
0FFFC000
1FFFE000
1FFFF000
3F03F000
3E01F800
7C00F800
7C00F800
7C007800
78007C00
78007C00
F8007C00
F8007C00
F8007C00
F8007C00
F8007C00
F8007C00
F8007C00
F8007C00
F8007C00
F8007C00
F8007C00
F8007C00
F8007C00
F8007C00
F8007C00
F8007C00
F8007C00
F8007C00
F8007C00
F8007C00
FFFFFF80
FFFFFF80
FFFFFF80
FFFFFF80
ENDCHAR
STARTCHAR 1EA9
ENCODING 7849
SWIDTH 540 0
DWIDTH 27 0
BBX 25 51 2 0
BITMAP
00003800
00003800
00003800
00003800
00007000
00007000
007C7000
00FC7000
01FE3800
03CF0000
07C78000
0787C000
0F03C000
00000000
00000000
00780000
03FF0000
0FFFC000
1FFFE000
1FFFF000
3F03F000
3E01F800
7C00F800
7C00F800
7C007800
78007C00
78007C00
F8007C00
F8007C00
F8007C00
F8007C00
F8007C00
F8007C00
F8007C00
F8007C00
F8007C00
F8007C00
F8007C00
F8007C00
F8007C00
F8007C00
F8007C00
F8007C00
F8007C00
F8007C00
F8007C00
F8007C00
FFFFFF80
FFFFFF80
FFFFFF80
FFFFFF80
ENDCHAR
STARTCHAR 1EAA
ENCODING 7850
SWIDTH 540 0
DWIDTH 27 0
BBX 25 50 2 0
BITMAP
000F0000
001FFE00
001FFE00
0010FE00
00000000
007C0000
00FC0000
01FE0000
03CF0000
07C78000
0787C000
0F03C000
00000000
00000000
00780000
03FF0000
0FFFC000
1FFFE000
1FFFF000
3F03F000
3E01F800
7C00F800
7C00F800
7C007800
78007C00
78007C00
F8007C00
F8007C00
F8007C00
F8007C00
F8007C00
F8007C00
F8007C00
F8007C00
F8007C00
F8007C00
F8007C00
F8007C00
F8007C00
F8007C00
F8007C00
F8007C00
F8007C00
F8007C00
F8007C00
F8007C00
FFFFFF80
FFFFFF80
FFFFFF80
FFFFFF80
ENDCHAR
STARTCHAR 1EAB
ENCODING 7851
SWIDTH 540 0
DWIDTH 27 0
BBX 25 50 2 0
BITMAP
000F0000
001FFE00
001FFE00
0010FE00
00000000
007C0000
00FC0000
01FE0000
03CF0000
07C78000
0787C000
0F03C000
00000000
00000000
00780000
03FF0000
0FFFC000
1FFFE000
1FFFF000
3F03F000
3E01F800
7C00F800
7C00F800
7C007800
78007C00
78007C00
F8007C00
F8007C00
F8007C00
F8007C00
F8007C00
F8007C00
F8007C00
F8007C00
F8007C00
F8007C00
F8007C00
F8007C00
F8007C00
F8007C00
F8007C00
F8007C00
F8007C00
F8007C00
F8007C00
F8007C00
FFFFFF80
FFFFFF80
FFFFFF80
FFFFFF80
ENDCHAR
STARTCHAR 1EAC
ENCODING 7852
SWIDTH 540 0
DWIDTH 27 0
BBX 25 58 2 -13
BITMAP
007C0000
00FC0000
01FE0000
03CF0000
07C78000
0787C000
0F03C000
00000000
00000000
00780000
03FF0000
0FFFC000
1FFFE000
1FFFF000
3F03F000
3E01F800
7C00F800
7C00F800
7C007800
78007C00
78007C00
F8007C00
F8007C00
F8007C00
F8007C00
F8007C00
F8007C00
F8007C00
F8007C00
F8007C00
F8007C00
F8007C00
F8007C00
F8007C00
F8007C00
F8007C00
F8007C00
F8007C00
F8007C00
F8007C00
F8007C00
FFFFFF80
FFFFFF80
FFFFFF80
FFFFFF80
00000000
00000000
00000000
00000000
00000000
00000000
00380000
00FC0000
00FE0000
01FE0000
01FE0000
00FC0000
007C0000
ENDCHAR
STARTCHAR 1EAD
ENCODING 7853
SWIDTH 540 0
DWIDTH 27 0
BBX 25 58 2 -13
BITMAP
007C0000
00FC0000
01FE0000
03CF0000
07C78000
0787C000
0F03C000
00000000
00000000
00780000
03FF0000
0FFFC000
1FFFE000
1FFFF000
3F03F000
3E01F800
7C00F800
7C00F800
7C007800
78007C00
78007C00
F8007C00
F8007C00
F8007C00
F8007C00
F8007C00
F8007C00
F8007C00
F8007C00
F8007C00
F8007C00
F8007C00
F8007C00
F8007C00
F8007C00
F8007C00
F8007C00
F8007C00
F8007C00
F8007C00
F8007C00
FFFFFF80
FFFFFF80
FFFFFF80
FFFFFF80
00000000
00000000
00000000
00000000
00000000
00000000
00380000
00FC0000
00FE0000
01FE0000
01FE0000
00FC0000
007C0000
ENDCHAR
STARTCHAR 1EAE
ENCODING 7854
SWIDTH 540 0
DWIDTH 27 0
BBX 25 51 2 0
BITMAP
00078000
000F0000
000E0000
001E0000
001C0000
00380000
0E71C000
0F01C000
0703C000
07878000
03FF0000
01FE0000
00FC0000
00000000
00000000
00780000
03FF0000
0FFFC000
1FFFE000
1FFFF000
3F03F000
3E01F800
7C00F800
7C00F800
7C007800
78007C00
78007C00
F8007C00
F8007C00
F8007C00
F8007C00
F8007C00
F8007C00
F8007C00
F8007C00
F8007C00
F8007C00
F8007C00
F8007C00
F8007C00
F8007C00
F8007C00
F8007C00
F8007C00
F8007C00
F8007C00
F8007C00
FFFFFF80
FFFFFF80
FFFFFF80
FFFFFF80
ENDCHAR
STARTCHAR 1EAF
ENCODING 7855
SWIDTH 540 0
DWIDTH 27 0
BBX 25 51 2 0
BITMAP
00078000
000F0000
000E0000
001E0000
001C0000
00380000
0E71C000
0F01C000
0703C000
07878000
03FF0000
01FE0000
00FC0000
00000000
00000000
00780000
03FF0000
0FFFC000
1FFFE000
1FFFF000
3F03F000
3E01F800
7C00F800
7C00F800
7C007800
78007C00
78007C00
F8007C00
F8007C00
F8007C00
F8007C00
F8007C00
F8007C00
F8007C00
F8007C00
F8007C00
F8007C00
F8007C00
F8007C00
F8007C00
F8007C00
F8007C00
F8007C00
F8007C00
F8007C00
F8007C00
F8007C00
FFFFFF80
FFFFFF80
FFFFFF80
FFFFFF80
ENDCHAR
STARTCHAR 1EB0
ENCODING 7856
SWIDTH 540 0
DWIDTH 27 0
BBX 25 51 2 0
BITMAP
0F000000
07800000
03C00000
01C00000
01E00000
00E00000
0E71C000
0E01C000
0703C000
07878000
03FF0000
01FE0000
00FC0000
00000000
00000000
00780000
03FF0000
0FFFC000
1FFFE000
1FFFF000
3F03F000
3E01F800
7C00F800
7C00F800
7C007800
78007C00
78007C00
F8007C00
F8007C00
F8007C00
F8007C00
F8007C00
F8007C00
F8007C00
F8007C00
F8007C00
F8007C00
F8007C00
F8007C00
F8007C00
F8007C00
F8007C00
F8007C00
F8007C00
F8007C00
F8007C00
F8007C00
FFFFFF80
FFFFFF80
FFFFFF80
FFFFFF80
ENDCHAR
STARTCHAR 1EB1
ENCODING 7857
SWIDTH 540 0
DWIDTH 27 0
BBX 25 51 2 0
BITMAP
0F000000
07800000
03C00000
01C00000
01E00000
00E00000
0E71C000
0E01C000
0703C000
07878000
03FF0000
01FE0000
00FC0000
00000000
00000000
00780000
03FF0000
0FFFC000
1FFFE000
1FFFF000
3F03F000
3E01F800
7C00F800
7C00F800
7C007800
78007C00
78007C00
F8007C00
F8007C00
F8007C00
F8007C00
F8007C00
F8007C00
F8007C00
F8007C00
F8007C00
F8007C00
F8007C00
F8007C00
F8007C00
F8007C00
F8007C00
F8007C00
F8007C00
F8007C00
F8007C00
F8007C00
FFFFFF80
FFFFFF80
FFFFFF80
FFFFFF80
ENDCHAR
STARTCHAR 1EB2
ENCODING 7858
SWIDTH 540 0
DWIDTH 27 0
BBX 25 52 2 0
BITMAP
003C0000
001C0000
001C0000
00380000
00380000
00780000
00780000
0E39C000
0F39C000
0703C000
07878000
03FF0000
01FE0000
00FC0000
00000000
00000000
00780000
03FF0000
0FFFC000
1FFFE000
1FFFF000
3F03F000
3E01F800
7C00F800
7C00F800
7C007800
78007C00
78007C00
F8007C00
F8007C00
F8007C00
F8007C00
F8007C00
F8007C00
F8007C00
F8007C00
F8007C00
F8007C00
F8007C00
F8007C00
F8007C00
F8007C00
F8007C00
F8007C00
F8007C00
F8007C00
F8007C00
F8007C00
FFFFFF80
FFFFFF80
FFFFFF80
FFFFFF80
ENDCHAR
STARTCHAR 1EB3
ENCODING 7859
SWIDTH 540 0
DWIDTH 27 0
BBX 25 52 2 0
BITMAP
003C0000
001C0000
001C0000
00380000
00380000
00780000
00780000
0E39C000
0F39C000
0703C000
07878000
03FF0000
01FE0000
00FC0000
00000000
00000000
00780000
03FF0000
0FFFC000
1FFFE000
1FFFF000
3F03F000
3E01F800
7C00F800
7C00F800
7C007800
78007C00
78007C00
F8007C00
F8007C00
F8007C00
F8007C00
F8007C00
F8007C00
F8007C00
F8007C00
F8007C00
F8007C00
F8007C00
F8007C00
F8007C00
F8007C00
F8007C00
F8007C00
F8007C00
F8007C00
F8007C00
F8007C00
FFFFFF80
FFFFFF80
FFFFFF80
FFFFFF80
ENDCHAR
STARTCHAR 1EB4
ENCODING 7860
SWIDTH 540 0
DWIDTH 27 0
BBX 25 50 2 0
BITMAP
07F08000
07FF8000
07FF8000
001F0000
00000000
0E01C000
0F01C000
0703C000
07878000
03FF0000
01FE0000
00FC0000
00000000
00000000
00780000
03FF0000
0FFFC000
1FFFE000
1FFFF000
3F03F000
3E01F800
7C00F800
7C00F800
7C007800
78007C00
78007C00
F8007C00
F8007C00
F8007C00
F8007C00
F8007C00
F8007C00
F8007C00
F8007C00
F8007C00
F8007C00
F8007C00
F8007C00
F8007C00
F8007C00
F8007C00
F8007C00
F8007C00
F8007C00
F8007C00
F8007C00
FFFFFF80
FFFFFF80
FFFFFF80
FFFFFF80
ENDCHAR
STARTCHAR 1EB5
ENCODING 7861
SWIDTH 540 0
DWIDTH 27 0
BBX 25 50 2 0
BITMAP
07F08000
07FF8000
07FF8000
001F0000
00000000
0E01C000
0F01C000
0703C000
07878000
03FF0000
01FE0000
00FC0000
00000000
00000000
00780000
03FF0000
0FFFC000
1FFFE000
1FFFF000
3F03F000
3E01F800
7C00F800
7C00F800
7C007800
78007C00
78007C00
F8007C00
F8007C00
F8007C00
F8007C00
F8007C00
F8007C00
F8007C00
F8007C00
F8007C00
F8007C00
F8007C00
F8007C00
F8007C00
F8007C00
F8007C00
F8007C00
F8007C00
F8007C00
F8007C00
F8007C00
FFFFFF80
FFFFFF80
FFFFFF80
FFFFFF80
ENDCHAR
STARTCHAR 1EB6
ENCODING 7862
SWIDTH 540 0
DWIDTH 27 0
BBX 25 58 2 -13
BITMAP
0E01C000
0F01C000
0703C000
07878000
03FF0000
01FE0000
00FC0000
00000000
00000000
00780000
03FF0000
0FFFC000
1FFFE000
1FFFF000
3F03F000
3E01F800
7C00F800
7C00F800
7C007800
78007C00
78007C00
F8007C00
F8007C00
F8007C00
F8007C00
F8007C00
F8007C00
F8007C00
F8007C00
F8007C00
F8007C00
F8007C00
F8007C00
F8007C00
F8007C00
F8007C00
F8007C00
F8007C00
F8007C00
F8007C00
F8007C00
FFFFFF80
FFFFFF80
FFFFFF80
FFFFFF80
00000000
00000000
00000000
00000000
00000000
00000000
00380000
00FC0000
00FE0000
01FE0000
01FE0000
00FC0000
007C0000
ENDCHAR
STARTCHAR 1EB7
ENCODING 7863
SWIDTH 540 0
DWIDTH 27 0
BBX 25 58 2 -13
BITMAP
0E01C000
0F01C000
0703C000
07878000
03FF0000
01FE0000
00FC0000
00000000
00000000
00780000
03FF0000
0FFFC000
1FFFE000
1FFFF000
3F03F000
3E01F800
7C00F800
7C00F800
7C007800
78007C00
78007C00
F8007C00
F8007C00
F8007C00
F8007C00
F8007C00
F8007C00
F8007C00
F8007C00
F8007C00
F8007C00
F8007C00
F8007C00
F8007C00
F8007C00
F8007C00
F8007C00
F8007C00
F8007C00
F8007C00
F8007C00
FFFFFF80
FFFFFF80
FFFFFF80
FFFFFF80
00000000
00000000
00000000
00000000
00000000
00000000
00380000
00FC0000
00FE0000
01FE0000
01FE0000
00FC0000
007C0000
ENDCHAR
STARTCHAR 1EB8
ENCODING 7864
SWIDTH 480 0
DWIDTH 24 0
BBX 24 48 1 -13
BITMAP
0FFFC0
0FFFC0
0FFFC0
0FFFC0
0F0000
0F0000
0F0000
0F0000
0F0000
0F0000
0F0000
0F0000
0F0000
0F0000
0F0000
FFFFF0
FFFFF0
FFFFF0
FFFFF0
FFFFF0
0F0000
0F0000
0F0000
0F0000
0F0000
0F0000
0F0000
0F0000
0F0000
0F0000
0F0000
0FFFFF
0FFFFF
0FFFFF
0FFFFF
000000
000000
000000
000000
000000
000000
000700
001F80
001FC0
003FC0
003FC0
001F80
000F80
ENDCHAR
STARTCHAR 1EB9
ENCODING 7865
SWIDTH 480 0
DWIDTH 24 0
BBX 24 48 1 -13
BITMAP
0FFFC0
0FFFC0
0FFFC0
0FFFC0
0F0000
0F0000
0F0000
0F0000
0F0000
0F0000
0F0000
0F0000
0F0000
0F0000
0F0000
FFFFF0
FFFFF0
FFFFF0
FFFFF0
FFFFF0
0F0000
0F0000
0F0000
0F0000
0F0000
0F0000
0F0000
0F0000
0F0000
0F0000
0F0000
0FFFFF
0FFFFF
0FFFFF
0FFFFF
000000
000000
000000
000000
000000
000000
000700
001F80
001FC0
003FC0
003FC0
001F80
000F80
ENDCHAR
STARTCHAR 1EBA
ENCODING 7866
SWIDTH 480 0
DWIDTH 24 0
BBX 24 47 1 0
BITMAP
007000
003800
003800
007000
007000
00F000
00E000
007000
007000
000000
000000
000000
0FFFC0
0FFFC0
0FFFC0
0FFFC0
0F0000
0F0000
0F0000
0F0000
0F0000
0F0000
0F0000
0F0000
0F0000
0F0000
0F0000
FFFFF0
FFFFF0
FFFFF0
FFFFF0
FFFFF0
0F0000
0F0000
0F0000
0F0000
0F0000
0F0000
0F0000
0F0000
0F0000
0F0000
0F0000
0FFFFF
0FFFFF
0FFFFF
0FFFFF
ENDCHAR
STARTCHAR 1EBB
ENCODING 7867
SWIDTH 480 0
DWIDTH 24 0
BBX 24 47 1 0
BITMAP
007000
003800
003800
007000
007000
00F000
00E000
007000
007000
000000
000000
000000
0FFFC0
0FFFC0
0FFFC0
0FFFC0
0F0000
0F0000
0F0000
0F0000
0F0000
0F0000
0F0000
0F0000
0F0000
0F0000
0F0000
FFFFF0
FFFFF0
FFFFF0
FFFFF0
FFFFF0
0F0000
0F0000
0F0000
0F0000
0F0000
0F0000
0F0000
0F0000
0F0000
0F0000
0F0000
0FFFFF
0FFFFF
0FFFFF
0FFFFF
ENDCHAR
STARTCHAR 1EBC
ENCODING 7868
SWIDTH 480 0
DWIDTH 24 0
BBX 24 44 1 0
BITMAP
0FC100
0FFF00
0FFF00
003E00
000000
000000
000000
000000
000000
0FFFC0
0FFFC0
0FFFC0
0FFFC0
0F0000
0F0000
0F0000
0F0000
0F0000
0F0000
0F0000
0F0000
0F0000
0F0000
0F0000
FFFFF0
FFFFF0
FFFFF0
FFFFF0
FFFFF0
0F0000
0F0000
0F0000
0F0000
0F0000
0F0000
0F0000
0F0000
0F0000
0F0000
0F0000
0FFFFF
0FFFFF
0FFFFF
0FFFFF
ENDCHAR
STARTCHAR 1EBD
ENCODING 7869
SWIDTH 480 0
DWIDTH 24 0
BBX 24 44 1 0
BITMAP
0FC100
0FFF00
0FFF00
003E00
000000
000000
000000
000000
000000
0FFFC0
0FFFC0
0FFFC0
0FFFC0
0F0000
0F0000
0F0000
0F0000
0F0000
0F0000
0F0000
0F0000
0F0000
0F0000
0F0000
FFFFF0
FFFFF0
FFFFF0
FFFFF0
FFFFF0
0F0000
0F0000
0F0000
0F0000
0F0000
0F0000
0F0000
0F0000
0F0000
0F0000
0F0000
0FFFFF
0FFFFF
0FFFFF
0FFFFF
ENDCHAR
STARTCHAR 1EBE
ENCODING 7870
SWIDTH 480 0
DWIDTH 24 0
BBX 24 49 1 0
BITMAP
00000F
00000E
00001E
00003C
00F838
01FC70
01FE70
03DF00
078F00
0F0780
1E03C0
000000
000000
000000
0FFFC0
0FFFC0
0FFFC0
0FFFC0
0F0000
0F0000
0F0000
0F0000
0F0000
0F0000
0F0000
0F0000
0F0000
0F0000
0F0000
FFFFF0
FFFFF0
FFFFF0
FFFFF0
FFFFF0
0F0000
0F0000
0F0000
0F0000
0F0000
0F0000
0F0000
0F0000
0F0000
0F0000
0F0000
0FFFFF
0FFFFF
0FFFFF
0FFFFF
ENDCHAR
STARTCHAR 1EBF
ENCODING 7871
SWIDTH 480 0
DWIDTH 24 0
BBX 24 49 1 0
BITMAP
00000F
00000E
00001E
00003C
00F838
01FC70
01FE70
03DF00
078F00
0F0780
1E03C0
000000
000000
000000
0FFFC0
0FFFC0
0FFFC0
0FFFC0
0F0000
0F0000
0F0000
0F0000
0F0000
0F0000
0F0000
0F0000
0F0000
0F0000
0F0000
FFFFF0
FFFFF0
FFFFF0
FFFFF0
FFFFF0
0F0000
0F0000
0F0000
0F0000
0F0000
0F0000
0F0000
0F0000
0F0000
0F0000
0F0000
0FFFFF
0FFFFF
0FFFFF
0FFFFF
ENDCHAR
STARTCHAR 1EC0
ENCODING 7872
SWIDTH 480 0
DWIDTH 24 0
BBX 28 49 -3 0
BITMAP
F0000000
78000000
38000000
3C000000
1C0F8000
0E1FC000
071FE000
003DF000
0078F000
00F07800
01E03C00
00000000
00000000
00000000
00FFFC00
00FFFC00
00FFFC00
00FFFC00
00F00000
00F00000
00F00000
00F00000
00F00000
00F00000
00F00000
00F00000
00F00000
00F00000
00F00000
0FFFFF00
0FFFFF00
0FFFFF00
0FFFFF00
0FFFFF00
00F00000
00F00000
00F00000
00F00000
00F00000
00F00000
00F00000
00F00000
00F00000
00F00000
00F00000
00FFFFF0
00FFFFF0
00FFFFF0
00FFFFF0
ENDCHAR
STARTCHAR 1EC1
ENCODING 7873
SWIDTH 480 0
DWIDTH 24 0
BBX 28 49 -3 0
BITMAP
F0000000
78000000
38000000
3C000000
1C0F8000
0E1FC000
071FE000
003DF000
0078F000
00F07800
01E03C00
00000000
00000000
00000000
00FFFC00
00FFFC00
00FFFC00
00FFFC00
00F00000
00F00000
00F00000
00F00000
00F00000
00F00000
00F00000
00F00000
00F00000
00F00000
00F00000
0FFFFF00
0FFFFF00
0FFFFF00
0FFFFF00
0FFFFF00
00F00000
00F00000
00F00000
00F00000
00F00000
00F00000
00F00000
00F00000
00F00000
00F00000
00F00000
00FFFFF0
00FFFFF0
00FFFFF0
00FFFFF0
ENDCHAR
STARTCHAR 1EC2
ENCODING 7874
SWIDTH 480 0
DWIDTH 24 0
BBX 24 51 1 0
BITMAP
000038
000038
000038
000078
000070
000070
00F870
01FC70
01FE70
03DF00
078F00
0F0780
1E03C0
000000
000000
000000
0FFFC0
0FFFC0
0FFFC0
0FFFC0
0F0000
0F0000
0F0000
0F0000
0F0000
0F0000
0F0000
0F0000
0F0000
0F0000
0F0000
FFFFF0
FFFFF0
FFFFF0
FFFFF0
FFFFF0
0F0000
0F0000
0F0000
0F0000
0F0000
0F0000
0F0000
0F0000
0F0000
0F0000
0F0000
0FFFFF
0FFFFF
0FFFFF
0FFFFF
ENDCHAR
STARTCHAR 1EC3
ENCODING 7875
SWIDTH 480 0
DWIDTH 24 0
BBX 24 51 1 0
BITMAP
000038
000038
000038
000078
000070
000070
00F870
01FC70
01FE70
03DF00
078F00
0F0780
1E03C0
000000
000000
000000
0FFFC0
0FFFC0
0FFFC0
0FFFC0
0F0000
0F0000
0F0000
0F0000
0F0000
0F0000
0F0000
0F0000
0F0000
0F0000
0F0000
FFFFF0
FFFFF0
FFFFF0
FFFFF0
FFFFF0
0F0000
0F0000
0F0000
0F0000
0F0000
0F0000
0F0000
0F0000
0F0000
0F0000
0F0000
0FFFFF
0FFFFF
0FFFFF
0FFFFF
ENDCHAR
STARTCHAR 1EC4
ENCODING 7876
SWIDTH 480 0
DWIDTH 24 0
BBX 24 50 1 0
BITMAP
001F00
003FFC
003FFC
0020FC
000000
00F800
01FC00
01FE00
03DF00
078F00
0F0780
1E03C0
000000
000000
000000
0FFFC0
0FFFC0
0FFFC0
0FFFC0
0F0000
0F0000
0F0000
0F0000
0F0000
0F0000
0F0000
0F0000
0F0000
0F0000
0F0000
FFFFF0
FFFFF0
FFFFF0
FFFFF0
FFFFF0
0F0000
0F0000
0F0000
0F0000
0F0000
0F0000
0F0000
0F0000
0F0000
0F0000
0F0000
0FFFFF
0FFFFF
0FFFFF
0FFFFF
ENDCHAR
STARTCHAR 1EC5
ENCODING 7877
SWIDTH 480 0
DWIDTH 24 0
BBX 24 50 1 0
BITMAP
001F00
003FFC
003FFC
0020FC
000000
00F800
01FC00
01FE00
03DF00
078F00
0F0780
1E03C0
000000
000000
000000
0FFFC0
0FFFC0
0FFFC0
0FFFC0
0F0000
0F0000
0F0000
0F0000
0F0000
0F0000
0F0000
0F0000
0F0000
0F0000
0F0000
FFFFF0
FFFFF0
FFFFF0
FFFFF0
FFFFF0
0F0000
0F0000
0F0000
0F0000
0F0000
0F0000
0F0000
0F0000
0F0000
0F0000
0F0000
0FFFFF
0FFFFF
0FFFFF
0FFFFF
ENDCHAR
STARTCHAR 1EC6
ENCODING 7878
SWIDTH 480 0
DWIDTH 24 0
BBX 24 58 1 -13
BITMAP
00F800
01FC00
01FE00
03DF00
078F00
0F0780
1E03C0
000000
000000
000000
0FFFC0
0FFFC0
0FFFC0
0FFFC0
0F0000
0F0000
0F0000
0F0000
0F0000
0F0000
0F0000
0F0000
0F0000
0F0000
0F0000
FFFFF0
FFFFF0
FFFFF0
FFFFF0
FFFFF0
0F0000
0F0000
0F0000
0F0000
0F0000
0F0000
0F0000
0F0000
0F0000
0F0000
0F0000
0FFFFF
0FFFFF
0FFFFF
0FFFFF
000000
000000
000000
000000
000000
000000
000700
001F80
001FC0
003FC0
003FC0
001F80
000F80
ENDCHAR
STARTCHAR 1EC7
ENCODING 7879
SWIDTH 480 0
DWIDTH 24 0
BBX 24 58 1 -13
BITMAP
00F800
01FC00
01FE00
03DF00
078F00
0F0780
1E03C0
000000
000000
000000
0FFFC0
0FFFC0
0FFFC0
0FFFC0
0F0000
0F0000
0F0000
0F0000
0F0000
0F0000
0F0000
0F0000
0F0000
0F0000
0F0000
FFFFF0
FFFFF0
FFFFF0
FFFFF0
FFFFF0
0F0000
0F0000
0F0000
0F0000
0F0000
0F0000
0F0000
0F0000
0F0000
0F0000
0F0000
0FFFFF
0FFFFF
0FFFFF
0FFFFF
000000
000000
000000
000000
000000
000000
000700
001F80
001FC0
003FC0
003FC0
001F80
000F80
ENDCHAR
STARTCHAR 1EC8
ENCODING 7880
SWIDTH 200 0
DWIDTH 10 0
BBX 4 34 3 0
BITMAP
70
70
70
70
E0
E0
E0
E0
E0
F0
00
00
F0
F0
F0
F0
F0
F0
F0
F0
F0
F0
F0
F0
F0
F0
F0
F0
F0
F0
F0
F0
F0
F0
ENDCHAR
STARTCHAR 1EC9
ENCODING 7881
SWIDTH 200 0
DWIDTH 10 0
BBX 4 34 3 0
BITMAP
70
70
70
70
E0
E0
E0
E0
E0
F0
00
00
F0
F0
F0
F0
F0
F0
F0
F0
F0
F0
F0
F0
F0
F0
F0
F0
F0
F0
F0
F0
F0
F0
ENDCHAR
STARTCHAR 1ECA
ENCODING 7882
SWIDTH 180 0
DWIDTH 9 0
BBX 12 52 -1 -12
BITMAP
0400
0600
0600
0E00
FFF0
7FC0
1F80
1F80
1F80
3980
3080
0040
0000
0000
0000
0000
0000
1F00
1F00
1F00
1F00
1F00
1F00
1F00
1F00
1F00
1F00
1F00
1F00
1F00
1F00
1F00
1F00
1F00
1F00
1F00
1F00
1F00
1F00
0000
0000
0000
0000
0000
0000
0E00
1F80
3F80
3F80
3F80
3F80
1F00
ENDCHAR
STARTCHAR 1ECB
ENCODING 7883
SWIDTH 180 0
DWIDTH 9 0
BBX 12 52 -1 -12
BITMAP
0400
0600
0600
0E00
FFF0
7FC0
1F80
1F80
1F80
3980
3080
0040
0000
0000
0000
0000
0000
1F00
1F00
1F00
1F00
1F00
1F00
1F00
1F00
1F00
1F00
1F00
1F00
1F00
1F00
1F00
1F00
1F00
1F00
1F00
1F00
1F00
1F00
0000
0000
0000
0000
0000
0000
0E00
1F80
3F80
3F80
3F80
3F80
1F00
ENDCHAR
STARTCHAR 1ECC
ENCODING 7884
SWIDTH 800 0
DWIDTH 40 0
BBX 37 49 2 -13
BITMAP
0000FC0000
001FFF8000
007FFFF000
01FFFFF800
03FFFFFE00
07F801FF00
0FE0007F80
1FC0001F80
1F80000FC0
3F000007E0
7E000003E0
7C000001F0
7C000001F0
F8000000F0
F8000000F8
F8000000F8
F8000000F8
F8000000F8
F0000000F8
F0000000F8
F8000000F8
F8000000F8
F8000000F8
F8000000F0
7C000001F0
7C000001F0
7E000003E0
3F000007E0
1F80000FC0
1FC0001FC0
0FE0003F80
07F801FF00
03FFFFFE00
00FFFFF800
007FFFF000
001FFFC000
0000F80000
0000000000
0000000000
0000000000
0000000000
0000000000
0000700000
0001F80000
0001FC0000
0001FC0000
0001FC0000
0001FC0000
0000F80000
ENDCHAR
STARTCHAR 1ECD
ENCODING 7885
SWIDTH 800 0
DWIDTH 40 0
BBX 37 49 2 -13
BITMAP
0000FC0000
001FFF8000
007FFFF000
01FFFFF800
03FFFFFE00
07F801FF00
0FE0007F80
1FC0001F80
1F80000FC0
3F000007E0
7E000003E0
7C000001F0
7C000001F0
F8000000F0
F8000000F8
F8000000F8
F8000000F8
F8000000F8
F0000000F8
F0000000F8
F8000000F8
F8000000F8
F8000000F8
F8000000F0
7C000001F0
7C000001F0
7E000003E0
3F000007E0
1F80000FC0
1FC0001FC0
0FE0003F80
07F801FF00
03FFFFFE00
00FFFFF800
007FFFF000
001FFFC000
0000F80000
0000000000
0000000000
0000000000
0000000000
0000000000
0000700000
0001F80000
0001FC0000
0001FC0000
0001FC0000
0001FC0000
0000F80000
ENDCHAR
STARTCHAR 1ECE
ENCODING 7886
SWIDTH 800 0
DWIDTH 40 0
BBX 37 48 2 -1
BITMAP
0000700000
0000700000
0000700000
0000700000
0000F00000
0000E00000
0000E00000
0000E00000
0000700000
0000000000
0000000000
0000FC0000
001FFF8000
007FFFF000
01FFFFF800
03FFFFFE00
07F801FF00
0FE0007F80
1FC0001F80
1F80000FC0
3F000007E0
7E000003E0
7C000001F0
7C000001F0
F8000000F0
F8000000F8
F8000000F8
F8000000F8
F8000000F8
F0000000F8
F0000000F8
F8000000F8
F8000000F8
F8000000F8
F8000000F0
7C000001F0
7C000001F0
7E000003E0
3F000007E0
1F80000FC0
1FC0001FC0
0FE0003F80
07F801FF00
03FFFFFE00
00FFFFF800
007FFFF000
001FFFC000
0000F80000
ENDCHAR
STARTCHAR 1ECF
ENCODING 7887
SWIDTH 800 0
DWIDTH 40 0
BBX 37 48 2 -1
BITMAP
0000700000
0000700000
0000700000
0000700000
0000F00000
0000E00000
0000E00000
0000E00000
0000700000
0000000000
0000000000
0000FC0000
001FFF8000
007FFFF000
01FFFFF800
03FFFFFE00
07F801FF00
0FE0007F80
1FC0001F80
1F80000FC0
3F000007E0
7E000003E0
7C000001F0
7C000001F0
F8000000F0
F8000000F8
F8000000F8
F8000000F8
F8000000F8
F0000000F8
F0000000F8
F8000000F8
F8000000F8
F8000000F8
F8000000F0
7C000001F0
7C000001F0
7E000003E0
3F000007E0
1F80000FC0
1FC0001FC0
0FE0003F80
07F801FF00
03FFFFFE00
00FFFFF800
007FFFF000
001FFFC000
0000F80000
ENDCHAR
STARTCHAR 1ED0
ENCODING 7888
SWIDTH 800 0
DWIDTH 40 0
BBX 37 50 2 -1
BITMAP
0000000F00
0000001E00
0000001C00
0000003C00
0000F83800
0001FC7000
0003FEE000
0003DE0000
00078F0000
000F078000
001E03C000
0000000000
0000000000
0000FC0000
001FFF8000
007FFFF000
01FFFFF800
03FFFFFE00
07F801FF00
0FE0007F80
1FC0001F80
1F80000FC0
3F000007E0
7E000003E0
7C000001F0
7C000001F0
F8000000F0
F8000000F8
F8000000F8
F8000000F8
F8000000F8
F0000000F8
F0000000F8
F8000000F8
F8000000F8
F8000000F8
F8000000F0
7C000001F0
7C000001F0
7E000003E0
3F000007E0
1F80000FC0
1FC0001FC0
0FE0003F80
07F801FF00
03FFFFFE00
00FFFFF800
007FFFF000
001FFFC000
0000F80000
ENDCHAR
STARTCHAR 1ED1
ENCODING 7889
SWIDTH 800 0
DWIDTH 40 0
BBX 37 50 2 -1
BITMAP
0000000F00
0000001E00
0000001C00
0000003C00
0000F83800
0001FC7000
0003FEE000
0003DE0000
00078F0000
000F078000
001E03C000
0000000000
0000000000
0000FC0000
001FFF8000
007FFFF000
01FFFFF800
03FFFFFE00
07F801FF00
0FE0007F80
1FC0001F80
1F80000FC0
3F000007E0
7E000003E0
7C000001F0
7C000001F0
F8000000F0
F8000000F8
F8000000F8
F8000000F8
F8000000F8
F0000000F8
F0000000F8
F8000000F8
F8000000F8
F8000000F8
F8000000F0
7C000001F0
7C000001F0
7E000003E0
3F000007E0
1F80000FC0
1FC0001FC0
0FE0003F80
07F801FF00
03FFFFFE00
00FFFFF800
007FFFF000
001FFFC000
0000F80000
ENDCHAR
STARTCHAR 1ED2
ENCODING 7890
SWIDTH 800 0
DWIDTH 40 0
BBX 37 50 2 -1
BITMAP
0F00000000
0700000000
0780000000
03C0000000
01C0F80000
00E1FC0000
00E3FE0000
0007DE0000
00078F0000
000F078000
001E03C000
0000000000
0000000000
0000FC0000
001FFF8000
007FFFF000
01FFFFF800
03FFFFFE00
07F801FF00
0FE0007F80
1FC0001F80
1F80000FC0
3F000007E0
7E000003E0
7C000001F0
7C000001F0
F8000000F0
F8000000F8
F8000000F8
F8000000F8
F8000000F8
F0000000F8
F0000000F8
F8000000F8
F8000000F8
F8000000F8
F8000000F0
7C000001F0
7C000001F0
7E000003E0
3F000007E0
1F80000FC0
1FC0001FC0
0FE0003F80
07F801FF00
03FFFFFE00
00FFFFF800
007FFFF000
001FFFC000
0000F80000
ENDCHAR
STARTCHAR 1ED3
ENCODING 7891
SWIDTH 800 0
DWIDTH 40 0
BBX 37 50 2 -1
BITMAP
0F00000000
0700000000
0780000000
03C0000000
01C0F80000
00E1FC0000
00E3FE0000
0007DE0000
00078F0000
000F078000
001E03C000
0000000000
0000000000
0000FC0000
001FFF8000
007FFFF000
01FFFFF800
03FFFFFE00
07F801FF00
0FE0007F80
1FC0001F80
1F80000FC0
3F000007E0
7E000003E0
7C000001F0
7C000001F0
F8000000F0
F8000000F8
F8000000F8
F8000000F8
F8000000F8
F0000000F8
F0000000F8
F8000000F8
F8000000F8
F8000000F8
F8000000F0
7C000001F0
7C000001F0
7E000003E0
3F000007E0
1F80000FC0
1FC0001FC0
0FE0003F80
07F801FF00
03FFFFFE00
00FFFFF800
007FFFF000
001FFFC000
0000F80000
ENDCHAR
STARTCHAR 1ED4
ENCODING 7892
SWIDTH 800 0
DWIDTH 40 0
BBX 37 52 2 -1
BITMAP
0000007000
0000003800
0000007800
0000007000
0000007000
000000E000
0000F8E000
0001FCF000
0003FE7000
0003DE0000
00078F0000
000F078000
001E03C000
0000000000
0000000000
0000FC0000
001FFF8000
007FFFF000
01FFFFF800
03FFFFFE00
07F801FF00
0FE0007F80
1FC0001F80
1F80000FC0
3F000007E0
7E000003E0
7C000001F0
7C000001F0
F8000000F0
F8000000F8
F8000000F8
F8000000F8
F8000000F8
F0000000F8
F0000000F8
F8000000F8
F8000000F8
F8000000F8
F8000000F0
7C000001F0
7C000001F0
7E000003E0
3F000007E0
1F80000FC0
1FC0001FC0
0FE0003F80
07F801FF00
03FFFFFE00
00FFFFF800
007FFFF000
001FFFC000
0000F80000
ENDCHAR
STARTCHAR 1ED5
ENCODING 7893
SWIDTH 800 0
DWIDTH 40 0
BBX 37 52 2 -1
BITMAP
0000007000
0000003800
0000007800
0000007000
0000007000
000000E000
0000F8E000
0001FCF000
0003FE7000
0003DE0000
00078F0000
000F078000
001E03C000
0000000000
0000000000
0000FC0000
001FFF8000
007FFFF000
01FFFFF800
03FFFFFE00
07F801FF00
0FE0007F80
1FC0001F80
1F80000FC0
3F000007E0
7E000003E0
7C000001F0
7C000001F0
F8000000F0
F8000000F8
F8000000F8
F8000000F8
F8000000F8
F0000000F8
F0000000F8
F8000000F8
F8000000F8
F8000000F8
F8000000F0
7C000001F0
7C000001F0
7E000003E0
3F000007E0
1F80000FC0
1FC0001FC0
0FE0003F80
07F801FF00
03FFFFFE00
00FFFFF800
007FFFF000
001FFFC000
0000F80000
ENDCHAR
STARTCHAR 1ED6
ENCODING 7894
SWIDTH 800 0
DWIDTH 40 0
BBX 37 51 2 -1
BITMAP
00001F0000
00003FFC00
00003FFC00
000021FC00
0000000000
0000F80000
0001FC0000
0003FE0000
0003DE0000
00078F0000
000F078000
001E03C000
0000000000
0000000000
0000FC0000
001FFF8000
007FFFF000
01FFFFF800
03FFFFFE00
07F801FF00
0FE0007F80
1FC0001F80
1F80000FC0
3F000007E0
7E000003E0
7C000001F0
7C000001F0
F8000000F0
F8000000F8
F8000000F8
F8000000F8
F8000000F8
F0000000F8
F0000000F8
F8000000F8
F8000000F8
F8000000F8
F8000000F0
7C000001F0
7C000001F0
7E000003E0
3F000007E0
1F80000FC0
1FC0001FC0
0FE0003F80
07F801FF00
03FFFFFE00
00FFFFF800
007FFFF000
001FFFC000
0000F80000
ENDCHAR
STARTCHAR 1ED7
ENCODING 7895
SWIDTH 800 0
DWIDTH 40 0
BBX 37 51 2 -1
BITMAP
00001F0000
00003FFC00
00003FFC00
000021FC00
0000000000
0000F80000
0001FC0000
0003FE0000
0003DE0000
00078F0000
000F078000
001E03C000
0000000000
0000000000
0000FC0000
001FFF8000
007FFFF000
01FFFFF800
03FFFFFE00
07F801FF00
0FE0007F80
1FC0001F80
1F80000FC0
3F000007E0
7E000003E0
7C000001F0
7C000001F0
F8000000F0
F8000000F8
F8000000F8
F8000000F8
F8000000F8
F0000000F8
F0000000F8
F8000000F8
F8000000F8
F8000000F8
F8000000F0
7C000001F0
7C000001F0
7E000003E0
3F000007E0
1F80000FC0
1FC0001FC0
0FE0003F80
07F801FF00
03FFFFFE00
00FFFFF800
007FFFF000
001FFFC000
0000F80000
ENDCHAR
STARTCHAR 1ED8
ENCODING 7896
SWIDTH 800 0
DWIDTH 40 0
BBX 37 58 2 -13
BITMAP
0000F80000
0001FC0000
0003FE0000
0003DE0000
00078F0000
000F078000
001E03C000
0000000000
0000000000
0000FC0000
001FFF8000
007FFFF000
01FFFFF800
03FFFFFE00
07F801FF00
0FE0007F80
1FC0001F80
1F80000FC0
3F000007E0
7E000003E0
7C000001F0
7C000001F0
F8000000F0
F8000000F8
F8000000F8
F8000000F8
F8000000F8
F0000000F8
F0000000F8
F8000000F8
F8000000F8
F8000000F8
F8000000F0
7C000001F0
7C000001F0
7E000003E0
3F000007E0
1F80000FC0
1FC0001FC0
0FE0003F80
07F801FF00
03FFFFFE00
00FFFFF800
007FFFF000
001FFFC000
0000F80000
0000000000
0000000000
0000000000
0000000000
0000000000
0000700000
0001F80000
0001FC0000
0001FC0000
0001FC0000
0001FC0000
0000F80000
ENDCHAR
STARTCHAR 1ED9
ENCODING 7897
SWIDTH 800 0
DWIDTH 40 0
BBX 37 58 2 -13
BITMAP
0000F80000
0001FC0000
0003FE0000
0003DE0000
00078F0000
000F078000
001E03C000
0000000000
0000000000
0000FC0000
001FFF8000
007FFFF000
01FFFFF800
03FFFFFE00
07F801FF00
0FE0007F80
1FC0001F80
1F80000FC0
3F000007E0
7E000003E0
7C000001F0
7C000001F0
F8000000F0
F8000000F8
F8000000F8
F8000000F8
F8000000F8
F0000000F8
F0000000F8
F8000000F8
F8000000F8
F8000000F8
F8000000F0
7C000001F0
7C000001F0
7E000003E0
3F000007E0
1F80000FC0
1FC0001FC0
0FE0003F80
07F801FF00
03FFFFFE00
00FFFFF800
007FFFF000
001FFFC000
0000F80000
0000000000
0000000000
0000000000
0000000000
0000000000
0000700000
0001F80000
0001FC0000
0001FC0000
0001FC0000
0001FC0000
0000F80000
ENDCHAR
STARTCHAR 1EDA
ENCODING 7898
SWIDTH 800 0
DWIDTH 40 0
BBX 37 46 2 -1
BITMAP
00000F0000
00001E0000
00001C0000
00003C0000
0000780000
0000700380
0000E00380
0000000380
0000000780
0000FC0700
001FFF9F00
007FFFFC00
01FFFFF800
03FFFFFE00
07F801FF00
0FE0007F80
1FC0001F80
1F80000FC0
3F000007E0
7E000003E0
7C000001F0
7C000001F0
F8000000F0
F8000000F8
F8000000F8
F8000000F8
F8000000F8
F0000000F8
F0000000F8
F8000000F8
F8000000F8
F8000000F8
F8000000F0
7C000001F0
7C000001F0
7E000003E0
3F000007E0
1F80000FC0
1FC0001FC0
0FE0003F80
07F801FF00
03FFFFFE00
00FFFFF800
007FFFF000
001FFFC000
0000F80000
ENDCHAR
STARTCHAR 1EDB
ENCODING 7899
SWIDTH 800 0
DWIDTH 40 0
BBX 37 46 2 -1
BITMAP
00000F0000
00001E0000
00001C0000
00003C0000
0000780000
0000700380
0000E00380
0000000380
0000000780
0000FC0700
001FFF9F00
007FFFFC00
01FFFFF800
03FFFFFE00
07F801FF00
0FE0007F80
1FC0001F80
1F80000FC0
3F000007E0
7E000003E0
7C000001F0
7C000001F0
F8000000F0
F8000000F8
F8000000F8
F8000000F8
F8000000F8
F0000000F8
F0000000F8
F8000000F8
F8000000F8
F8000000F8
F8000000F0
7C000001F0
7C000001F0
7E000003E0
3F000007E0
1F80000FC0
1FC0001FC0
0FE0003F80
07F801FF00
03FFFFFE00
00FFFFF800
007FFFF000
001FFFC000
0000F80000
ENDCHAR
STARTCHAR 1EDC
ENCODING 7900
SWIDTH 800 0
DWIDTH 40 0
BBX 37 46 2 -1
BITMAP
0007800000
0003C00000
0003C00000
0001E00000
0000E00000
0000700380
0000700380
0000000380
0000000780
0000FC0700
001FFF9F00
007FFFFC00
01FFFFF800
03FFFFFE00
07F801FF00
0FE0007F80
1FC0001F80
1F80000FC0
3F000007E0
7E000003E0
7C000001F0
7C000001F0
F8000000F0
F8000000F8
F8000000F8
F8000000F8
F8000000F8
F0000000F8
F0000000F8
F8000000F8
F8000000F8
F8000000F8
F8000000F0
7C000001F0
7C000001F0
7E000003E0
3F000007E0
1F80000FC0
1FC0001FC0
0FE0003F80
07F801FF00
03FFFFFE00
00FFFFF800
007FFFF000
001FFFC000
0000F80000
ENDCHAR
STARTCHAR 1EDD
ENCODING 7901
SWIDTH 800 0
DWIDTH 40 0
BBX 37 46 2 -1
BITMAP
0007800000
0003C00000
0003C00000
0001E00000
0000E00000
0000700380
0000700380
0000000380
0000000780
0000FC0700
001FFF9F00
007FFFFC00
01FFFFF800
03FFFFFE00
07F801FF00
0FE0007F80
1FC0001F80
1F80000FC0
3F000007E0
7E000003E0
7C000001F0
7C000001F0
F8000000F0
F8000000F8
F8000000F8
F8000000F8
F8000000F8
F0000000F8
F0000000F8
F8000000F8
F8000000F8
F8000000F8
F8000000F0
7C000001F0
7C000001F0
7E000003E0
3F000007E0
1F80000FC0
1FC0001FC0
0FE0003F80
07F801FF00
03FFFFFE00
00FFFFF800
007FFFF000
001FFFC000
0000F80000
ENDCHAR
STARTCHAR 1EDE
ENCODING 7902
SWIDTH 800 0
DWIDTH 40 0
BBX 37 48 2 -1
BITMAP
0000700000
0000700000
0000700000
0000700000
0000F00000
0000E00000
0000E00000
0000E00380
0000700380
0000000380
0000000780
0000FC0700
001FFF9F00
007FFFFC00
01FFFFF800
03FFFFFE00
07F801FF00
0FE0007F80
1FC0001F80
1F80000FC0
3F000007E0
7E000003E0
7C000001F0
7C000001F0
F8000000F0
F8000000F8
F8000000F8
F8000000F8
F8000000F8
F0000000F8
F0000000F8
F8000000F8
F8000000F8
F8000000F8
F8000000F0
7C000001F0
7C000001F0
7E000003E0
3F000007E0
1F80000FC0
1FC0001FC0
0FE0003F80
07F801FF00
03FFFFFE00
00FFFFF800
007FFFF000
001FFFC000
0000F80000
ENDCHAR
STARTCHAR 1EDF
ENCODING 7903
SWIDTH 800 0
DWIDTH 40 0
BBX 37 48 2 -1
BITMAP
0000700000
0000700000
0000700000
0000700000
0000F00000
0000E00000
0000E00000
0000E00380
0000700380
0000000380
0000000780
0000FC0700
001FFF9F00
007FFFFC00
01FFFFF800
03FFFFFE00
07F801FF00
0FE0007F80
1FC0001F80
1F80000FC0
3F000007E0
7E000003E0
7C000001F0
7C000001F0
F8000000F0
F8000000F8
F8000000F8
F8000000F8
F8000000F8
F0000000F8
F0000000F8
F8000000F8
F8000000F8
F8000000F8
F8000000F0
7C000001F0
7C000001F0
7E000003E0
3F000007E0
1F80000FC0
1FC0001FC0
0FE0003F80
07F801FF00
03FFFFFE00
00FFFFF800
007FFFF000
001FFFC000
0000F80000
ENDCHAR
STARTCHAR 1EE0
ENCODING 7904
SWIDTH 800 0
DWIDTH 40 0
BBX 37 45 2 -1
BITMAP
000FC10000
000FFF0000
000FFF0000
00003E0000
0000000380
0000000380
0000000380
0000000780
0000FC0700
001FFF9F00
007FFFFC00
01FFFFF800
03FFFFFE00
07F801FF00
0FE0007F80
1FC0001F80
1F80000FC0
3F000007E0
7E000003E0
7C000001F0
7C000001F0
F8000000F0
F8000000F8
F8000000F8
F8000000F8
F8000000F8
F0000000F8
F0000000F8
F8000000F8
F8000000F8
F8000000F8
F8000000F0
7C000001F0
7C000001F0
7E000003E0
3F000007E0
1F80000FC0
1FC0001FC0
0FE0003F80
07F801FF00
03FFFFFE00
00FFFFF800
007FFFF000
001FFFC000
0000F80000
ENDCHAR
STARTCHAR 1EE1
ENCODING 7905
SWIDTH 800 0
DWIDTH 40 0
BBX 37 45 2 -1
BITMAP
000FC10000
000FFF0000
000FFF0000
00003E0000
0000000380
0000000380
0000000380
0000000780
0000FC0700
001FFF9F00
007FFFFC00
01FFFFF800
03FFFFFE00
07F801FF00
0FE0007F80
1FC0001F80
1F80000FC0
3F000007E0
7E000003E0
7C000001F0
7C000001F0
F8000000F0
F8000000F8
F8000000F8
F8000000F8
F8000000F8
F0000000F8
F0000000F8
F8000000F8
F8000000F8
F8000000F8
F8000000F0
7C000001F0
7C000001F0
7E000003E0
3F000007E0
1F80000FC0
1FC0001FC0
0FE0003F80
07F801FF00
03FFFFFE00
00FFFFF800
007FFFF000
001FFFC000
0000F80000
ENDCHAR
STARTCHAR 1EE2
ENCODING 7906
SWIDTH 800 0
DWIDTH 40 0
BBX 37 53 2 -13
BITMAP
0000000380
0000000380
0000000380
0000000780
0000FC0700
001FFF9F00
007FFFFC00
01FFFFF800
03FFFFFE00
07F801FF00
0FE0007F80
1FC0001F80
1F80000FC0
3F000007E0
7E000003E0
7C000001F0
7C000001F0
F8000000F0
F8000000F8
F8000000F8
F8000000F8
F8000000F8
F0000000F8
F0000000F8
F8000000F8
F8000000F8
F8000000F8
F8000000F0
7C000001F0
7C000001F0
7E000003E0
3F000007E0
1F80000FC0
1FC0001FC0
0FE0003F80
07F801FF00
03FFFFFE00
00FFFFF800
007FFFF000
001FFFC000
0000F80000
0000000000
0000000000
0000000000
0000000000
0000000000
0000700000
0001F80000
0001FC0000
0001FC0000
0001FC0000
0001FC0000
0000F80000
ENDCHAR
STARTCHAR 1EE3
ENCODING 7907
SWIDTH 800 0
DWIDTH 40 0
BBX 37 53 2 -13
BITMAP
0000000380
0000000380
0000000380
0000000780
0000FC0700
001FFF9F00
007FFFFC00
01FFFFF800
03FFFFFE00
07F801FF00
0FE0007F80
1FC0001F80
1F80000FC0
3F000007E0
7E000003E0
7C000001F0
7C000001F0
F8000000F0
F8000000F8
F8000000F8
F8000000F8
F8000000F8
F0000000F8
F0000000F8
F8000000F8
F8000000F8
F8000000F8
F8000000F0
7C000001F0
7C000001F0
7E000003E0
3F000007E0
1F80000FC0
1FC0001FC0
0FE0003F80
07F801FF00
03FFFFFE00
00FFFFF800
007FFFF000
001FFFC000
0000F80000
0000000000
0000000000
0000000000
0000000000
0000000000
0000700000
0001F80000
0001FC0000
0001FC0000
0001FC0000
0001FC0000
0000F80000
ENDCHAR
STARTCHAR 1EE4
ENCODING 7908
SWIDTH 500 0
DWIDTH 25 0
BBX 21 48 2 -13
BITMAP
F80078
F80078
F80078
F80078
F80078
F80078
F80078
F80078
F80078
F80078
F80078
F80078
F80078
F80078
F80078
F80078
F80078
F80078
F80078
F80078
F80078
F80078
F80078
F80078
F80078
F800F8
F800F8
7800F8
7C00F8
7E01F0
3F03F0
3FFFE0
1FFFC0
0FFF80
03FF00
00F800
000000
000000
000000
000000
000000
007000
00FC00
01FC00
01FC00
01FC00
01FC00
00F800
ENDCHAR
STARTCHAR 1EE5
ENCODING 7909
SWIDTH 500 0
DWIDTH 25 0
BBX 21 48 2 -13
BITMAP
F80078
F80078
F80078
F80078
F80078
F80078
F80078
F80078
F80078
F80078
F80078
F80078
F80078
F80078
F80078
F80078
F80078
F80078
F80078
F80078
F80078
F80078
F80078
F80078
F80078
F800F8
F800F8
7800F8
7C00F8
7E01F0
3F03F0
3FFFE0
1FFFC0
0FFF80
03FF00
00F800
000000
000000
000000
000000
000000
007000
00FC00
01FC00
01FC00
01FC00
01FC00
00F800
ENDCHAR
STARTCHAR 1EE6
ENCODING 7910
SWIDTH 500 0
DWIDTH 25 0
BBX 21 48 2 -1
BITMAP
007800
003800
003800
007000
007000
007000
00F000
007000
007000
000000
000000
000000
F80078
F80078
F80078
F80078
F80078
F80078
F80078
F80078
F80078
F80078
F80078
F80078
F80078
F80078
F80078
F80078
F80078
F80078
F80078
F80078
F80078
F80078
F80078
F80078
F80078
F800F8
F800F8
7800F8
7C00F8
7E01F0
3F03F0
3FFFE0
1FFFC0
0FFF80
03FF00
00F800
ENDCHAR
STARTCHAR 1EE7
ENCODING 7911
SWIDTH 500 0
DWIDTH 25 0
BBX 21 48 2 -1
BITMAP
007800
003800
003800
007000
007000
007000
00F000
007000
007000
000000
000000
000000
F80078
F80078
F80078
F80078
F80078
F80078
F80078
F80078
F80078
F80078
F80078
F80078
F80078
F80078
F80078
F80078
F80078
F80078
F80078
F80078
F80078
F80078
F80078
F80078
F80078
F800F8
F800F8
7800F8
7C00F8
7E01F0
3F03F0
3FFFE0
1FFFC0
0FFF80
03FF00
00F800
ENDCHAR
STARTCHAR 1EE8
ENCODING 7912
SWIDTH 500 0
DWIDTH 25 0
BBX 25 46 2 -1
BITMAP
000F0000
000E0000
001E0000
003C0000
00380000
00700380
00700380
00000380
00000780
00000700
F8007F00
F8007C00
F8007800
F8007800
F8007800
F8007800
F8007800
F8007800
F8007800
F8007800
F8007800
F8007800
F8007800
F8007800
F8007800
F8007800
F8007800
F8007800
F8007800
F8007800
F8007800
F8007800
F8007800
F8007800
F8007800
F800F800
F800F800
7800F800
7C00F800
7E01F000
3F03F000
3FFFE000
1FFFC000
0FFF8000
03FF0000
00F80000
ENDCHAR
STARTCHAR 1EE9
ENCODING 7913
SWIDTH 500 0
DWIDTH 25 0
BBX 25 46 2 -1
BITMAP
000F0000
000E0000
001E0000
003C0000
00380000
00700380
00700380
00000380
00000780
00000700
F8007F00
F8007C00
F8007800
F8007800
F8007800
F8007800
F8007800
F8007800
F8007800
F8007800
F8007800
F8007800
F8007800
F8007800
F8007800
F8007800
F8007800
F8007800
F8007800
F8007800
F8007800
F8007800
F8007800
F8007800
F8007800
F800F800
F800F800
7800F800
7C00F800
7E01F000
3F03F000
3FFFE000
1FFFC000
0FFF8000
03FF0000
00F80000
ENDCHAR
STARTCHAR 1EEA
ENCODING 7914
SWIDTH 500 0
DWIDTH 25 0
BBX 25 46 2 -1
BITMAP
07800000
03C00000
01C00000
00E00000
00F00000
00700380
00380380
00000380
00000780
00000700
F8007F00
F8007C00
F8007800
F8007800
F8007800
F8007800
F8007800
F8007800
F8007800
F8007800
F8007800
F8007800
F8007800
F8007800
F8007800
F8007800
F8007800
F8007800
F8007800
F8007800
F8007800
F8007800
F8007800
F8007800
F8007800
F800F800
F800F800
7800F800
7C00F800
7E01F000
3F03F000
3FFFE000
1FFFC000
0FFF8000
03FF0000
00F80000
ENDCHAR
STARTCHAR 1EEB
ENCODING 7915
SWIDTH 500 0
DWIDTH 25 0
BBX 25 46 2 -1
BITMAP
07800000
03C00000
01C00000
00E00000
00F00000
00700380
00380380
00000380
00000780
00000700
F8007F00
F8007C00
F8007800
F8007800
F8007800
F8007800
F8007800
F8007800
F8007800
F8007800
F8007800
F8007800
F8007800
F8007800
F8007800
F8007800
F8007800
F8007800
F8007800
F8007800
F8007800
F8007800
F8007800
F8007800
F8007800
F800F800
F800F800
7800F800
7C00F800
7E01F000
3F03F000
3FFFE000
1FFFC000
0FFF8000
03FF0000
00F80000
ENDCHAR
STARTCHAR 1EEC
ENCODING 7916
SWIDTH 500 0
DWIDTH 25 0
BBX 25 48 2 -1
BITMAP
00780000
00380000
00380000
00700000
00700000
00700000
00F00000
00700380
00700380
00000380
00000780
00000700
F8007F00
F8007C00
F8007800
F8007800
F8007800
F8007800
F8007800
F8007800
F8007800
F8007800
F8007800
F8007800
F8007800
F8007800
F8007800
F8007800
F8007800
F8007800
F8007800
F8007800
F8007800
F8007800
F8007800
F8007800
F8007800
F800F800
F800F800
7800F800
7C00F800
7E01F000
3F03F000
3FFFE000
1FFFC000
0FFF8000
03FF0000
00F80000
ENDCHAR
STARTCHAR 1EED
ENCODING 7917
SWIDTH 500 0
DWIDTH 25 0
BBX 25 48 2 -1
BITMAP
00780000
00380000
00380000
00700000
00700000
00700000
00F00000
00700380
00700380
00000380
00000780
00000700
F8007F00
F8007C00
F8007800
F8007800
F8007800
F8007800
F8007800
F8007800
F8007800
F8007800
F8007800
F8007800
F8007800
F8007800
F8007800
F8007800
F8007800
F8007800
F8007800
F8007800
F8007800
F8007800
F8007800
F8007800
F8007800
F800F800
F800F800
7800F800
7C00F800
7E01F000
3F03F000
3FFFE000
1FFFC000
0FFF8000
03FF0000
00F80000
ENDCHAR
STARTCHAR 1EEE
ENCODING 7918
SWIDTH 500 0
DWIDTH 25 0
BBX 25 45 2 -1
BITMAP
0FC10000
0FFF0000
0FFF0000
003F0000
00000380
00000380
00000380
00000780
00000700
F8007F00
F8007C00
F8007800
F8007800
F8007800
F8007800
F8007800
F8007800
F8007800
F8007800
F8007800
F8007800
F8007800
F8007800
F8007800
F8007800
F8007800
F8007800
F8007800
F8007800
F8007800
F8007800
F8007800
F8007800
F8007800
F800F800
F800F800
7800F800
7C00F800
7E01F000
3F03F000
3FFFE000
1FFFC000
0FFF8000
03FF0000
00F80000
ENDCHAR
STARTCHAR 1EEF
ENCODING 7919
SWIDTH 500 0
DWIDTH 25 0
BBX 25 45 2 -1
BITMAP
0FC10000
0FFF0000
0FFF0000
003F0000
00000380
00000380
00000380
00000780
00000700
F8007F00
F8007C00
F8007800
F8007800
F8007800
F8007800
F8007800
F8007800
F8007800
F8007800
F8007800
F8007800
F8007800
F8007800
F8007800
F8007800
F8007800
F8007800
F8007800
F8007800
F8007800
F8007800
F8007800
F8007800
F8007800
F800F800
F800F800
7800F800
7C00F800
7E01F000
3F03F000
3FFFE000
1FFFC000
0FFF8000
03FF0000
00F80000
ENDCHAR
STARTCHAR 1EF0
ENCODING 7920
SWIDTH 500 0
DWIDTH 25 0
BBX 25 53 2 -13
BITMAP
00000380
00000380
00000380
00000780
00000700
F8007F00
F8007C00
F8007800
F8007800
F8007800
F8007800
F8007800
F8007800
F8007800
F8007800
F8007800
F8007800
F8007800
F8007800
F8007800
F8007800
F8007800
F8007800
F8007800
F8007800
F8007800
F8007800
F8007800
F8007800
F8007800
F800F800
F800F800
7800F800
7C00F800
7E01F000
3F03F000
3FFFE000
1FFFC000
0FFF8000
03FF0000
00F80000
00000000
00000000
00000000
00000000
00000000
00700000
00FC0000
01FC0000
01FC0000
01FC0000
01FC0000
00F80000
ENDCHAR
STARTCHAR 1EF1
ENCODING 7921
SWIDTH 500 0
DWIDTH 25 0
BBX 25 53 2 -13
BITMAP
00000380
00000380
00000380
00000780
00000700
F8007F00
F8007C00
F8007800
F8007800
F8007800
F8007800
F8007800
F8007800
F8007800
F8007800
F8007800
F8007800
F8007800
F8007800
F8007800
F8007800
F8007800
F8007800
F8007800
F8007800
F8007800
F8007800
F8007800
F8007800
F8007800
F800F800
F800F800
7800F800
7C00F800
7E01F000
3F03F000
3FFFE000
1FFFC000
0FFF8000
03FF0000
00F80000
00000000
00000000
00000000
00000000
00000000
00700000
00FC0000
01FC0000
01FC0000
01FC0000
01FC0000
00F80000
ENDCHAR
STARTCHAR 1EF2
ENCODING 7922
SWIDTH 480 0
DWIDTH 24 0
BBX 21 45 2 0
BITMAP
078000
03C000
01C000
01E000
00E000
007000
007800
000000
000000
000000
F800F8
F800F8
F800F8
F800F8
F800F8
F800F8
F800F8
F800F8
F800F8
F800F8
F800F8
F800F8
F800F8
F800F8
F800F8
F800F8
F800F8
F800F8
F800F8
7C01F0
7C01F0
7E03F0
3FFFE0
1FFFC0
0FFF80
07FF00
00F800
00F800
00F800
00F800
00F800
00F800
00F800
00F800
00F800
ENDCHAR
STARTCHAR 1EF3
ENCODING 7923
SWIDTH 480 0
DWIDTH 24 0
BBX 21 45 2 0
BITMAP
078000
03C000
01C000
01E000
00E000
007000
007800
000000
000000
000000
F800F8
F800F8
F800F8
F800F8
F800F8
F800F8
F800F8
F800F8
F800F8
F800F8
F800F8
F800F8
F800F8
F800F8
F800F8
F800F8
F800F8
F800F8
F800F8
7C01F0
7C01F0
7E03F0
3FFFE0
1FFFC0
0FFF80
07FF00
00F800
00F800
00F800
00F800
00F800
00F800
00F800
00F800
00F800
ENDCHAR
STARTCHAR 1EF4
ENCODING 7924
SWIDTH 480 0
DWIDTH 24 0
BBX 21 48 2 -13
BITMAP
F800F8
F800F8
F800F8
F800F8
F800F8
F800F8
F800F8
F800F8
F800F8
F800F8
F800F8
F800F8
F800F8
F800F8
F800F8
F800F8
F800F8
F800F8
F800F8
7C01F0
7C01F0
7E03F0
3FFFE0
1FFFC0
0FFF80
07FF00
00F800
00F800
00F800
00F800
00F800
00F800
00F800
00F800
00F800
000000
000000
000000
000000
000000
000000
007000
00F800
01FC00
01FC00
01FC00
01FC00
00F800
ENDCHAR
STARTCHAR 1EF5
ENCODING 7925
SWIDTH 480 0
DWIDTH 24 0
BBX 21 48 2 -13
BITMAP
F800F8
F800F8
F800F8
F800F8
F800F8
F800F8
F800F8
F800F8
F800F8
F800F8
F800F8
F800F8
F800F8
F800F8
F800F8
F800F8
F800F8
F800F8
F800F8
7C01F0
7C01F0
7E03F0
3FFFE0
1FFFC0
0FFF80
07FF00
00F800
00F800
00F800
00F800
00F800
00F800
00F800
00F800
00F800
000000
000000
000000
000000
000000
000000
007000
00F800
01FC00
01FC00
01FC00
01FC00
00F800
ENDCHAR
STARTCHAR 1EF6
ENCODING 7926
SWIDTH 480 0
DWIDTH 24 0
BBX 21 47 2 0
BITMAP
007000
007800
007000
007000
007000
00E000
00E000
00E000
007000
000000
000000
000000
F800F8
F800F8
F800F8
F800F8
F800F8
F800F8
F800F8
F800F8
F800F8
F800F8
F800F8
F800F8
F800F8
F800F8
F800F8
F800F8
F800F8
F800F8
F800F8
7C01F0
7C01F0
7E03F0
3FFFE0
1FFFC0
0FFF80
07FF00
00F800
00F800
00F800
00F800
00F800
00F800
00F800
00F800
00F800
ENDCHAR
STARTCHAR 1EF7
ENCODING 7927
SWIDTH 480 0
DWIDTH 24 0
BBX 21 47 2 0
BITMAP
007000
007800
007000
007000
007000
00E000
00E000
00E000
007000
000000
000000
000000
F800F8
F800F8
F800F8
F800F8
F800F8
F800F8
F800F8
F800F8
F800F8
F800F8
F800F8
F800F8
F800F8
F800F8
F800F8
F800F8
F800F8
F800F8
F800F8
7C01F0
7C01F0
7E03F0
3FFFE0
1FFFC0
0FFF80
07FF00
00F800
00F800
00F800
00F800
00F800
00F800
00F800
00F800
00F800
ENDCHAR
STARTCHAR 1EF8
ENCODING 7928
SWIDTH 480 0
DWIDTH 24 0
BBX 21 44 2 0
BITMAP
0FC100
0FFF00
0FFF00
003E00
000000
000000
000000
000000
000000
F800F8
F800F8
F800F8
F800F8
F800F8
F800F8
F800F8
F800F8
F800F8
F800F8
F800F8
F800F8
F800F8
F800F8
F800F8
F800F8
F800F8
F800F8
F800F8
7C01F0
7C01F0
7E03F0
3FFFE0
1FFFC0
0FFF80
07FF00
00F800
00F800
00F800
00F800
00F800
00F800
00F800
00F800
00F800
ENDCHAR
STARTCHAR 1EF9
ENCODING 7929
SWIDTH 480 0
DWIDTH 24 0
BBX 21 44 2 0
BITMAP
0FC100
0FFF00
0FFF00
003E00
000000
000000
000000
000000
000000
F800F8
F800F8
F800F8
F800F8
F800F8
F800F8
F800F8
F800F8
F800F8
F800F8
F800F8
F800F8
F800F8
F800F8
F800F8
F800F8
F800F8
F800F8
F800F8
7C01F0
7C01F0
7E03F0
3FFFE0
1FFFC0
0FFF80
07FF00
00F800
00F800
00F800
00F800
00F800
00F800
00F800
00F800
00F800
ENDCHAR
STARTCHAR 2013
ENCODING 8211
SWIDTH 560 0
DWIDTH 28 0
BBX 23 3 3 12
BITMAP
FFFFFE
FFFFFE
FFFFFE
ENDCHAR
STARTCHAR 2014
ENCODING 8212
SWIDTH 800 0
DWIDTH 40 0
BBX 35 3 3 12
BITMAP
FFFFFFFFE0
FFFFFFFFE0
FFFFFFFFE0
ENDCHAR
STARTCHAR 2018
ENCODING 8216
SWIDTH 220 0
DWIDTH 11 0
BBX 6 10 3 25
BITMAP
1C
1C
3C
38
38
78
78
F8
F0
F0
ENDCHAR
STARTCHAR 2019
ENCODING 8217
SWIDTH 220 0
DWIDTH 11 0
BBX 6 10 3 25
BITMAP
7C
7C
78
78
70
F0
F0
E0
E0
E0
ENDCHAR
STARTCHAR 201A
ENCODING 8218
SWIDTH 220 0
DWIDTH 11 0
BBX 6 10 3 -6
BITMAP
3C
7C
78
78
78
70
F0
E0
E0
E0
ENDCHAR
STARTCHAR 201C
ENCODING 8220
SWIDTH 400 0
DWIDTH 20 0
BBX 15 10 3 25
BITMAP
1C0E
1C1C
1C1C
3C1C
3C3C
383C
7878
7878
F878
F8F8
ENDCHAR
STARTCHAR 201D
ENCODING 8221
SWIDTH 400 0
DWIDTH 20 0
BBX 14 10 3 25
BITMAP
7C3C
7C3C
7878
7878
7078
F070
F070
E0F0
E0E0
E0E0
ENDCHAR
STARTCHAR 201E
ENCODING 8222
SWIDTH 420 0
DWIDTH 21 0
BBX 15 10 3 -6
BITMAP
3C1E
7C1E
783E
783C
783C
7038
F038
E078
E070
E070
ENDCHAR
STARTCHAR 2020
ENCODING 8224
SWIDTH 400 0
DWIDTH 20 0
BBX 15 24 3 12
BITMAP
0380
0380
0380
0380
0380
FFFE
FFFE
FFFE
FFFE
0380
0380
0380
0380
0380
0380
0380
0380
0380
0380
0380
0380
0380
0380
0380
ENDCHAR
STARTCHAR 2021
ENCODING 8225
SWIDTH 400 0
DWIDTH 20 0
BBX 15 24 3 12
BITMAP
0380
0380
0380
0380
0380
FFFE
FFFE
FFFE
FFFE
0380
0380
0380
0380
0380
0380
FFFE
FFFE
FFFE
FFFE
0380
0380
0380
0380
0380
ENDCHAR
STARTCHAR 2022
ENCODING 8226
SWIDTH 300 0
DWIDTH 15 0
BBX 10 10 3 9
BITMAP
3F00
7F80
FFC0
FFC0
FFC0
FFC0
FFC0
FFC0
7F80
3F00
ENDCHAR
STARTCHAR 2026
ENCODING 8230
SWIDTH 660 0
DWIDTH 33 0
BBX 28 8 3 -1
BITMAP
30060180
7C1F83E0
FE3F87F0
FE3FC7F0
FE3F87F0
FE3F87F0
7C1F83E0
30040180
ENDCHAR
STARTCHAR 2030
ENCODING 8240
SWIDTH 1280 0
DWIDTH 64 0
BBX 59 37 3 -1
BITMAP
01C0000000000000
0FF8000780000000
1FFC000F00000000
3FFE001E00000000
7C3F001E00000000
F80F003C00000000
F00F807800000000
F007807800000000
F00780F000000000
F00781E000000000
F00783C000000000
F00F83C000000000
F81F078000000000
7E7F0F0000000000
3FFE0F0000000000
1FFC1E0000000000
07F03C0000000000
00003C0000000000
0000780000000000
0000F00000000000
0001E07F8003FC00
0001E0FFE00FFE00
0003C1FFF01FFF00
000783F1F81F0F80
000783C0783E07C0
000F07807C3C03C0
001E07803C7803C0
001E07803C7801E0
003C07803C7801E0
007807803C7803C0
00F007803C3C03C0
00F007C0783E07C0
01E003E1F83F0F80
03C001FFF01FFF80
03C000FFE00FFF00
0780007FC003FC00
0000000400006000
ENDCHAR
STARTCHAR 2039
ENCODING 8249
SWIDTH 360 0
DWIDTH 18 0
BBX 13 22 3 4
BITMAP
01F0
01E0
03C0
07C0
0F80
0F00
1E00
3E00
7C00
7800
F000
F800
7C00
3C00
1E00
1F00
0F80
0780
03C0
03E0
01F0
00F8
ENDCHAR
STARTCHAR 203A
ENCODING 8250
SWIDTH 360 0
DWIDTH 18 0
BBX 12 22 3 4
BITMAP
F800
7C00
3C00
3E00
1F00
0F80
0780
03C0
03E0
01F0
00F0
01F0
01E0
03E0
07C0
0F80
0F00
1E00
3E00
7C00
7800
F000
ENDCHAR
STARTCHAR 2044
ENCODING 8260
SWIDTH 660 0
DWIDTH 33 0
BBX 28 35 3 0
BITMAP
000000F0
000001E0
000003C0
000003C0
00000780
00000F00
00001E00
00001E00
00003C00
00007800
00007800
0000F000
0001E000
0001E000
0003C000
00078000
000F0000
000F0000
001E0000
003C0000
003C0000
00780000
00F00000
00F00000
01E00000
03C00000
07800000
07800000
0F000000
1E000000
1E000000
3C000000
78000000
78000000
F0000000
ENDCHAR
STARTCHAR 20AC
ENCODING 8364
SWIDTH 640 0
DWIDTH 32 0
BBX 27 37 3 -1
BITMAP
00000200
0000FFE0
0003FFE0
000FFFE0
001FFFE0
007FC020
00FF0000
00FC0000
01F80000
03F00000
03E00000
07E00000
07C00000
07C00000
FFFFFC00
FFFFFC00
FFFFFC00
0F800000
0F800000
0F800000
FFFFFC00
FFFFFC00
FFFFFC00
FFFFFC00
07C00000
07E00000
03E00000
03F00000
01F80000
00FC0000
00FF0000
007FE020
001FFFE0
000FFFE0
0003FFE0
0000FFE0
00000200
ENDCHAR
STARTCHAR 2122
ENCODING 8482
SWIDTH 800 0
DWIDTH 40 0
BBX 34 20 3 16
BITMAP
FFF0020000
FFFC0381C0
FFFE03C1C0
FFFF83F1C0
0F07E3F9C0
0F07F3FFC0
0F07FFFFC0
0F07FFCFC0
0F079FC7C0
0F078FC1C0
0F0783C1C0
0F0783C1C0
0F0783C1C0
0F0783C1C0
0F0783C1C0
0F0783C1C0
0F0783C1C0
0F0783C1C0
0F0783C1C0
0F0783C1C0
ENDCHAR
STARTCHAR 2190
ENCODING 8592
SWIDTH 820 0
DWIDTH 41 0
BBX 36 24 3 6
BITMAP
0010000000
0038000000
007C000000
00F8000000
01F0000000
03E0000000
07C0000000
0F80000000
1F00000000
3E00000000
7FFFFFFFF0
FFFFFFFFF0
FFFFFFFFF0
7FFFFFFFF0
3E00000000
1F00000000
0F80000000
07C0000000
03E0000000
01F0000000
00F8000000
007C000000
0038000000
0010000000
ENDCHAR
STARTCHAR 2191
ENCODING 8593
SWIDTH 580 0
DWIDTH 29 0
BBX 23 36 3 0
BITMAP
001000
003800
007C00
00FE00
01FF00
03FF80
07FFC0
0FBFE0
1F3DF0
3E3CF8
7C3C7C
F83C3E
F03C1E
603C0C
003C00
003C00
003C00
003C00
003C00
003C00
003C00
003C00
003C00
003C00
003C00
003C00
003C00
003C00
003C00
003C00
003C00
003C00
003C00
003C00
003C00
003C00
ENDCHAR
STARTCHAR 2192
ENCODING 8594
SWIDTH 820 0
DWIDTH 41 0
BBX 35 24 3 6
BITMAP
0000010000
0000038000
000007C000
000003E000
000001F000
000000F800
0000007C00
0000003E00
0000001F00
0000000F80
FFFFFFFFC0
FFFFFFFFE0
FFFFFFFFE0
FFFFFFFFC0
0000000F80
0000001F00
0000003E00
0000007C00
000000F800
000001F000
000003E000
000007C000
0000038000
0000010000
ENDCHAR
STARTCHAR 2193
ENCODING 8595
SWIDTH 580 0
DWIDTH 29 0
BBX 23 36 3 -1
BITMAP
007C00
007C00
007C00
007C00
007C00
003C00
003C00
003C00
003C00
003C00
003C00
003C00
003C00
003C00
003C00
003C00
003C00
003C00
003C00
003C00
003C00
003C00
603C0C
F03C1E
F83C3E
7C3C7C
3E3CF8
1F3DF0
0FBFE0
07FFC0
03FF80
01FF00
00FE00
007C00
003800
001000
ENDCHAR
STARTCHAR 2194
ENCODING 8596
SWIDTH 880 0
DWIDTH 44 0
BBX 39 24 3 6
BITMAP
0010001000
0038003800
007C007C00
00F8003E00
01F0001F00
03E0000F80
07C00007C0
0F800003E0
1F000001F0
3E000000F8
7FFFFFFFFC
FFFFFFFFFE
FFFFFFFFFE
7FFFFFFFFC
3E000001F8
1F000003F0
0F800003E0
07C00007C0
03E0000F80
01F0001F00
00F8003E00
007C007C00
0038003800
0010001000
ENDCHAR
STARTCHAR 2195
ENCODING 8597
SWIDTH 620 0
DWIDTH 31 0
BBX 25 37 3 -1
BITMAP
00080000
001E0000
003F0000
00FF8000
01FFC000
03FFE000
07DFF800
0F9EFC00
3F1E7E00
7E1E3F00
FC1E0F80
F01E0780
601E0300
001E0100
001E0000
001E0000
001E0000
001E0000
001E0000
001E0000
001E0000
001E0000
001E0000
001E0100
601E0300
F81E0780
FC1E0F80
7E1E3F00
3F1E7E00
0F9EFC00
07DFF800
03FFE000
01FFC000
00FF8000
003F0000
001E0000
00080000
ENDCHAR
STARTCHAR 2196
ENCODING 8598
SWIDTH 640 0
DWIDTH 32 0
BBX 26 27 3 4
BITMAP
FFFF8000
FFFF8000
FFFF8000
FFFF8000
FE000000
FF000000
FF800000
EFC00000
E7E00000
E3F00000
E1F80000
E0FC0000
E07E0000
E03F0000
E01F8000
E00FC000
E007E000
0003F000
0001F800
0000FC00
00007E00
00003F00
00001F80
00000FC0
000007C0
00000380
00000100
ENDCHAR
STARTCHAR 2197
ENCODING 8599
SWIDTH 640 0
DWIDTH 32 0
BBX 27 27 3 4
BITMAP
003FFFE0
003FFFE0
003FFFE0
003FFFE0
00000FE0
00001FE0
00003FE0
00007DE0
0001F9E0
0003F1E0
0007E1E0
000FC1E0
001F81E0
003F01E0
007E01E0
00FC01E0
01F801E0
03F00000
07E00000
0FC00000
1F800000
3F000000
7E000000
FC000000
F8000000
70000000
20000000
ENDCHAR
STARTCHAR 2198
ENCODING 8600
SWIDTH 640 0
DWIDTH 32 0
BBX 27 27 3 4
BITMAP
20000000
70000000
F8000000
FC000000
7E000000
3F000000
1F800000
0FC00000
07E00000
03F00000
01F801E0
00FC01E0
007E01E0
003F01E0
001F81E0
000FC1E0
0007E1E0
0003F1E0
0001F9E0
0000FDE0
00007FE0
00003FE0
00001FE0
00000FE0
003FFFE0
003FFFE0
003FFFE0
ENDCHAR
STARTCHAR 2199
ENCODING 8601
SWIDTH 640 0
DWIDTH 32 0
BBX 26 27 3 4
BITMAP
00000100
00000380
000007C0
00000FC0
00001F80
00003F00
00007E00
0000FC00
0001F800
0003F000
E007E000
E00FC000
E00F8000
E01F0000
E03E0000
E07C0000
E0F80000
E1F00000
E3E00000
E7C00000
EF800000
FF000000
FE000000
FC000000
FFFF8000
FFFF8000
FFFF8000
ENDCHAR
STARTCHAR 2202
ENCODING 8706
SWIDTH 560 0
DWIDTH 28 0
BBX 23 38 3 -1
BITMAP
010000
03C000
03F000
07F800
07FC00
01FF00
007F80
003FC0
000FC0
0007E0
0003F0
0001F0
0001F8
0000F8
00007C
01FC7C
07FF3C
1FFFBE
3FFFFE
3FC7FE
7F01FE
7C007E
FC007E
F8003E
F8003E
F8003E
F8003E
F8007C
F8007C
F800FC
FC00F8
7C01F8
7F07F0
3FFFE0
1FFFC0
0FFF80
07FF00
00F800
ENDCHAR
STARTCHAR 2205
ENCODING 8709
SWIDTH 720 0
DWIDTH 36 0
BBX 31 30 3 3
BITMAP
001FE00C
00FFFC1E
01FFFF3C
07C00FF8
0F0003F0
1E0001E0
3C0003F0
380007F0
70000F38
70001E38
70003C1C
E000781C
E000F01C
E001E01C
E003C00C
E007801C
E00F001C
E01E001C
E03C001C
7078001C
70F00038
79E00038
3BC00070
3F8000F0
1F0001E0
1F0003C0
3FC00F80
79FFFF00
F0FFFC00
601FE000
ENDCHAR
STARTCHAR 220F
ENCODING 8719
SWIDTH 600 0
DWIDTH 30 0
BBX 25 41 3 -5
BITMAP
FFFFFF80
FFFFFF80
FFFFFF80
FFFFFF80
1E003C00
1E003C00
1E003C00
1E003C00
1E003C00
1E003C00
1E003C00
1E003C00
1E003C00
1E003C00
1E003C00
1E003C00
1E003C00
1E003C00
1E003C00
1E003C00
1E003C00
1E003C00
1E003C00
1E003C00
1E003C00
1E003C00
1E003C00
1E003C00
1E003C00
1E003C00
1E003C00
1E003C00
1E003C00
1E003C00
1E003C00
1E003C00
1E003C00
1E003C00
1E003C00
1E003C00
1E003C00
ENDCHAR
STARTCHAR 2211
ENCODING 8721
SWIDTH 480 0
DWIDTH 24 0
BBX 19 41 3 -5
BITMAP
FFFFE0
FFFFE0
FFFFE0
FFFFE0
F80000
780000
7C0000
3E0000
3E0000
1F0000
1F0000
0F8000
078000
07C000
03C000
03E000
01E000
01F000
00F800
00F800
007C00
007800
00F800
01F000
01E000
03E000
03C000
07C000
078000
0F8000
1F0000
1F0000
3E0000
3C0000
7C0000
780000
F80000
FFFFE0
FFFFE0
FFFFE0
FFFFE0
ENDCHAR
STARTCHAR 2212
ENCODING 8722
SWIDTH 540 0
DWIDTH 27 0
BBX 22 3 3 15
BITMAP
FFFFFC
FFFFFC
FFFFFC
ENDCHAR
STARTCHAR 221A
ENCODING 8730
SWIDTH 660 0
DWIDTH 33 0
BBX 28 41 3 -5
BITMAP
00003FF0
00003FF0
00007FF0
00007FF0
00007800
0000F800
0000F800
0000F000
0000F000
0001F000
0001E000
0001E000
0001E000
0003E000
0003C000
0003C000
0007C000
00078000
00078000
00078000
000F8000
F00F0000
F80F0000
780F0000
781E0000
7C1E0000
7C1E0000
3C3E0000
3E3C0000
3E3C0000
1E3C0000
1E780000
1F780000
0F780000
0FF80000
0FF00000
07F00000
07F00000
07E00000
03E00000
03E00000
ENDCHAR
STARTCHAR 221E
ENCODING 8734
SWIDTH 800 0
DWIDTH 40 0
BBX 34 16 3 10
BITMAP
07E001F800
1FF807FE00
3FFC0FFF00
7E7E1F8F80
F81F3E03C0
F007FC03C0
E003F801C0
E001F001C0
E001E001C0
E003F001C0
E007F801C0
F00FBC03C0
783F1F0780
7FFE1FFF80
3FFC07FF00
0FF003FC00
ENDCHAR
STARTCHAR 222B
ENCODING 8747
SWIDTH 500 0
DWIDTH 25 0
BBX 19 42 3 -6
BITMAP
0001E0
0007E0
000FE0
001FC0
001F00
003E00
003C00
003C00
003C00
007C00
007800
007800
007800
007800
007800
00F800
00F000
00F000
00F000
00F000
00F000
01E000
01E000
01E000
01E000
01E000
03E000
03C000
03C000
03C000
03C000
03C000
078000
078000
078000
078000
0F8000
1F0000
FF0000
FE0000
F80000
800000
ENDCHAR
STARTCHAR 2248
ENCODING 8776
SWIDTH 540 0
DWIDTH 27 0
BBX 22 16 3 8
BITMAP
FF8000
FFFE3C
FFFFFC
FFFFFC
003FF8
000080
000000
000000
000000
000000
7F0000
FFF80C
FFFFFC
FFFFFC
007FFC
0003C0
ENDCHAR
STARTCHAR 2260
ENCODING 8800
SWIDTH 540 0
DWIDTH 27 0
BBX 22 24 3 4
BITMAP
000F00
000F00
000F00
001E00
001E00
FFFFFC
FFFFFC
FFFFFC
FFFFFC
007800
007800
00F000
00F000
00F000
01E000
FFFFFC
FFFFFC
FFFFFC
FFFFFC
03C000
078000
078000
0F0000
0F0000
ENDCHAR
STARTCHAR 2264
ENCODING 8804
SWIDTH 540 0
DWIDTH 27 0
BBX 22 21 3 5
BITMAP
00000C
0000FC
000FFC
01FFFC
1FFFC0
FFF800
FF8000
FC0000
FFC000
FFFC00
0FFFC0
00FFFC
000FFC
0000FC
00000C
000000
000000
FFFFFC
FFFFFC
FFFFFC
FFFFFC
ENDCHAR
STARTCHAR 2265
ENCODING 8805
SWIDTH 540 0
DWIDTH 27 0
BBX 22 21 3 5
BITMAP
C00000
FC0000
FFC000
FFFE00
0FFFE0
00FFFC
0007FC
00007C
0007FC
00FFFC
0FFFC0
FFFC00
FFC000
FC0000
C00000
000000
000000
FFFFFC
FFFFFC
FFFFFC
FFFFFC
ENDCHAR
STARTCHAR 25CA
ENCODING 9674
SWIDTH 480 0
DWIDTH 24 0
BBX 19 28 3 4
BITMAP
03F000
03F800
07F800
07FC00
0F3C00
0F3E00
1E1E00
1E1F00
3E0F00
3C0F80
7C0780
7807C0
F803C0
F003E0
F003E0
F803C0
780780
7C0780
3C0F00
3E0F00
1E1E00
1F1E00
0F3C00
0FBC00
07F800
03F800
03F000
01F000
ENDCHAR
ENDFONT
